<?xml version="1.0" encoding="UTF-8" standalone="no"?>
<!-- Created with Inkscape (http://www.inkscape.org/) -->

<svg
   width="193.06334mm"
   height="170.74788mm"
   viewBox="0 0 193.06334 170.74787"
   version="1.1"
   id="svg1"
   xml:space="preserve"
   inkscape:version="1.4 (86a8ad7, 2024-10-11)"
   sodipodi:docname="spaghetti_dreieck.svg"
   inkscape:export-filename="spaghetti_dreieck.svg"
   inkscape:export-xdpi="96"
   inkscape:export-ydpi="96"
   xmlns:inkscape="http://www.inkscape.org/namespaces/inkscape"
   xmlns:sodipodi="http://sodipodi.sourceforge.net/DTD/sodipodi-0.dtd"
   xmlns="http://www.w3.org/2000/svg"
   xmlns:svg="http://www.w3.org/2000/svg"><sodipodi:namedview
     id="namedview1"
     pagecolor="#ffffff"
     bordercolor="#000000"
     borderopacity="0.25"
     inkscape:showpageshadow="2"
     inkscape:pageopacity="0.0"
     inkscape:pagecheckerboard="0"
     inkscape:deskcolor="#d1d1d1"
     inkscape:document-units="mm"
     showguides="true"
     inkscape:zoom="1.0396254"
     inkscape:cx="984.00826"
     inkscape:cy="294.81772"
     inkscape:window-width="5120"
     inkscape:window-height="1369"
     inkscape:window-x="-8"
     inkscape:window-y="-8"
     inkscape:window-maximized="1"
     inkscape:current-layer="g6"><sodipodi:guide
       position="36.357895,115.34783"
       orientation="0,-1"
       id="guide2"
       inkscape:locked="false" /><sodipodi:guide
       position="20.220393,96.39146"
       orientation="1,0"
       id="guide5"
       inkscape:locked="false" /></sodipodi:namedview><defs
     id="defs1" /><g
     inkscape:label="Layer 1"
     inkscape:groupmode="layer"
     id="layer1"
     transform="translate(7.7725621,-2.8675143)"><g
       id="g6"
       transform="translate(-1.505337,-0.17995777)"><rect
         style="font-variation-settings:normal;opacity:1;vector-effect:none;fill:#ffffff;fill-opacity:1;stroke:none;stroke-width:0.759835;stroke-linecap:round;stroke-linejoin:round;stroke-miterlimit:4;stroke-dasharray:0.522638, 3.13583;stroke-dashoffset:0;stroke-opacity:1;-inkscape-stroke:none"
         id="rect10"
         width="192.3035"
         height="169.98804"
         x="-5.8873043"
         y="3.427393" /><g
         id="g11"
         transform="translate(-1.4401028,2.2312415)"><g
           id="g4"
           transform="translate(1.5053371,0.17995786)"><path
             style="fill:#000000;stroke-width:0.254581"
             d="m 14.142403,44.359346 c -0.882869,-1.143037 -1.494321,-2.611173 -1.694572,-4.068778 -0.0483,-0.35158 -0.08271,-3.048641 -0.07647,-5.993458 0.01202,-5.662678 0.02875,-5.91941 0.46805,-7.174046 1.036795,-2.961137 3.537945,-5.093481 6.661921,-5.679591 0.870399,-0.163308 2.070312,-0.142792 3.294286,0.05627 2.128074,0.346184 3.470497,0.461701 5.512347,0.474357 2.21538,0.0137 3.746134,-0.10658 6.064194,-0.476628 2.193466,-0.350164 3.913576,-0.130021 5.633723,0.721004 0.947847,0.468946 1.415395,0.810256 2.245779,1.639396 1.031656,1.030121 1.571948,1.86943 2.063668,3.205759 0.450672,1.224776 0.471827,1.541045 0.483821,7.233376 0.0069,3.283264 -0.02674,5.627467 -0.08703,6.059877 -0.444926,3.191641 -2.730524,5.903667 -5.840568,6.930232 -1.436399,0.474126 -2.725696,0.549837 -4.500542,0.264292 -2.306006,-0.370995 -3.864675,-0.494119 -6.061982,-0.478846 -2.057051,0.01432 -3.416579,0.132069 -5.511413,0.477421 -1.745248,0.287725 -3.107495,0.205886 -4.540942,-0.27279 -1.600492,-0.534448 -3.088376,-1.589681 -4.114276,-2.917888 z m 3.127718,1.193691 c 1.152885,0.653846 2.656862,1.033532 3.924397,0.99073 0.320034,-0.01078 0.965521,-0.08505 1.434413,-0.164985 3.861571,-0.658311 7.977669,-0.667095 11.755234,-0.0251 1.747736,0.297031 2.88415,0.236409 4.220246,-0.225116 1.042781,-0.360209 1.720885,-0.766777 2.546216,-1.526626 1.298311,-1.195315 2.012227,-2.453555 2.350185,-4.142095 0.140944,-0.704184 0.148477,-11.013537 0.0086,-11.786041 -0.205136,-1.133038 -0.662593,-2.219379 -1.312935,-3.117855 -0.484278,-0.669065 -1.580965,-1.652659 -2.297319,-2.06042 -1.149609,-0.654385 -2.657867,-1.035133 -3.924424,-0.9907 -0.320468,0.01124 -1.040978,0.0962 -1.601129,0.188781 -3.841625,0.635001 -7.735554,0.635001 -11.577178,0 -0.560152,-0.09258 -1.280659,-0.177542 -1.60113,-0.188781 -1.266553,-0.04442 -2.774811,0.336315 -3.924422,0.9907 -0.716355,0.407761 -1.81304,1.391355 -2.29732,2.06042 -0.65012,0.898176 -1.107467,1.984047 -1.313105,3.117678 -0.136855,0.754452 -0.131857,11.079163 0.0057,11.767219 0.126853,0.634532 0.426685,1.519382 0.695164,2.051529 0.392324,0.777616 0.715598,1.192151 1.551232,1.989128 0.653967,0.623716 0.873484,0.796985 1.357567,1.071522 z m -0.616739,-6.415776 c 0.0094,-0.301673 0.289496,-0.569205 0.5959,-0.569205 0.507466,0 0.751858,0.623623 0.389261,0.993286 -0.342693,0.349378 -1.000467,0.0662 -0.985161,-0.424081 z m 4.211387,0.864004 c 0,-0.513702 0.617125,-0.768455 0.98073,-0.40485 0.368284,0.368285 0.118199,0.963409 -0.404847,0.963409 -0.332743,0 -0.575883,-0.235823 -0.575883,-0.558559 z m -2.524344,-7.573039 c 0,-0.513702 0.617122,-0.768455 0.980727,-0.404851 0.232266,0.232268 0.232266,0.577427 0,0.809695 -0.363605,0.363604 -0.980727,0.108858 -0.980727,-0.404844 z m 17.690336,11.163658 c -0.210931,-0.508475 0.377039,-1.017913 0.848812,-0.735446 0.181134,0.108458 0.331278,0.448137 0.277131,0.62698 -0.154635,0.510722 -0.928165,0.58524 -1.125943,0.108466 z m -1.306909,-4.739699 c -0.01762,-0.0672 0.0057,-0.213222 0.05177,-0.324521 0.241246,-0.582423 1.061757,-0.449662 1.109051,0.17945 0.03864,0.514057 -0.611954,0.793967 -0.978074,0.420817 -0.08288,-0.08448 -0.165117,-0.208565 -0.182747,-0.275746 z m 4.886024,1.16868 c -1.088705,-3.492344 -1.088036,-7.503718 0.0018,-10.999804 0.118365,-0.379693 0.270126,-0.745268 0.337246,-0.812388 0.168232,-0.168227 0.640805,-0.160159 0.814885,0.01393 0.213031,0.213037 0.215017,0.455327 0.0088,1.078496 -0.501866,1.516857 -0.751788,3.114037 -0.775122,4.953591 -0.0255,2.010636 0.211457,3.732586 0.740123,5.378294 0.123683,0.385021 0.210754,0.780195 0.193496,0.878161 -0.07843,0.445205 -0.654713,0.655517 -0.959907,0.350318 -0.08107,-0.08107 -0.239502,-0.449577 -0.361395,-0.840587 z m -9.440093,-15.11805 c 0,-0.477867 0.161071,-0.547004 1.565878,-0.67216 0.691254,-0.06158 1.753874,-0.191859 2.361372,-0.289502 0.607501,-0.09764 1.32962,-0.198911 1.604708,-0.225046 1.025788,-0.09745 2.546898,0.200735 2.765298,0.542069 0.216193,0.337893 0.02049,0.824136 -0.358557,0.890917 -0.09156,0.01617 -0.390931,-0.02948 -0.665277,-0.101346 -0.749935,-0.196463 -1.471698,-0.202283 -2.574127,-0.02078 -1.10551,0.182037 -3.247604,0.427745 -3.923704,0.450061 -0.534574,0.01763 -0.775591,-0.160805 -0.775591,-0.574247 z m 9.213156,0.966497 c -0.102876,-0.379547 0.138098,-0.711297 0.538536,-0.741397 0.524806,-0.03941 0.789228,0.604363 0.405727,0.987867 -0.119983,0.119983 -0.227062,0.154016 -0.429661,0.136572 -0.289936,-0.02494 -0.449795,-0.143954 -0.514602,-0.383042 z"
             id="path1" /><path
             style="fill:#000000;stroke-width:0.254581"
             d="m 137.37019,44.359346 c -0.88287,-1.143037 -1.49433,-2.611173 -1.69458,-4.068778 -0.0483,-0.35158 -0.0827,-3.048641 -0.0765,-5.993458 0.012,-5.662678 0.0287,-5.91941 0.46805,-7.174046 1.0368,-2.961137 3.53795,-5.093481 6.66192,-5.679591 0.8704,-0.163308 2.07032,-0.142792 3.29429,0.05627 2.12807,0.346184 3.4705,0.461701 5.51235,0.474357 2.21538,0.0137 3.74613,-0.10658 6.06419,-0.476628 2.19347,-0.350164 3.91358,-0.130021 5.63372,0.721004 0.94785,0.468946 1.4154,0.810256 2.24578,1.639396 1.03166,1.030121 1.57195,1.86943 2.06367,3.205759 0.45067,1.224776 0.47183,1.541045 0.48382,7.233376 0.007,3.283264 -0.0267,5.627467 -0.087,6.059877 -0.44492,3.191641 -2.73052,5.903667 -5.84057,6.930232 -1.43639,0.474126 -2.72569,0.549837 -4.50054,0.264292 -2.306,-0.370995 -3.86467,-0.494119 -6.06198,-0.478846 -2.05705,0.01432 -3.41658,0.132069 -5.51141,0.477421 -1.74525,0.287725 -3.1075,0.205886 -4.54094,-0.27279 -1.6005,-0.534448 -3.08838,-1.589681 -4.11428,-2.917888 z m 3.12771,1.193691 c 1.15289,0.653846 2.65687,1.033532 3.9244,0.99073 0.32003,-0.01078 0.96552,-0.08505 1.43441,-0.164985 3.86157,-0.658311 7.97767,-0.667095 11.75524,-0.0251 1.74773,0.297031 2.88415,0.236409 4.22024,-0.225116 1.04278,-0.360209 1.72089,-0.766777 2.54622,-1.526626 1.29831,-1.195315 2.01223,-2.453555 2.35018,-4.142095 0.14095,-0.704184 0.14848,-11.013537 0.009,-11.786041 -0.20513,-1.133038 -0.66259,-2.219379 -1.31293,-3.117855 -0.48428,-0.669065 -1.58097,-1.652659 -2.29732,-2.06042 -1.14961,-0.654385 -2.65787,-1.035133 -3.92442,-0.9907 -0.32047,0.01124 -1.04098,0.0962 -1.60113,0.188781 -3.84163,0.635001 -7.73556,0.635001 -11.57718,0 -0.56015,-0.09258 -1.28066,-0.177542 -1.60113,-0.188781 -1.26655,-0.04442 -2.77481,0.336315 -3.92442,0.9907 -0.71636,0.407761 -1.81304,1.391355 -2.29732,2.06042 -0.65012,0.898176 -1.10747,1.984047 -1.31311,3.117678 -0.13685,0.754452 -0.13185,11.079163 0.006,11.767219 0.12686,0.634532 0.42669,1.519382 0.69517,2.051529 0.39232,0.777616 0.71559,1.192151 1.55123,1.989128 0.65397,0.623716 0.87348,0.796985 1.35757,1.071522 z m -0.61674,-6.415776 c 0.009,-0.301673 0.2895,-0.569205 0.5959,-0.569205 0.50747,0 0.75186,0.623623 0.38927,0.993286 -0.3427,0.349378 -1.00047,0.0662 -0.98517,-0.424081 z m 4.21139,0.864004 c 0,-0.513702 0.61713,-0.768455 0.98073,-0.40485 0.36829,0.368285 0.1182,0.963409 -0.40485,0.963409 -0.33274,0 -0.57588,-0.235823 -0.57588,-0.558559 z m -2.52434,-7.573039 c 0,-0.513702 0.61712,-0.768455 0.98072,-0.404851 0.23227,0.232268 0.23227,0.577427 0,0.809695 -0.3636,0.363604 -0.98072,0.108858 -0.98072,-0.404844 z m 17.69033,11.163658 c -0.21093,-0.508475 0.37704,-1.017913 0.84882,-0.735446 0.18113,0.108458 0.33127,0.448137 0.27713,0.62698 -0.15464,0.510722 -0.92817,0.58524 -1.12595,0.108466 z m -1.30691,-4.739699 c -0.0176,-0.0672 0.006,-0.213222 0.0518,-0.324521 0.24125,-0.582423 1.06176,-0.449662 1.10906,0.17945 0.0386,0.514057 -0.61196,0.793967 -0.97808,0.420817 -0.0829,-0.08448 -0.16512,-0.208565 -0.18275,-0.275746 z m 4.88603,1.16868 c -1.08871,-3.492344 -1.08804,-7.503718 0.002,-10.999804 0.11836,-0.379693 0.27012,-0.745268 0.33724,-0.812388 0.16824,-0.168227 0.64081,-0.160159 0.81489,0.01393 0.21303,0.213037 0.21502,0.455327 0.009,1.078496 -0.50187,1.516857 -0.75179,3.114037 -0.77512,4.953591 -0.0255,2.010636 0.21145,3.732586 0.74012,5.378294 0.12368,0.385021 0.21075,0.780195 0.1935,0.878161 -0.0784,0.445205 -0.65472,0.655517 -0.95991,0.350318 -0.0811,-0.08107 -0.2395,-0.449577 -0.3614,-0.840587 z m -9.44009,-15.11805 c 0,-0.477867 0.16107,-0.547004 1.56587,-0.67216 0.69126,-0.06158 1.75388,-0.191859 2.36138,-0.289502 0.6075,-0.09764 1.32962,-0.198911 1.6047,-0.225046 1.02579,-0.09745 2.5469,0.200735 2.7653,0.542069 0.21619,0.337893 0.0205,0.824136 -0.35856,0.890917 -0.0916,0.01617 -0.39093,-0.02948 -0.66527,-0.101346 -0.74994,-0.196463 -1.4717,-0.202283 -2.57413,-0.02078 -1.10551,0.182037 -3.2476,0.427745 -3.9237,0.450061 -0.53458,0.01763 -0.77559,-0.160805 -0.77559,-0.574247 z m 9.21315,0.966497 c -0.10287,-0.379547 0.1381,-0.711297 0.53854,-0.741397 0.5248,-0.03941 0.78923,0.604363 0.40572,0.987867 -0.11998,0.119983 -0.22706,0.154016 -0.42966,0.136572 -0.28993,-0.02494 -0.44979,-0.143954 -0.5146,-0.383042 z"
             id="path1-5" /><rect
             style="fill:#ffd400;fill-opacity:1;stroke:#ffa800;stroke-width:0.32878;stroke-linecap:round;stroke-linejoin:round;stroke-dasharray:none;stroke-opacity:1"
             id="rect2"
             width="96.075966"
             height="1.7008357"
             x="39.717941"
             y="33.675911" /></g><g
           id="g5"
           transform="translate(1.5053371,0.17995786)"><path
             style="fill:#000000;stroke-width:0.254581"
             d="m 14.142398,84.274436 c -0.88287,-1.143037 -1.49432,-2.611173 -1.69457,-4.068778 -0.0483,-0.35158 -0.0827,-3.048641 -0.0765,-5.993458 0.012,-5.662678 0.0288,-5.91941 0.46805,-7.174046 1.0368,-2.961137 3.53795,-5.093481 6.66192,-5.679591 0.8704,-0.163308 2.07031,-0.142792 3.29429,0.05627 2.12807,0.346184 3.47049,0.461701 5.51234,0.474357 2.21538,0.0137 3.74614,-0.10658 6.0642,-0.476628 2.19346,-0.350164 3.91358,-0.130021 5.63372,0.721004 0.94785,0.468946 1.4154,0.810256 2.24578,1.639396 1.03166,1.030121 1.57195,1.86943 2.06367,3.205759 0.45067,1.224776 0.47183,1.541045 0.48382,7.233376 0.007,3.283264 -0.0267,5.627467 -0.087,6.059877 -0.44493,3.191641 -2.73052,5.903667 -5.84057,6.930232 -1.4364,0.474126 -2.72569,0.549837 -4.50054,0.264292 -2.30601,-0.370995 -3.86468,-0.494119 -6.06198,-0.478846 -2.05705,0.01432 -3.41658,0.132069 -5.51142,0.477421 -1.74524,0.287725 -3.10749,0.205886 -4.54094,-0.27279 -1.60049,-0.534448 -3.08837,-1.589681 -4.11427,-2.917888 z m 3.12772,1.193691 c 1.15289,0.653846 2.65686,1.033532 3.9244,0.99073 0.32003,-0.01078 0.96552,-0.08505 1.43441,-0.164985 3.86157,-0.658311 7.97767,-0.667095 11.75523,-0.0251 1.74774,0.297031 2.88415,0.236409 4.22025,-0.225116 1.04278,-0.360209 1.72089,-0.766777 2.54622,-1.526626 1.29831,-1.195315 2.01222,-2.453555 2.35018,-4.142095 0.14095,-0.704184 0.14848,-11.013537 0.009,-11.786041 -0.20513,-1.133038 -0.66259,-2.219379 -1.31293,-3.117855 -0.48428,-0.669065 -1.58097,-1.652659 -2.29732,-2.06042 -1.14961,-0.654385 -2.65787,-1.035133 -3.92443,-0.9907 -0.32046,0.01124 -1.04097,0.0962 -1.60113,0.188781 -3.84162,0.635001 -7.73555,0.635001 -11.57717,0 -0.56015,-0.09258 -1.28066,-0.177542 -1.60113,-0.188781 -1.26656,-0.04442 -2.77481,0.336315 -3.92443,0.9907 -0.71635,0.407761 -1.81304,1.391355 -2.29731,2.06042 -0.65012,0.898176 -1.10747,1.984047 -1.31311,3.117678 -0.13685,0.754452 -0.13186,11.079163 0.006,11.767219 0.12685,0.634532 0.42668,1.519382 0.69516,2.051529 0.39233,0.777616 0.7156,1.192151 1.55124,1.989128 0.65396,0.623716 0.87348,0.796985 1.35756,1.071522 z m -0.61674,-6.415776 c 0.009,-0.301673 0.2895,-0.569205 0.5959,-0.569205 0.50747,0 0.75186,0.623623 0.38926,0.993286 -0.34269,0.349378 -1.00046,0.0662 -0.98516,-0.424081 z m 4.21139,0.864004 c 0,-0.513702 0.61712,-0.768455 0.98073,-0.40485 0.36828,0.368285 0.1182,0.963409 -0.40485,0.963409 -0.33274,0 -0.57588,-0.235823 -0.57588,-0.558559 z m -2.52434,-7.573039 c 0,-0.513702 0.61712,-0.768455 0.98072,-0.404851 0.23227,0.232268 0.23227,0.577427 0,0.809695 -0.3636,0.363604 -0.98072,0.108858 -0.98072,-0.404844 z m 17.69033,11.163658 c -0.21093,-0.508475 0.37704,-1.017913 0.84881,-0.735446 0.18114,0.108458 0.33128,0.448137 0.27713,0.62698 -0.15463,0.510722 -0.92816,0.58524 -1.12594,0.108466 z m -1.30691,-4.739699 c -0.0176,-0.0672 0.006,-0.213222 0.0518,-0.324521 0.24125,-0.582423 1.06176,-0.449662 1.10905,0.17945 0.0386,0.514057 -0.61195,0.793967 -0.97807,0.420817 -0.0829,-0.08448 -0.16512,-0.208565 -0.18275,-0.275746 z m 4.88603,1.16868 c -1.08871,-3.492344 -1.08804,-7.503718 0.002,-10.999804 0.11836,-0.379693 0.27012,-0.745268 0.33724,-0.812388 0.16823,-0.168227 0.64081,-0.160159 0.81489,0.01393 0.21303,0.213037 0.21501,0.455327 0.009,1.078496 -0.50187,1.516857 -0.75179,3.114037 -0.77513,4.953591 -0.0255,2.010636 0.21146,3.732586 0.74013,5.378294 0.12368,0.385021 0.21075,0.780195 0.19349,0.878161 -0.0784,0.445205 -0.65471,0.655517 -0.9599,0.350318 -0.0811,-0.08107 -0.23951,-0.449577 -0.3614,-0.840587 z m -9.4401,-15.11805 c 0,-0.477867 0.16107,-0.547004 1.56588,-0.67216 0.69125,-0.06158 1.75388,-0.191859 2.36137,-0.289502 0.6075,-0.09764 1.32962,-0.198911 1.60471,-0.225046 1.02579,-0.09745 2.5469,0.200735 2.7653,0.542069 0.21619,0.337893 0.0205,0.824136 -0.35856,0.890917 -0.0916,0.01617 -0.39093,-0.02948 -0.66528,-0.101346 -0.74993,-0.196463 -1.47169,-0.202283 -2.57412,-0.02078 -1.10551,0.182037 -3.24761,0.427745 -3.92371,0.450061 -0.53457,0.01763 -0.77559,-0.160805 -0.77559,-0.574247 z m 9.21316,0.966497 c -0.10288,-0.379547 0.1381,-0.711297 0.53854,-0.741397 0.5248,-0.03941 0.78922,0.604363 0.40572,0.987867 -0.11998,0.119983 -0.22706,0.154016 -0.42966,0.136572 -0.28994,-0.02494 -0.44979,-0.143954 -0.5146,-0.383042 z"
             id="path1-1" /><path
             style="fill:#000000;stroke-width:0.254581"
             d="m 137.37019,84.274436 c -0.88287,-1.143037 -1.49433,-2.611173 -1.69458,-4.068778 -0.0483,-0.35158 -0.0827,-3.048641 -0.0765,-5.993458 0.012,-5.662678 0.0287,-5.91941 0.46805,-7.174046 1.0368,-2.961137 3.53795,-5.093481 6.66192,-5.679591 0.8704,-0.163308 2.07032,-0.142792 3.29429,0.05627 2.12807,0.346184 3.4705,0.461701 5.51235,0.474357 2.21538,0.0137 3.74613,-0.10658 6.06419,-0.476628 2.19347,-0.350164 3.91358,-0.130021 5.63372,0.721004 0.94785,0.468946 1.4154,0.810256 2.24578,1.639396 1.03166,1.030121 1.57195,1.86943 2.06367,3.205759 0.45067,1.224776 0.47183,1.541045 0.48382,7.233376 0.007,3.283264 -0.0267,5.627467 -0.087,6.059877 -0.44492,3.191641 -2.73052,5.903667 -5.84057,6.930232 -1.43639,0.474126 -2.72569,0.549837 -4.50054,0.264292 -2.306,-0.370995 -3.86467,-0.494119 -6.06198,-0.478846 -2.05705,0.01432 -3.41658,0.132069 -5.51141,0.477421 -1.74525,0.287725 -3.1075,0.205886 -4.54094,-0.27279 -1.6005,-0.534448 -3.08838,-1.589681 -4.11428,-2.917888 z m 3.12771,1.193691 c 1.15289,0.653846 2.65687,1.033532 3.9244,0.99073 0.32003,-0.01078 0.96552,-0.08505 1.43441,-0.164985 3.86157,-0.658311 7.97767,-0.667095 11.75524,-0.0251 1.74773,0.297031 2.88415,0.236409 4.22024,-0.225116 1.04278,-0.360209 1.72089,-0.766777 2.54622,-1.526626 1.29831,-1.195315 2.01223,-2.453555 2.35018,-4.142095 0.14095,-0.704184 0.14848,-11.013537 0.009,-11.786041 -0.20513,-1.133038 -0.66259,-2.219379 -1.31293,-3.117855 -0.48428,-0.669065 -1.58097,-1.652659 -2.29732,-2.06042 -1.14961,-0.654385 -2.65787,-1.035133 -3.92442,-0.9907 -0.32047,0.01124 -1.04098,0.0962 -1.60113,0.188781 -3.84163,0.635001 -7.73556,0.635001 -11.57718,0 -0.56015,-0.09258 -1.28066,-0.177542 -1.60113,-0.188781 -1.26655,-0.04442 -2.77481,0.336315 -3.92442,0.9907 -0.71636,0.407761 -1.81304,1.391355 -2.29732,2.06042 -0.65012,0.898176 -1.10747,1.984047 -1.31311,3.117678 -0.13685,0.754452 -0.13185,11.079163 0.006,11.767219 0.12686,0.634532 0.42669,1.519382 0.69517,2.051529 0.39232,0.777616 0.71559,1.192151 1.55123,1.989128 0.65397,0.623716 0.87348,0.796985 1.35757,1.071522 z m -0.61674,-6.415776 c 0.009,-0.301673 0.2895,-0.569205 0.5959,-0.569205 0.50747,0 0.75186,0.623623 0.38927,0.993286 -0.3427,0.349378 -1.00047,0.0662 -0.98517,-0.424081 z m 4.21139,0.864004 c 0,-0.513702 0.61713,-0.768455 0.98073,-0.40485 0.36829,0.368285 0.1182,0.963409 -0.40485,0.963409 -0.33274,0 -0.57588,-0.235823 -0.57588,-0.558559 z m -2.52434,-7.573039 c 0,-0.513702 0.61712,-0.768455 0.98072,-0.404851 0.23227,0.232268 0.23227,0.577427 0,0.809695 -0.3636,0.363604 -0.98072,0.108858 -0.98072,-0.404844 z m 17.69033,11.163658 c -0.21093,-0.508475 0.37704,-1.017913 0.84882,-0.735446 0.18113,0.108458 0.33127,0.448137 0.27713,0.62698 -0.15464,0.510722 -0.92817,0.58524 -1.12595,0.108466 z m -1.30691,-4.739699 c -0.0176,-0.0672 0.006,-0.213222 0.0518,-0.324521 0.24125,-0.582423 1.06176,-0.449662 1.10906,0.17945 0.0386,0.514057 -0.61196,0.793967 -0.97808,0.420817 -0.0829,-0.08448 -0.16512,-0.208565 -0.18275,-0.275746 z m 4.88603,1.16868 c -1.08871,-3.492344 -1.08804,-7.503718 0.002,-10.999804 0.11836,-0.379693 0.27012,-0.745268 0.33724,-0.812388 0.16824,-0.168227 0.64081,-0.160159 0.81489,0.01393 0.21303,0.213037 0.21502,0.455327 0.009,1.078496 -0.50187,1.516857 -0.75179,3.114037 -0.77512,4.953591 -0.0255,2.010636 0.21145,3.732586 0.74012,5.378294 0.12368,0.385021 0.21075,0.780195 0.1935,0.878161 -0.0784,0.445205 -0.65472,0.655517 -0.95991,0.350318 -0.0811,-0.08107 -0.2395,-0.449577 -0.3614,-0.840587 z m -9.44009,-15.11805 c 0,-0.477867 0.16107,-0.547004 1.56587,-0.67216 0.69126,-0.06158 1.75388,-0.191859 2.36138,-0.289502 0.6075,-0.09764 1.32962,-0.198911 1.6047,-0.225046 1.02579,-0.09745 2.5469,0.200735 2.7653,0.542069 0.21619,0.337893 0.0205,0.824136 -0.35856,0.890917 -0.0916,0.01617 -0.39093,-0.02948 -0.66527,-0.101346 -0.74994,-0.196463 -1.4717,-0.202283 -2.57413,-0.02078 -1.10551,0.182037 -3.2476,0.427745 -3.9237,0.450061 -0.53458,0.01763 -0.77559,-0.160805 -0.77559,-0.574247 z m 9.21315,0.966497 c -0.10287,-0.379547 0.1381,-0.711297 0.53854,-0.741397 0.5248,-0.03941 0.78923,0.604363 0.40572,0.987867 -0.11998,0.119983 -0.22706,0.154016 -0.42966,0.136572 -0.28993,-0.02494 -0.44979,-0.143954 -0.5146,-0.383042 z"
             id="path1-5-5" /><rect
             style="fill:#ffd400;fill-opacity:1;stroke:#ffa800;stroke-width:0.32878;stroke-linecap:round;stroke-linejoin:round;stroke-dasharray:none;stroke-opacity:1"
             id="rect2-2"
             width="96.075966"
             height="1.7008357"
             x="39.717941"
             y="73.591003" /><rect
             style="fill:#ffd400;fill-opacity:1;stroke:#ffa800;stroke-width:0.32878;stroke-linecap:round;stroke-linejoin:round;stroke-dasharray:none;stroke-opacity:1"
             id="rect3"
             width="96.075966"
             height="1.7008357"
             x="39.717941"
             y="72.00351" /><rect
             style="fill:#ffd400;fill-opacity:1;stroke:#ffa800;stroke-width:0.32878;stroke-linecap:round;stroke-linejoin:round;stroke-dasharray:none;stroke-opacity:1"
             id="rect4"
             width="96.075966"
             height="1.7008357"
             x="39.717941"
             y="75.178505" /></g><path
           style="fill:#000000;stroke-width:0.254581"
           d="m 15.647735,127.36454 c -0.88287,-1.14304 -1.49432,-2.61117 -1.69457,-4.06878 -0.0483,-0.35158 -0.0827,-3.04864 -0.0765,-5.99345 0.012,-5.66268 0.0288,-5.91942 0.46805,-7.17405 1.0368,-2.96114 3.53795,-5.09348 6.66192,-5.67959 0.8704,-0.16331 2.07031,-0.1428 3.29429,0.0563 2.12807,0.34618 3.47049,0.4617 5.51234,0.47435 2.21538,0.0137 3.74614,-0.10658 6.0642,-0.47662 2.19346,-0.35017 3.91358,-0.13003 5.63372,0.721 0.94785,0.46895 1.4154,0.81026 2.24578,1.6394 1.03166,1.03012 1.57195,1.86943 2.06367,3.20575 0.45067,1.22478 0.47183,1.54105 0.48382,7.23338 0.007,3.28327 -0.0267,5.62747 -0.087,6.05988 -0.44493,3.19164 -2.73052,5.90367 -5.84057,6.93023 -1.4364,0.47413 -2.72569,0.54984 -4.50054,0.26429 -2.30601,-0.37099 -3.86468,-0.49412 -6.06198,-0.47884 -2.05705,0.0143 -3.41658,0.13207 -5.51142,0.47742 -1.74524,0.28772 -3.10749,0.20588 -4.54094,-0.27279 -1.60049,-0.53445 -3.08837,-1.58968 -4.11427,-2.91789 z m 3.12772,1.19369 c 1.15289,0.65385 2.65686,1.03353 3.9244,0.99073 0.32003,-0.0108 0.96552,-0.085 1.43441,-0.16498 3.86157,-0.65831 7.97767,-0.6671 11.75523,-0.0251 1.74774,0.29703 2.88415,0.23641 4.22025,-0.22512 1.04278,-0.36021 1.72089,-0.76678 2.54622,-1.52662 1.29831,-1.19532 2.01222,-2.45356 2.35018,-4.1421 0.14095,-0.70418 0.14848,-11.01354 0.009,-11.78604 -0.20513,-1.13304 -0.66259,-2.21938 -1.31293,-3.11786 -0.48428,-0.66906 -1.58097,-1.65266 -2.29732,-2.06042 -1.14961,-0.65438 -2.65787,-1.03513 -3.92443,-0.9907 -0.32046,0.0112 -1.04097,0.0962 -1.60113,0.18878 -3.84162,0.635 -7.73555,0.635 -11.57717,0 -0.56015,-0.0926 -1.28066,-0.17754 -1.60113,-0.18878 -1.26656,-0.0444 -2.77481,0.33632 -3.92443,0.9907 -0.71635,0.40776 -1.81304,1.39136 -2.29731,2.06042 -0.65012,0.89818 -1.10747,1.98405 -1.31311,3.11768 -0.13685,0.75445 -0.13186,11.07917 0.006,11.76722 0.12685,0.63453 0.42668,1.51938 0.69516,2.05153 0.39233,0.77762 0.7156,1.19215 1.55124,1.98913 0.65396,0.62371 0.87348,0.79698 1.35756,1.07152 z m -0.61674,-6.41577 c 0.009,-0.30168 0.2895,-0.56921 0.5959,-0.56921 0.50747,0 0.75186,0.62362 0.38926,0.99329 -0.34269,0.34937 -1.00046,0.0662 -0.98516,-0.42408 z m 4.21139,0.864 c 0,-0.5137 0.61712,-0.76845 0.98073,-0.40485 0.36828,0.36828 0.1182,0.96341 -0.40485,0.96341 -0.33274,0 -0.57588,-0.23582 -0.57588,-0.55856 z m -2.52434,-7.57304 c 0,-0.5137 0.61712,-0.76845 0.98072,-0.40485 0.23227,0.23227 0.23227,0.57743 0,0.8097 -0.3636,0.3636 -0.98072,0.10885 -0.98072,-0.40485 z m 17.69033,11.16366 c -0.21093,-0.50848 0.37704,-1.01791 0.84881,-0.73545 0.18114,0.10846 0.33128,0.44814 0.27713,0.62698 -0.15463,0.51073 -0.92816,0.58524 -1.12594,0.10847 z m -1.30691,-4.7397 c -0.0176,-0.0672 0.006,-0.21322 0.0518,-0.32452 0.24125,-0.58242 1.06176,-0.44966 1.10905,0.17945 0.0386,0.51406 -0.61195,0.79397 -0.97807,0.42082 -0.0829,-0.0845 -0.16512,-0.20857 -0.18275,-0.27575 z m 4.88603,1.16868 c -1.08871,-3.49234 -1.08804,-7.50372 0.002,-10.99981 0.11836,-0.37969 0.27012,-0.74526 0.33724,-0.81238 0.16823,-0.16823 0.64081,-0.16016 0.81489,0.0139 0.21303,0.21303 0.21501,0.45532 0.009,1.07849 -0.50187,1.51686 -0.75179,3.11404 -0.77513,4.9536 -0.0255,2.01063 0.21146,3.73258 0.74013,5.37829 0.12368,0.38502 0.21075,0.78019 0.19349,0.87816 -0.0784,0.44521 -0.65471,0.65552 -0.9599,0.35032 -0.0811,-0.0811 -0.23951,-0.44958 -0.3614,-0.84059 z m -9.4401,-15.11805 c 0,-0.47787 0.16107,-0.54701 1.56588,-0.67216 0.69125,-0.0616 1.75388,-0.19186 2.36137,-0.2895 0.6075,-0.0976 1.32962,-0.19891 1.60471,-0.22505 1.02579,-0.0974 2.5469,0.20074 2.7653,0.54207 0.21619,0.33789 0.0205,0.82414 -0.35856,0.89092 -0.0916,0.0162 -0.39093,-0.0295 -0.66528,-0.10135 -0.74993,-0.19646 -1.47169,-0.20228 -2.57412,-0.0208 -1.10551,0.18204 -3.24761,0.42775 -3.92371,0.45006 -0.53457,0.0176 -0.77559,-0.1608 -0.77559,-0.57425 z m 9.21316,0.9665 c -0.10288,-0.37955 0.1381,-0.7113 0.53854,-0.7414 0.5248,-0.0394 0.78922,0.60436 0.40572,0.98787 -0.11998,0.11998 -0.22706,0.15401 -0.42966,0.13657 -0.28994,-0.0249 -0.44979,-0.14396 -0.5146,-0.38304 z"
           id="path1-1-2" /><path
           style="fill:#000000;stroke-width:0.254581"
           d="m 138.87553,127.36454 c -0.88287,-1.14304 -1.49433,-2.61117 -1.69458,-4.06878 -0.0483,-0.35158 -0.0827,-3.04864 -0.0765,-5.99345 0.012,-5.66268 0.0287,-5.91942 0.46805,-7.17405 1.0368,-2.96114 3.53795,-5.09348 6.66192,-5.67959 0.8704,-0.16331 2.07032,-0.1428 3.29429,0.0563 2.12807,0.34618 3.4705,0.4617 5.51235,0.47435 2.21538,0.0137 3.74613,-0.10658 6.06419,-0.47662 2.19347,-0.35017 3.91358,-0.13003 5.63372,0.721 0.94785,0.46895 1.4154,0.81026 2.24578,1.6394 1.03166,1.03012 1.57195,1.86943 2.06367,3.20575 0.45067,1.22478 0.47183,1.54105 0.48382,7.23338 0.007,3.28327 -0.0267,5.62747 -0.087,6.05988 -0.44492,3.19164 -2.73052,5.90367 -5.84057,6.93023 -1.43639,0.47413 -2.72569,0.54984 -4.50054,0.26429 -2.306,-0.37099 -3.86467,-0.49412 -6.06198,-0.47884 -2.05705,0.0143 -3.41658,0.13207 -5.51141,0.47742 -1.74525,0.28772 -3.1075,0.20588 -4.54094,-0.27279 -1.6005,-0.53445 -3.08838,-1.58968 -4.11428,-2.91789 z m 3.12771,1.19369 c 1.15289,0.65385 2.65687,1.03353 3.9244,0.99073 0.32003,-0.0108 0.96552,-0.085 1.43441,-0.16498 3.86157,-0.65831 7.97767,-0.6671 11.75524,-0.0251 1.74773,0.29703 2.88415,0.23641 4.22024,-0.22512 1.04278,-0.36021 1.72089,-0.76678 2.54622,-1.52662 1.29831,-1.19532 2.01223,-2.45356 2.35018,-4.1421 0.14095,-0.70418 0.14848,-11.01354 0.009,-11.78604 -0.20513,-1.13304 -0.66259,-2.21938 -1.31293,-3.11786 -0.48428,-0.66906 -1.58097,-1.65266 -2.29732,-2.06042 -1.14961,-0.65438 -2.65787,-1.03513 -3.92442,-0.9907 -0.32047,0.0112 -1.04098,0.0962 -1.60113,0.18878 -3.84163,0.635 -7.73556,0.635 -11.57718,0 -0.56015,-0.0926 -1.28066,-0.17754 -1.60113,-0.18878 -1.26655,-0.0444 -2.77481,0.33632 -3.92442,0.9907 -0.71636,0.40776 -1.81304,1.39136 -2.29732,2.06042 -0.65012,0.89818 -1.10747,1.98405 -1.31311,3.11768 -0.13685,0.75445 -0.13185,11.07917 0.006,11.76722 0.12686,0.63453 0.42669,1.51938 0.69517,2.05153 0.39232,0.77762 0.71559,1.19215 1.55123,1.98913 0.65397,0.62371 0.87348,0.79698 1.35757,1.07152 z m -0.61674,-6.41577 c 0.009,-0.30168 0.2895,-0.56921 0.5959,-0.56921 0.50747,0 0.75186,0.62362 0.38927,0.99329 -0.3427,0.34937 -1.00047,0.0662 -0.98517,-0.42408 z m 4.21139,0.864 c 0,-0.5137 0.61713,-0.76845 0.98073,-0.40485 0.36829,0.36828 0.1182,0.96341 -0.40485,0.96341 -0.33274,0 -0.57588,-0.23582 -0.57588,-0.55856 z m -2.52434,-7.57304 c 0,-0.5137 0.61712,-0.76845 0.98072,-0.40485 0.23227,0.23227 0.23227,0.57743 0,0.8097 -0.3636,0.3636 -0.98072,0.10885 -0.98072,-0.40485 z m 17.69033,11.16366 c -0.21093,-0.50848 0.37704,-1.01791 0.84882,-0.73545 0.18113,0.10846 0.33127,0.44814 0.27713,0.62698 -0.15464,0.51073 -0.92817,0.58524 -1.12595,0.10847 z m -1.30691,-4.7397 c -0.0176,-0.0672 0.006,-0.21322 0.0518,-0.32452 0.24125,-0.58242 1.06176,-0.44966 1.10906,0.17945 0.0386,0.51406 -0.61196,0.79397 -0.97808,0.42082 -0.0829,-0.0845 -0.16512,-0.20857 -0.18275,-0.27575 z m 4.88603,1.16868 c -1.08871,-3.49234 -1.08804,-7.50372 0.002,-10.99981 0.11836,-0.37969 0.27012,-0.74526 0.33724,-0.81238 0.16824,-0.16823 0.64081,-0.16016 0.81489,0.0139 0.21303,0.21303 0.21502,0.45532 0.009,1.07849 -0.50187,1.51686 -0.75179,3.11404 -0.77512,4.9536 -0.0255,2.01063 0.21145,3.73258 0.74012,5.37829 0.12368,0.38502 0.21075,0.78019 0.1935,0.87816 -0.0784,0.44521 -0.65472,0.65552 -0.95991,0.35032 -0.0811,-0.0811 -0.2395,-0.44958 -0.3614,-0.84059 z m -9.44009,-15.11805 c 0,-0.47787 0.16107,-0.54701 1.56587,-0.67216 0.69126,-0.0616 1.75388,-0.19186 2.36138,-0.2895 0.6075,-0.0976 1.32962,-0.19891 1.6047,-0.22505 1.02579,-0.0974 2.5469,0.20074 2.7653,0.54207 0.21619,0.33789 0.0205,0.82414 -0.35856,0.89092 -0.0916,0.0162 -0.39093,-0.0295 -0.66527,-0.10135 -0.74994,-0.19646 -1.4717,-0.20228 -2.57413,-0.0208 -1.10551,0.18204 -3.2476,0.42775 -3.9237,0.45006 -0.53458,0.0176 -0.77559,-0.1608 -0.77559,-0.57425 z m 9.21315,0.9665 c -0.10287,-0.37955 0.1381,-0.7113 0.53854,-0.7414 0.5248,-0.0394 0.78923,0.60436 0.40572,0.98787 -0.11998,0.11998 -0.22706,0.15401 -0.42966,0.13657 -0.28993,-0.0249 -0.44979,-0.14396 -0.5146,-0.38304 z"
           id="path1-5-5-1" /><rect
           style="fill:#ffd400;fill-opacity:1;stroke:#ffa800;stroke-width:0.331502;stroke-linecap:round;stroke-linejoin:round;stroke-dasharray:none;stroke-opacity:1"
           id="rect2-2-6"
           width="97.830009"
           height="1.6981137"
           x="39.107971"
           y="116.68246" /><rect
           style="fill:#ffd400;fill-opacity:1;stroke:#ffa800;stroke-width:0.325287;stroke-linecap:round;stroke-linejoin:round;stroke-dasharray:none;stroke-opacity:1"
           id="rect3-8"
           width="93.852486"
           height="1.7043289"
           x="43.3382"
           y="111.91687" /><rect
           style="fill:#ffd400;fill-opacity:1;stroke:#ffa800;stroke-width:0.324947;stroke-linecap:round;stroke-linejoin:round;stroke-dasharray:none;stroke-opacity:1"
           id="rect4-5"
           width="93.848991"
           height="1.7008357"
           x="43.339947"
           y="121.4436" /><g
           id="g10"
           transform="translate(-35.375321,-4.4624732)"><circle
             style="fill:#ffffff;fill-opacity:1;stroke:#000000;stroke-width:1.25;stroke-linecap:round;stroke-linejoin:round;stroke-dasharray:none;stroke-opacity:1"
             id="path8"
             cx="90.264442"
             cy="142.91643"
             r="11.787233" /><path
             sodipodi:type="star"
             style="font-variation-settings:normal;opacity:1;vector-effect:none;fill:none;fill-opacity:1;stroke:#0000ff;stroke-width:0.325287;stroke-linecap:round;stroke-linejoin:round;stroke-miterlimit:4;stroke-dasharray:0.325287, 1.95172;stroke-dashoffset:0;stroke-opacity:1;-inkscape-stroke:none"
             id="path10"
             inkscape:flatsided="true"
             sodipodi:sides="3"
             sodipodi:cx="124.32651"
             sodipodi:cy="143.42635"
             sodipodi:r1="12.638751"
             sodipodi:r2="6.3193755"
             sodipodi:arg1="0.70476529"
             sodipodi:arg2="1.7519628"
             inkscape:rounded="0"
             inkscape:randomized="0"
             d="m 133.95425,151.61442 -21.5327,-3.94425 14.18217,-16.67573 z"
             inkscape:transform-center-x="0.63259222"
             inkscape:transform-center-y="-0.20516677"
             transform="matrix(0.68783276,0,0,0.68783276,4.5575319,44.552881)" /><circle
             style="font-variation-settings:normal;opacity:1;vector-effect:none;fill:#ffd400;fill-opacity:1;stroke:#ffa800;stroke-width:0.325287;stroke-linecap:round;stroke-linejoin:round;stroke-miterlimit:4;stroke-dasharray:none;stroke-dashoffset:0;stroke-opacity:1;-inkscape-stroke:none;stop-color:#000000;stop-opacity:1"
             id="path9"
             cx="91.639717"
             cy="134.65515"
             r="1.5340436" /><circle
             style="font-variation-settings:normal;vector-effect:none;fill:#ffd400;fill-opacity:1;stroke:#ffa800;stroke-width:0.325287;stroke-linecap:round;stroke-linejoin:round;stroke-miterlimit:4;stroke-dasharray:none;stroke-dashoffset:0;stroke-opacity:1;-inkscape-stroke:none;stop-color:#000000"
             id="path9-9"
             cx="96.695656"
             cy="148.83824"
             r="1.5340436" /><circle
             style="font-variation-settings:normal;vector-effect:none;fill:#ffd400;fill-opacity:1;stroke:#ffa800;stroke-width:0.325287;stroke-linecap:round;stroke-linejoin:round;stroke-miterlimit:4;stroke-dasharray:none;stroke-dashoffset:0;stroke-opacity:1;-inkscape-stroke:none;stop-color:#000000"
             id="path9-1"
             cx="81.884758"
             cy="146.12526"
             r="1.5340436" /></g></g></g></g></svg>
