<?xml version="1.0" encoding="UTF-8" standalone="no"?>
<!-- Created with Inkscape (http://www.inkscape.org/) -->

<svg
   width="193.06334mm"
   height="170.74788mm"
   viewBox="0 0 193.06334 170.74787"
   version="1.1"
   id="svg1"
   xml:space="preserve"
   inkscape:version="1.4 (86a8ad7, 2024-10-11)"
   sodipodi:docname="spaghetti_eckverstaerkung.svg"
   inkscape:export-filename="spaghetti_dreieck.png"
   inkscape:export-xdpi="96"
   inkscape:export-ydpi="96"
   xmlns:inkscape="http://www.inkscape.org/namespaces/inkscape"
   xmlns:sodipodi="http://sodipodi.sourceforge.net/DTD/sodipodi-0.dtd"
   xmlns="http://www.w3.org/2000/svg"
   xmlns:svg="http://www.w3.org/2000/svg"><sodipodi:namedview
     id="namedview1"
     pagecolor="#ffffff"
     bordercolor="#000000"
     borderopacity="0.25"
     inkscape:showpageshadow="2"
     inkscape:pageopacity="0.0"
     inkscape:pagecheckerboard="0"
     inkscape:deskcolor="#d1d1d1"
     inkscape:document-units="mm"
     showguides="true"
     inkscape:zoom="1.0396254"
     inkscape:cx="708.90918"
     inkscape:cy="282.31322"
     inkscape:window-width="5120"
     inkscape:window-height="1369"
     inkscape:window-x="-8"
     inkscape:window-y="-8"
     inkscape:window-maximized="1"
     inkscape:current-layer="layer1"><sodipodi:guide
       position="36.357895,115.34783"
       orientation="0,-1"
       id="guide2"
       inkscape:locked="false" /><sodipodi:guide
       position="20.220393,96.39146"
       orientation="1,0"
       id="guide5"
       inkscape:locked="false" /></sodipodi:namedview><defs
     id="defs1" /><g
     inkscape:label="Layer 1"
     inkscape:groupmode="layer"
     id="layer1"
     transform="translate(7.7725621,-2.8675143)"><rect
       style="font-variation-settings:normal;vector-effect:none;fill:#ffffff;fill-opacity:1;stroke:none;stroke-width:0.759835;stroke-linecap:round;stroke-linejoin:round;stroke-miterlimit:4;stroke-dasharray:0.522638, 3.13583;stroke-dashoffset:0;stroke-opacity:1;-inkscape-stroke:none"
       id="rect10"
       width="192.3035"
       height="169.98804"
       x="-7.3926415"
       y="3.2474334" /><g
       id="g28"
       transform="translate(-1.2049916e-5,-5.4015382)"><path
         style="fill:#000000;stroke-width:0.254581"
         d="m 12.7023,46.590588 c -0.882869,-1.143037 -1.494321,-2.611173 -1.694572,-4.068778 -0.0483,-0.35158 -0.08271,-3.048641 -0.07647,-5.993458 0.01202,-5.662678 0.02875,-5.91941 0.46805,-7.174046 1.036795,-2.961137 3.537945,-5.093481 6.661921,-5.679591 0.870399,-0.163308 2.070312,-0.142792 3.294286,0.05627 2.128074,0.346184 3.470497,0.461701 5.512347,0.474357 2.21538,0.0137 3.746134,-0.10658 6.064194,-0.476628 2.193466,-0.350164 3.913576,-0.130021 5.633723,0.721004 0.947847,0.468946 1.415395,0.810256 2.245779,1.639396 1.031656,1.030121 1.571948,1.86943 2.063668,3.205759 0.450672,1.224776 0.471827,1.541045 0.483821,7.233376 0.0069,3.283264 -0.02674,5.627467 -0.08703,6.059877 -0.444926,3.191641 -2.730524,5.903667 -5.840568,6.930232 -1.436399,0.474126 -2.725696,0.549837 -4.500542,0.264292 -2.306006,-0.370995 -3.864675,-0.494119 -6.061982,-0.478846 -2.057051,0.01432 -3.416579,0.132069 -5.511413,0.477421 -1.745248,0.287725 -3.107495,0.205886 -4.540942,-0.27279 -1.600492,-0.534448 -3.088376,-1.589681 -4.114276,-2.917888 z m 3.127718,1.193691 c 1.152885,0.653846 2.656862,1.033532 3.924397,0.99073 0.320034,-0.01078 0.965521,-0.08505 1.434413,-0.164985 3.861571,-0.658311 7.977669,-0.667095 11.755234,-0.0251 1.747736,0.297031 2.88415,0.236409 4.220246,-0.225116 1.042781,-0.360209 1.720885,-0.766777 2.546216,-1.526626 1.298311,-1.195315 2.012227,-2.453555 2.350185,-4.142095 0.140944,-0.704184 0.148477,-11.013537 0.0086,-11.786041 -0.205136,-1.133038 -0.662593,-2.219379 -1.312935,-3.117855 -0.484278,-0.669065 -1.580965,-1.652659 -2.297319,-2.06042 -1.149609,-0.654385 -2.657867,-1.035133 -3.924424,-0.9907 -0.320468,0.01124 -1.040978,0.0962 -1.601129,0.188781 -3.841625,0.635001 -7.735554,0.635001 -11.577178,0 -0.560152,-0.09258 -1.280659,-0.177542 -1.60113,-0.188781 -1.266553,-0.04442 -2.774811,0.336315 -3.924422,0.9907 -0.716355,0.407761 -1.81304,1.391355 -2.29732,2.06042 -0.65012,0.898176 -1.107467,1.984047 -1.313105,3.117678 -0.136855,0.754452 -0.131857,11.079163 0.0057,11.767219 0.126853,0.634532 0.426685,1.519382 0.695164,2.051529 0.392324,0.777616 0.715598,1.192151 1.551232,1.989128 0.653967,0.623716 0.873484,0.796985 1.357567,1.071522 z m -0.616739,-6.415776 c 0.0094,-0.301673 0.289496,-0.569205 0.5959,-0.569205 0.507466,0 0.751858,0.623623 0.389261,0.993286 -0.342693,0.349378 -1.000467,0.0662 -0.985161,-0.424081 z m 4.211387,0.864004 c 0,-0.513702 0.617125,-0.768455 0.98073,-0.40485 0.368284,0.368285 0.118199,0.963409 -0.404847,0.963409 -0.332743,0 -0.575883,-0.235823 -0.575883,-0.558559 z m -2.524344,-7.573039 c 0,-0.513702 0.617122,-0.768455 0.980727,-0.404851 0.232266,0.232268 0.232266,0.577427 0,0.809695 -0.363605,0.363604 -0.980727,0.108858 -0.980727,-0.404844 z m 17.690336,11.163658 c -0.210931,-0.508475 0.377039,-1.017913 0.848812,-0.735446 0.181134,0.108458 0.331278,0.448137 0.277131,0.62698 -0.154635,0.510722 -0.928165,0.58524 -1.125943,0.108466 z m -1.306909,-4.739699 c -0.01762,-0.0672 0.0057,-0.213222 0.05177,-0.324521 0.241246,-0.582423 1.061757,-0.449662 1.109051,0.17945 0.03864,0.514057 -0.611954,0.793967 -0.978074,0.420817 -0.08288,-0.08448 -0.165117,-0.208565 -0.182747,-0.275746 z m 4.886024,1.16868 c -1.088705,-3.492344 -1.088036,-7.503718 0.0018,-10.999804 0.118365,-0.379693 0.270126,-0.745268 0.337246,-0.812388 0.168232,-0.168227 0.640805,-0.160159 0.814885,0.01393 0.213031,0.213037 0.215017,0.455327 0.0088,1.078496 -0.501866,1.516857 -0.751788,3.114037 -0.775122,4.953591 -0.0255,2.010636 0.211457,3.732586 0.740123,5.378294 0.123683,0.385021 0.210754,0.780195 0.193496,0.878161 -0.07843,0.445205 -0.654713,0.655517 -0.959907,0.350318 -0.08107,-0.08107 -0.239502,-0.449577 -0.361395,-0.840587 z M 28.72968,27.134057 c 0,-0.477867 0.161071,-0.547004 1.565878,-0.67216 0.691254,-0.06158 1.753874,-0.191859 2.361372,-0.289502 0.607501,-0.09764 1.32962,-0.198911 1.604708,-0.225046 1.025788,-0.09745 2.546898,0.200735 2.765298,0.542069 0.216193,0.337893 0.02049,0.824136 -0.358557,0.890917 -0.09156,0.01617 -0.390931,-0.02948 -0.665277,-0.101346 -0.749935,-0.196463 -1.471698,-0.202283 -2.574127,-0.02078 -1.10551,0.182037 -3.247604,0.427745 -3.923704,0.450061 -0.534574,0.01763 -0.775591,-0.160805 -0.775591,-0.574247 z m 9.213156,0.966497 c -0.102876,-0.379547 0.138098,-0.711297 0.538536,-0.741397 0.524806,-0.03941 0.789228,0.604363 0.405727,0.987867 -0.119983,0.119983 -0.227062,0.154016 -0.429661,0.136572 -0.289936,-0.02494 -0.449795,-0.143954 -0.514602,-0.383042 z"
         id="path1" /><path
         style="fill:#000000;stroke-width:0.254581"
         d="m 135.93009,46.590588 c -0.88287,-1.143037 -1.49433,-2.611173 -1.69458,-4.068778 -0.0483,-0.35158 -0.0827,-3.048641 -0.0765,-5.993458 0.012,-5.662678 0.0287,-5.91941 0.46805,-7.174046 1.0368,-2.961137 3.53795,-5.093481 6.66192,-5.679591 0.8704,-0.163308 2.07032,-0.142792 3.29429,0.05627 2.12807,0.346184 3.4705,0.461701 5.51235,0.474357 2.21538,0.0137 3.74613,-0.10658 6.06419,-0.476628 2.19347,-0.350164 3.91358,-0.130021 5.63372,0.721004 0.94785,0.468946 1.4154,0.810256 2.24578,1.639396 1.03166,1.030121 1.57195,1.86943 2.06367,3.205759 0.45067,1.224776 0.47183,1.541045 0.48382,7.233376 0.007,3.283264 -0.0267,5.627467 -0.087,6.059877 -0.44492,3.191641 -2.73052,5.903667 -5.84057,6.930232 -1.43639,0.474126 -2.72569,0.549837 -4.50054,0.264292 -2.306,-0.370995 -3.86467,-0.494119 -6.06198,-0.478846 -2.05705,0.01432 -3.41658,0.132069 -5.51141,0.477421 -1.74525,0.287725 -3.1075,0.205886 -4.54094,-0.27279 -1.6005,-0.534448 -3.08838,-1.589681 -4.11428,-2.917888 z m 3.12771,1.193691 c 1.15289,0.653846 2.65687,1.033532 3.9244,0.99073 0.32003,-0.01078 0.96552,-0.08505 1.43441,-0.164985 3.86157,-0.658311 7.97767,-0.667095 11.75524,-0.0251 1.74773,0.297031 2.88415,0.236409 4.22024,-0.225116 1.04278,-0.360209 1.72089,-0.766777 2.54622,-1.526626 1.29831,-1.195315 2.01223,-2.453555 2.35018,-4.142095 0.14095,-0.704184 0.14848,-11.013537 0.009,-11.786041 -0.20513,-1.133038 -0.66259,-2.219379 -1.31293,-3.117855 -0.48428,-0.669065 -1.58097,-1.652659 -2.29732,-2.06042 -1.14961,-0.654385 -2.65787,-1.035133 -3.92442,-0.9907 -0.32047,0.01124 -1.04098,0.0962 -1.60113,0.188781 -3.84163,0.635001 -7.73556,0.635001 -11.57718,0 -0.56015,-0.09258 -1.28066,-0.177542 -1.60113,-0.188781 -1.26655,-0.04442 -2.77481,0.336315 -3.92442,0.9907 -0.71636,0.407761 -1.81304,1.391355 -2.29732,2.06042 -0.65012,0.898176 -1.10747,1.984047 -1.31311,3.117678 -0.13685,0.754452 -0.13185,11.079163 0.006,11.767219 0.12686,0.634532 0.42669,1.519382 0.69517,2.051529 0.39232,0.777616 0.71559,1.192151 1.55123,1.989128 0.65397,0.623716 0.87348,0.796985 1.35757,1.071522 z m -0.61674,-6.415776 c 0.009,-0.301673 0.2895,-0.569205 0.5959,-0.569205 0.50747,0 0.75186,0.623623 0.38927,0.993286 -0.3427,0.349378 -1.00047,0.0662 -0.98517,-0.424081 z m 4.21139,0.864004 c 0,-0.513702 0.61713,-0.768455 0.98073,-0.40485 0.36829,0.368285 0.1182,0.963409 -0.40485,0.963409 -0.33274,0 -0.57588,-0.235823 -0.57588,-0.558559 z m -2.52434,-7.573039 c 0,-0.513702 0.61712,-0.768455 0.98072,-0.404851 0.23227,0.232268 0.23227,0.577427 0,0.809695 -0.3636,0.363604 -0.98072,0.108858 -0.98072,-0.404844 z m 17.69033,11.163658 c -0.21093,-0.508475 0.37704,-1.017913 0.84882,-0.735446 0.18113,0.108458 0.33127,0.448137 0.27713,0.62698 -0.15464,0.510722 -0.92817,0.58524 -1.12595,0.108466 z m -1.30691,-4.739699 c -0.0176,-0.0672 0.006,-0.213222 0.0518,-0.324521 0.24125,-0.582423 1.06176,-0.449662 1.10906,0.17945 0.0386,0.514057 -0.61196,0.793967 -0.97808,0.420817 -0.0829,-0.08448 -0.16512,-0.208565 -0.18275,-0.275746 z m 4.88603,1.16868 c -1.08871,-3.492344 -1.08804,-7.503718 0.002,-10.999804 0.11836,-0.379693 0.27012,-0.745268 0.33724,-0.812388 0.16824,-0.168227 0.64081,-0.160159 0.81489,0.01393 0.21303,0.213037 0.21502,0.455327 0.009,1.078496 -0.50187,1.516857 -0.75179,3.114037 -0.77512,4.953591 -0.0255,2.010636 0.21145,3.732586 0.74012,5.378294 0.12368,0.385021 0.21075,0.780195 0.1935,0.878161 -0.0784,0.445205 -0.65472,0.655517 -0.95991,0.350318 -0.0811,-0.08107 -0.2395,-0.449577 -0.3614,-0.840587 z m -9.44009,-15.11805 c 0,-0.477867 0.16107,-0.547004 1.56587,-0.67216 0.69126,-0.06158 1.75388,-0.191859 2.36138,-0.289502 0.6075,-0.09764 1.32962,-0.198911 1.6047,-0.225046 1.02579,-0.09745 2.5469,0.200735 2.7653,0.542069 0.21619,0.337893 0.0205,0.824136 -0.35856,0.890917 -0.0916,0.01617 -0.39093,-0.02948 -0.66527,-0.101346 -0.74994,-0.196463 -1.4717,-0.202283 -2.57413,-0.02078 -1.10551,0.182037 -3.2476,0.427745 -3.9237,0.450061 -0.53458,0.01763 -0.77559,-0.160805 -0.77559,-0.574247 z m 9.21315,0.966497 c -0.10287,-0.379547 0.1381,-0.711297 0.53854,-0.741397 0.5248,-0.03941 0.78923,0.604363 0.40572,0.987867 -0.11998,0.119983 -0.22706,0.154016 -0.42966,0.136572 -0.28993,-0.02494 -0.44979,-0.143954 -0.5146,-0.383042 z"
         id="path1-5" /><rect
         style="fill:#ffd400;fill-opacity:1;stroke:#ffa800;stroke-width:0.32878;stroke-linecap:round;stroke-linejoin:round;stroke-dasharray:none;stroke-opacity:1"
         id="rect2"
         width="96.075966"
         height="1.7008357"
         x="38.27784"
         y="35.907154" /><rect
         style="fill:#ffd400;fill-opacity:1;stroke:#ffa800;stroke-width:0.232023;stroke-linecap:round;stroke-linejoin:round;stroke-dasharray:none;stroke-opacity:1"
         id="rect2-7"
         width="45.27298"
         height="1.7975922"
         x="-29.817583"
         y="67.602509"
         transform="rotate(-45)" /><g
         id="g12"
         transform="translate(-1.4401027,116.00209)"><path
           style="fill:#000000;stroke-width:0.254581"
           d="m 14.142403,44.359346 c -0.882869,-1.143037 -1.494321,-2.611173 -1.694572,-4.068778 -0.0483,-0.35158 -0.08271,-3.048641 -0.07647,-5.993458 0.01202,-5.662678 0.02875,-5.91941 0.46805,-7.174046 1.036795,-2.961137 3.537945,-5.093481 6.661921,-5.679591 0.870399,-0.163308 2.070312,-0.142792 3.294286,0.05627 2.128074,0.346184 3.470497,0.461701 5.512347,0.474357 2.21538,0.0137 3.746134,-0.10658 6.064194,-0.476628 2.193466,-0.350164 3.913576,-0.130021 5.633723,0.721004 0.947847,0.468946 1.415395,0.810256 2.245779,1.639396 1.031656,1.030121 1.571948,1.86943 2.063668,3.205759 0.450672,1.224776 0.471827,1.541045 0.483821,7.233376 0.0069,3.283264 -0.02674,5.627467 -0.08703,6.059877 -0.444926,3.191641 -2.730524,5.903667 -5.840568,6.930232 -1.436399,0.474126 -2.725696,0.549837 -4.500542,0.264292 -2.306006,-0.370995 -3.864675,-0.494119 -6.061982,-0.478846 -2.057051,0.01432 -3.416579,0.132069 -5.511413,0.477421 -1.745248,0.287725 -3.107495,0.205886 -4.540942,-0.27279 -1.600492,-0.534448 -3.088376,-1.589681 -4.114276,-2.917888 z m 3.127718,1.193691 c 1.152885,0.653846 2.656862,1.033532 3.924397,0.99073 0.320034,-0.01078 0.965521,-0.08505 1.434413,-0.164985 3.861571,-0.658311 7.977669,-0.667095 11.755234,-0.0251 1.747736,0.297031 2.88415,0.236409 4.220246,-0.225116 1.042781,-0.360209 1.720885,-0.766777 2.546216,-1.526626 1.298311,-1.195315 2.012227,-2.453555 2.350185,-4.142095 0.140944,-0.704184 0.148477,-11.013537 0.0086,-11.786041 -0.205136,-1.133038 -0.662593,-2.219379 -1.312935,-3.117855 -0.484278,-0.669065 -1.580965,-1.652659 -2.297319,-2.06042 -1.149609,-0.654385 -2.657867,-1.035133 -3.924424,-0.9907 -0.320468,0.01124 -1.040978,0.0962 -1.601129,0.188781 -3.841625,0.635001 -7.735554,0.635001 -11.577178,0 -0.560152,-0.09258 -1.280659,-0.177542 -1.60113,-0.188781 -1.266553,-0.04442 -2.774811,0.336315 -3.924422,0.9907 -0.716355,0.407761 -1.81304,1.391355 -2.29732,2.06042 -0.65012,0.898176 -1.107467,1.984047 -1.313105,3.117678 -0.136855,0.754452 -0.131857,11.079163 0.0057,11.767219 0.126853,0.634532 0.426685,1.519382 0.695164,2.051529 0.392324,0.777616 0.715598,1.192151 1.551232,1.989128 0.653967,0.623716 0.873484,0.796985 1.357567,1.071522 z m -0.616739,-6.415776 c 0.0094,-0.301673 0.289496,-0.569205 0.5959,-0.569205 0.507466,0 0.751858,0.623623 0.389261,0.993286 -0.342693,0.349378 -1.000467,0.0662 -0.985161,-0.424081 z m 4.211387,0.864004 c 0,-0.513702 0.617125,-0.768455 0.98073,-0.40485 0.368284,0.368285 0.118199,0.963409 -0.404847,0.963409 -0.332743,0 -0.575883,-0.235823 -0.575883,-0.558559 z m -2.524344,-7.573039 c 0,-0.513702 0.617122,-0.768455 0.980727,-0.404851 0.232266,0.232268 0.232266,0.577427 0,0.809695 -0.363605,0.363604 -0.980727,0.108858 -0.980727,-0.404844 z m 17.690336,11.163658 c -0.210931,-0.508475 0.377039,-1.017913 0.848812,-0.735446 0.181134,0.108458 0.331278,0.448137 0.277131,0.62698 -0.154635,0.510722 -0.928165,0.58524 -1.125943,0.108466 z m -1.306909,-4.739699 c -0.01762,-0.0672 0.0057,-0.213222 0.05177,-0.324521 0.241246,-0.582423 1.061757,-0.449662 1.109051,0.17945 0.03864,0.514057 -0.611954,0.793967 -0.978074,0.420817 -0.08288,-0.08448 -0.165117,-0.208565 -0.182747,-0.275746 z m 4.886024,1.16868 c -1.088705,-3.492344 -1.088036,-7.503718 0.0018,-10.999804 0.118365,-0.379693 0.270126,-0.745268 0.337246,-0.812388 0.168232,-0.168227 0.640805,-0.160159 0.814885,0.01393 0.213031,0.213037 0.215017,0.455327 0.0088,1.078496 -0.501866,1.516857 -0.751788,3.114037 -0.775122,4.953591 -0.0255,2.010636 0.211457,3.732586 0.740123,5.378294 0.123683,0.385021 0.210754,0.780195 0.193496,0.878161 -0.07843,0.445205 -0.654713,0.655517 -0.959907,0.350318 -0.08107,-0.08107 -0.239502,-0.449577 -0.361395,-0.840587 z m -9.440093,-15.11805 c 0,-0.477867 0.161071,-0.547004 1.565878,-0.67216 0.691254,-0.06158 1.753874,-0.191859 2.361372,-0.289502 0.607501,-0.09764 1.32962,-0.198911 1.604708,-0.225046 1.025788,-0.09745 2.546898,0.200735 2.765298,0.542069 0.216193,0.337893 0.02049,0.824136 -0.358557,0.890917 -0.09156,0.01617 -0.390931,-0.02948 -0.665277,-0.101346 -0.749935,-0.196463 -1.471698,-0.202283 -2.574127,-0.02078 -1.10551,0.182037 -3.247604,0.427745 -3.923704,0.450061 -0.534574,0.01763 -0.775591,-0.160805 -0.775591,-0.574247 z m 9.213156,0.966497 c -0.102876,-0.379547 0.138098,-0.711297 0.538536,-0.741397 0.524806,-0.03941 0.789228,0.604363 0.405727,0.987867 -0.119983,0.119983 -0.227062,0.154016 -0.429661,0.136572 -0.289936,-0.02494 -0.449795,-0.143954 -0.514602,-0.383042 z"
           id="path11" /><path
           style="fill:#000000;stroke-width:0.254581"
           d="m 137.37019,44.359346 c -0.88287,-1.143037 -1.49433,-2.611173 -1.69458,-4.068778 -0.0483,-0.35158 -0.0827,-3.048641 -0.0765,-5.993458 0.012,-5.662678 0.0287,-5.91941 0.46805,-7.174046 1.0368,-2.961137 3.53795,-5.093481 6.66192,-5.679591 0.8704,-0.163308 2.07032,-0.142792 3.29429,0.05627 2.12807,0.346184 3.4705,0.461701 5.51235,0.474357 2.21538,0.0137 3.74613,-0.10658 6.06419,-0.476628 2.19347,-0.350164 3.91358,-0.130021 5.63372,0.721004 0.94785,0.468946 1.4154,0.810256 2.24578,1.639396 1.03166,1.030121 1.57195,1.86943 2.06367,3.205759 0.45067,1.224776 0.47183,1.541045 0.48382,7.233376 0.007,3.283264 -0.0267,5.627467 -0.087,6.059877 -0.44492,3.191641 -2.73052,5.903667 -5.84057,6.930232 -1.43639,0.474126 -2.72569,0.549837 -4.50054,0.264292 -2.306,-0.370995 -3.86467,-0.494119 -6.06198,-0.478846 -2.05705,0.01432 -3.41658,0.132069 -5.51141,0.477421 -1.74525,0.287725 -3.1075,0.205886 -4.54094,-0.27279 -1.6005,-0.534448 -3.08838,-1.589681 -4.11428,-2.917888 z m 3.12771,1.193691 c 1.15289,0.653846 2.65687,1.033532 3.9244,0.99073 0.32003,-0.01078 0.96552,-0.08505 1.43441,-0.164985 3.86157,-0.658311 7.97767,-0.667095 11.75524,-0.0251 1.74773,0.297031 2.88415,0.236409 4.22024,-0.225116 1.04278,-0.360209 1.72089,-0.766777 2.54622,-1.526626 1.29831,-1.195315 2.01223,-2.453555 2.35018,-4.142095 0.14095,-0.704184 0.14848,-11.013537 0.009,-11.786041 -0.20513,-1.133038 -0.66259,-2.219379 -1.31293,-3.117855 -0.48428,-0.669065 -1.58097,-1.652659 -2.29732,-2.06042 -1.14961,-0.654385 -2.65787,-1.035133 -3.92442,-0.9907 -0.32047,0.01124 -1.04098,0.0962 -1.60113,0.188781 -3.84163,0.635001 -7.73556,0.635001 -11.57718,0 -0.56015,-0.09258 -1.28066,-0.177542 -1.60113,-0.188781 -1.26655,-0.04442 -2.77481,0.336315 -3.92442,0.9907 -0.71636,0.407761 -1.81304,1.391355 -2.29732,2.06042 -0.65012,0.898176 -1.10747,1.984047 -1.31311,3.117678 -0.13685,0.754452 -0.13185,11.079163 0.006,11.767219 0.12686,0.634532 0.42669,1.519382 0.69517,2.051529 0.39232,0.777616 0.71559,1.192151 1.55123,1.989128 0.65397,0.623716 0.87348,0.796985 1.35757,1.071522 z m -0.61674,-6.415776 c 0.009,-0.301673 0.2895,-0.569205 0.5959,-0.569205 0.50747,0 0.75186,0.623623 0.38927,0.993286 -0.3427,0.349378 -1.00047,0.0662 -0.98517,-0.424081 z m 4.21139,0.864004 c 0,-0.513702 0.61713,-0.768455 0.98073,-0.40485 0.36829,0.368285 0.1182,0.963409 -0.40485,0.963409 -0.33274,0 -0.57588,-0.235823 -0.57588,-0.558559 z m -2.52434,-7.573039 c 0,-0.513702 0.61712,-0.768455 0.98072,-0.404851 0.23227,0.232268 0.23227,0.577427 0,0.809695 -0.3636,0.363604 -0.98072,0.108858 -0.98072,-0.404844 z m 17.69033,11.163658 c -0.21093,-0.508475 0.37704,-1.017913 0.84882,-0.735446 0.18113,0.108458 0.33127,0.448137 0.27713,0.62698 -0.15464,0.510722 -0.92817,0.58524 -1.12595,0.108466 z m -1.30691,-4.739699 c -0.0176,-0.0672 0.006,-0.213222 0.0518,-0.324521 0.24125,-0.582423 1.06176,-0.449662 1.10906,0.17945 0.0386,0.514057 -0.61196,0.793967 -0.97808,0.420817 -0.0829,-0.08448 -0.16512,-0.208565 -0.18275,-0.275746 z m 4.88603,1.16868 c -1.08871,-3.492344 -1.08804,-7.503718 0.002,-10.999804 0.11836,-0.379693 0.27012,-0.745268 0.33724,-0.812388 0.16824,-0.168227 0.64081,-0.160159 0.81489,0.01393 0.21303,0.213037 0.21502,0.455327 0.009,1.078496 -0.50187,1.516857 -0.75179,3.114037 -0.77512,4.953591 -0.0255,2.010636 0.21145,3.732586 0.74012,5.378294 0.12368,0.385021 0.21075,0.780195 0.1935,0.878161 -0.0784,0.445205 -0.65472,0.655517 -0.95991,0.350318 -0.0811,-0.08107 -0.2395,-0.449577 -0.3614,-0.840587 z m -9.44009,-15.11805 c 0,-0.477867 0.16107,-0.547004 1.56587,-0.67216 0.69126,-0.06158 1.75388,-0.191859 2.36138,-0.289502 0.6075,-0.09764 1.32962,-0.198911 1.6047,-0.225046 1.02579,-0.09745 2.5469,0.200735 2.7653,0.542069 0.21619,0.337893 0.0205,0.824136 -0.35856,0.890917 -0.0916,0.01617 -0.39093,-0.02948 -0.66527,-0.101346 -0.74994,-0.196463 -1.4717,-0.202283 -2.57413,-0.02078 -1.10551,0.182037 -3.2476,0.427745 -3.9237,0.450061 -0.53458,0.01763 -0.77559,-0.160805 -0.77559,-0.574247 z m 9.21315,0.966497 c -0.10287,-0.379547 0.1381,-0.711297 0.53854,-0.741397 0.5248,-0.03941 0.78923,0.604363 0.40572,0.987867 -0.11998,0.119983 -0.22706,0.154016 -0.42966,0.136572 -0.28993,-0.02494 -0.44979,-0.143954 -0.5146,-0.383042 z"
           id="path12" /><rect
           style="fill:#ffd400;fill-opacity:1;stroke:#ffa800;stroke-width:0.32878;stroke-linecap:round;stroke-linejoin:round;stroke-dasharray:none;stroke-opacity:1"
           id="rect12"
           width="96.075966"
           height="1.7008357"
           x="39.717941"
           y="33.675911" /></g><rect
         style="fill:#ffd400;fill-opacity:1;stroke:#ffa800;stroke-width:0.32878;stroke-linecap:round;stroke-linejoin:round;stroke-dasharray:none;stroke-opacity:1"
         id="rect2-4"
         width="96.075966"
         height="1.7008357"
         x="-145.37978"
         y="26.018507"
         transform="rotate(-90)" /><rect
         style="fill:#ffd400;fill-opacity:1;stroke:#ffa800;stroke-width:0.32878;stroke-linecap:round;stroke-linejoin:round;stroke-dasharray:none;stroke-opacity:1"
         id="rect2-4-8"
         width="96.075966"
         height="1.7008357"
         x="-138.95142"
         y="149.52258"
         transform="rotate(-90)" /><rect
         style="fill:#ffd400;fill-opacity:1;stroke:#ffa800;stroke-width:0.232023;stroke-linecap:round;stroke-linejoin:round;stroke-dasharray:none;stroke-opacity:1"
         id="rect13"
         width="45.27298"
         height="1.7975922"
         x="-22.418282"
         y="189.27835"
         transform="rotate(-45)" /><rect
         style="fill:#ffd400;fill-opacity:1;stroke:#ffa800;stroke-width:0.232023;stroke-linecap:round;stroke-linejoin:round;stroke-dasharray:none;stroke-opacity:1"
         id="rect13-1"
         width="45.27298"
         height="1.7975922"
         x="109.68481"
         y="-57.537693"
         transform="rotate(45)" /><rect
         style="fill:#ffd400;fill-opacity:1;stroke:#ffa800;stroke-width:0.232023;stroke-linecap:round;stroke-linejoin:round;stroke-dasharray:none;stroke-opacity:1"
         id="rect13-1-5"
         width="45.27298"
         height="1.7975922"
         x="102.61361"
         y="63.03109"
         transform="rotate(45)" /><g
         id="g15"
         transform="translate(-24.431877,-8.1439589)"><path
           style="font-variation-settings:normal;opacity:1;vector-effect:none;fill:#ffffff;fill-opacity:1;stroke:none;stroke-width:0.325287;stroke-linecap:round;stroke-linejoin:round;stroke-miterlimit:4;stroke-dasharray:0.223743, 1.34246;stroke-dashoffset:0;stroke-opacity:1;-inkscape-stroke:none"
           d="m 47.530166,71.470419 c 3.048436,0.793787 6.096871,0.666518 9.145307,0.02331 1.0633,1.055052 2.813644,1.388707 2.80029,3.574246 l 0.598405,5.813091 c -1.148454,1.776178 -2.355821,3.972159 -4.086579,3.360894 -2.433391,-0.226393 -5.119531,-0.598119 -7.611942,0.06078 -2.2028,-0.227009 -3.516462,-1.501534 -3.862366,-3.046341 0,0 -0.8842,-6.875813 -0.297851,-6.960019 0.463008,-0.06649 3.123411,-3.338692 3.314736,-2.825964 z"
           id="path14"
           sodipodi:nodetypes="cccccccsc" /><path
           style="fill:#000000;stroke-width:0.126671"
           d="m 44.863754,82.872549 c -0.439285,-0.568735 -0.743522,-1.299227 -0.843159,-2.02448 -0.02403,-0.174934 -0.04115,-1.516896 -0.03805,-2.982134 0.006,-2.817549 0.01431,-2.945289 0.232885,-3.569552 0.515873,-1.473357 1.760357,-2.534337 3.314736,-2.825964 0.43308,-0.08126 1.030115,-0.07105 1.639121,0.028 1.058855,0.172249 1.726797,0.229726 2.74275,0.236023 1.102295,0.0068 1.863944,-0.05303 3.017329,-0.237153 1.091391,-0.17423 1.947257,-0.06469 2.803142,0.358746 0.471615,0.233331 0.70425,0.403155 1.11742,0.815706 0.513316,0.512551 0.782146,0.930162 1.026809,1.595072 0.224238,0.609406 0.234764,0.76677 0.240732,3.599073 0.0034,1.633637 -0.01331,2.800029 -0.0433,3.015181 -0.22138,1.588048 -1.358613,2.937457 -2.906061,3.448239 -0.714701,0.235909 -1.35621,0.27358 -2.239311,0.131503 -1.147387,-0.184594 -1.922926,-0.245856 -3.016228,-0.238257 -1.023517,0.0071 -1.69997,0.06571 -2.742285,0.237548 -0.868374,0.143162 -1.54618,0.102441 -2.259413,-0.135731 -0.796348,-0.265922 -1.536667,-0.790969 -2.047118,-1.451838 z m 1.556242,0.593939 c 0.573634,0.325331 1.32196,0.514249 1.952641,0.492952 0.159238,-0.0054 0.480409,-0.04232 0.713713,-0.08209 1.921382,-0.327553 3.969407,-0.331923 5.848991,-0.01249 0.869611,0.147792 1.435051,0.117628 2.099845,-0.11201 0.518851,-0.179227 0.856252,-0.381521 1.266908,-0.759595 0.645993,-0.594747 1.001213,-1.220803 1.169369,-2.060961 0.07013,-0.350377 0.07388,-5.479948 0.0043,-5.864318 -0.102069,-0.56376 -0.329683,-1.104285 -0.65327,-1.551335 -0.24096,-0.332903 -0.786633,-0.822305 -1.143065,-1.025193 -0.572005,-0.325598 -1.322461,-0.515045 -1.952655,-0.492937 -0.159454,0.0056 -0.517954,0.04787 -0.796666,0.09393 -1.911457,0.315954 -3.848939,0.315954 -5.760395,0 -0.278712,-0.04606 -0.637211,-0.08834 -0.796666,-0.09393 -0.630192,-0.0221 -1.380648,0.167339 -1.952654,0.492937 -0.356433,0.202888 -0.902105,0.69229 -1.143065,1.025193 -0.323477,0.446901 -0.551037,0.987192 -0.653355,1.551246 -0.06809,0.375389 -0.06561,5.512601 0.0028,5.854954 0.06312,0.315721 0.212304,0.755991 0.345889,1.020768 0.195207,0.386915 0.356057,0.593173 0.771839,0.98972 0.32539,0.310339 0.434614,0.396552 0.675477,0.533152 z m -0.306868,-3.192264 c 0.0047,-0.150102 0.144043,-0.283216 0.296499,-0.283216 0.252497,0 0.374098,0.310292 0.193682,0.494224 -0.170512,0.173838 -0.497797,0.03294 -0.490181,-0.211008 z m 2.095438,0.429898 c 0,-0.2556 0.307059,-0.382356 0.487976,-0.201439 0.183245,0.183245 0.05881,0.479358 -0.201437,0.479358 -0.165561,0 -0.286539,-0.117337 -0.286539,-0.277919 z m -1.256025,-3.768077 c 0,-0.2556 0.307058,-0.382357 0.487975,-0.20144 0.115568,0.115568 0.115568,0.287307 0,0.402876 -0.180917,0.180916 -0.487975,0.05416 -0.487975,-0.201436 z m 8.802088,5.554642 c -0.104952,-0.252999 0.187601,-0.506477 0.422339,-0.365932 0.09013,0.05397 0.164832,0.222977 0.13789,0.311963 -0.07694,0.254118 -0.461822,0.291195 -0.560229,0.05397 z M 55.104357,80.13238 c -0.0088,-0.03344 0.0028,-0.106092 0.02576,-0.16147 0.120035,-0.289793 0.528293,-0.223736 0.551824,0.08929 0.01923,0.255777 -0.304486,0.39505 -0.486655,0.209384 -0.04124,-0.04204 -0.08216,-0.103775 -0.09093,-0.137202 z m 2.431113,0.581494 c -0.541701,-1.737667 -0.541368,-3.733585 8.96e-4,-5.473115 0.05889,-0.188921 0.134405,-0.370819 0.167801,-0.404215 0.08371,-0.0837 0.318842,-0.07969 0.405459,0.0069 0.105996,0.106 0.106984,0.226554 0.0044,0.536621 -0.249711,0.754735 -0.374063,1.549435 -0.385673,2.464733 -0.01269,1.000421 0.105213,1.857203 0.368259,2.676049 0.06154,0.191573 0.104864,0.388198 0.09628,0.436942 -0.03902,0.221518 -0.325762,0.326162 -0.477616,0.174306 -0.04034,-0.04034 -0.119168,-0.223694 -0.179818,-0.418246 z m -4.697057,-7.522209 c 0,-0.237769 0.08014,-0.27217 0.779125,-0.334443 0.343944,-0.03064 0.872666,-0.09546 1.174936,-0.144046 0.302271,-0.04858 0.661572,-0.09897 0.798446,-0.111975 0.510396,-0.04849 1.267247,0.09988 1.375915,0.269715 0.10757,0.168123 0.01019,0.410061 -0.178406,0.443289 -0.04556,0.008 -0.194513,-0.01467 -0.331018,-0.05043 -0.373141,-0.09775 -0.732265,-0.100648 -1.280795,-0.01034 -0.550063,0.09057 -1.615893,0.212831 -1.952297,0.223934 -0.265985,0.0088 -0.385906,-0.08001 -0.385906,-0.285725 z m 4.584141,0.480895 c -0.05119,-0.188849 0.06871,-0.353916 0.267957,-0.368893 0.261125,-0.01961 0.392692,0.30071 0.201875,0.491528 -0.0597,0.0597 -0.112978,0.07663 -0.213784,0.06795 -0.144262,-0.01241 -0.223802,-0.07163 -0.256048,-0.190588 z"
           id="path15" /></g><g
         id="g17"
         transform="translate(96.455013,-9.4164522)"><path
           style="font-variation-settings:normal;opacity:1;vector-effect:none;fill:#ffffff;fill-opacity:1;stroke:none;stroke-width:0.325287;stroke-linecap:round;stroke-linejoin:round;stroke-miterlimit:4;stroke-dasharray:0.223743, 1.34246;stroke-dashoffset:0;stroke-opacity:1;-inkscape-stroke:none"
           d="m 47.530166,71.470419 c 3.048436,0.793787 6.096871,0.666518 9.145307,0.02331 1.0633,1.055052 2.813644,1.388707 2.80029,3.574246 l 0.598405,5.813091 c -1.148454,1.776178 -2.355821,3.972159 -4.086579,3.360894 -2.433391,-0.226393 -5.119531,-0.598119 -7.611942,0.06078 -2.2028,-0.227009 -3.516462,-1.501534 -3.862366,-3.046341 0,0 -0.8842,-6.875813 -0.297851,-6.960019 0.463008,-0.06649 3.123411,-3.338692 3.314736,-2.825964 z"
           id="path16"
           sodipodi:nodetypes="cccccccsc" /><path
           style="fill:#000000;stroke-width:0.126671"
           d="m 44.863754,82.872549 c -0.439285,-0.568735 -0.743522,-1.299227 -0.843159,-2.02448 -0.02403,-0.174934 -0.04115,-1.516896 -0.03805,-2.982134 0.006,-2.817549 0.01431,-2.945289 0.232885,-3.569552 0.515873,-1.473357 1.760357,-2.534337 3.314736,-2.825964 0.43308,-0.08126 1.030115,-0.07105 1.639121,0.028 1.058855,0.172249 1.726797,0.229726 2.74275,0.236023 1.102295,0.0068 1.863944,-0.05303 3.017329,-0.237153 1.091391,-0.17423 1.947257,-0.06469 2.803142,0.358746 0.471615,0.233331 0.70425,0.403155 1.11742,0.815706 0.513316,0.512551 0.782146,0.930162 1.026809,1.595072 0.224238,0.609406 0.234764,0.76677 0.240732,3.599073 0.0034,1.633637 -0.01331,2.800029 -0.0433,3.015181 -0.22138,1.588048 -1.358613,2.937457 -2.906061,3.448239 -0.714701,0.235909 -1.35621,0.27358 -2.239311,0.131503 -1.147387,-0.184594 -1.922926,-0.245856 -3.016228,-0.238257 -1.023517,0.0071 -1.69997,0.06571 -2.742285,0.237548 -0.868374,0.143162 -1.54618,0.102441 -2.259413,-0.135731 -0.796348,-0.265922 -1.536667,-0.790969 -2.047118,-1.451838 z m 1.556242,0.593939 c 0.573634,0.325331 1.32196,0.514249 1.952641,0.492952 0.159238,-0.0054 0.480409,-0.04232 0.713713,-0.08209 1.921382,-0.327553 3.969407,-0.331923 5.848991,-0.01249 0.869611,0.147792 1.435051,0.117628 2.099845,-0.11201 0.518851,-0.179227 0.856252,-0.381521 1.266908,-0.759595 0.645993,-0.594747 1.001213,-1.220803 1.169369,-2.060961 0.07013,-0.350377 0.07388,-5.479948 0.0043,-5.864318 -0.102069,-0.56376 -0.329683,-1.104285 -0.65327,-1.551335 -0.24096,-0.332903 -0.786633,-0.822305 -1.143065,-1.025193 -0.572005,-0.325598 -1.322461,-0.515045 -1.952655,-0.492937 -0.159454,0.0056 -0.517954,0.04787 -0.796666,0.09393 -1.911457,0.315954 -3.848939,0.315954 -5.760395,0 -0.278712,-0.04606 -0.637211,-0.08834 -0.796666,-0.09393 -0.630192,-0.0221 -1.380648,0.167339 -1.952654,0.492937 -0.356433,0.202888 -0.902105,0.69229 -1.143065,1.025193 -0.323477,0.446901 -0.551037,0.987192 -0.653355,1.551246 -0.06809,0.375389 -0.06561,5.512601 0.0028,5.854954 0.06312,0.315721 0.212304,0.755991 0.345889,1.020768 0.195207,0.386915 0.356057,0.593173 0.771839,0.98972 0.32539,0.310339 0.434614,0.396552 0.675477,0.533152 z m -0.306868,-3.192264 c 0.0047,-0.150102 0.144043,-0.283216 0.296499,-0.283216 0.252497,0 0.374098,0.310292 0.193682,0.494224 -0.170512,0.173838 -0.497797,0.03294 -0.490181,-0.211008 z m 2.095438,0.429898 c 0,-0.2556 0.307059,-0.382356 0.487976,-0.201439 0.183245,0.183245 0.05881,0.479358 -0.201437,0.479358 -0.165561,0 -0.286539,-0.117337 -0.286539,-0.277919 z m -1.256025,-3.768077 c 0,-0.2556 0.307058,-0.382357 0.487975,-0.20144 0.115568,0.115568 0.115568,0.287307 0,0.402876 -0.180917,0.180916 -0.487975,0.05416 -0.487975,-0.201436 z m 8.802088,5.554642 c -0.104952,-0.252999 0.187601,-0.506477 0.422339,-0.365932 0.09013,0.05397 0.164832,0.222977 0.13789,0.311963 -0.07694,0.254118 -0.461822,0.291195 -0.560229,0.05397 z M 55.104357,80.13238 c -0.0088,-0.03344 0.0028,-0.106092 0.02576,-0.16147 0.120035,-0.289793 0.528293,-0.223736 0.551824,0.08929 0.01923,0.255777 -0.304486,0.39505 -0.486655,0.209384 -0.04124,-0.04204 -0.08216,-0.103775 -0.09093,-0.137202 z m 2.431113,0.581494 c -0.541701,-1.737667 -0.541368,-3.733585 8.96e-4,-5.473115 0.05889,-0.188921 0.134405,-0.370819 0.167801,-0.404215 0.08371,-0.0837 0.318842,-0.07969 0.405459,0.0069 0.105996,0.106 0.106984,0.226554 0.0044,0.536621 -0.249711,0.754735 -0.374063,1.549435 -0.385673,2.464733 -0.01269,1.000421 0.105213,1.857203 0.368259,2.676049 0.06154,0.191573 0.104864,0.388198 0.09628,0.436942 -0.03902,0.221518 -0.325762,0.326162 -0.477616,0.174306 -0.04034,-0.04034 -0.119168,-0.223694 -0.179818,-0.418246 z m -4.697057,-7.522209 c 0,-0.237769 0.08014,-0.27217 0.779125,-0.334443 0.343944,-0.03064 0.872666,-0.09546 1.174936,-0.144046 0.302271,-0.04858 0.661572,-0.09897 0.798446,-0.111975 0.510396,-0.04849 1.267247,0.09988 1.375915,0.269715 0.10757,0.168123 0.01019,0.410061 -0.178406,0.443289 -0.04556,0.008 -0.194513,-0.01467 -0.331018,-0.05043 -0.373141,-0.09775 -0.732265,-0.100648 -1.280795,-0.01034 -0.550063,0.09057 -1.615893,0.212831 -1.952297,0.223934 -0.265985,0.0088 -0.385906,-0.08001 -0.385906,-0.285725 z m 4.584141,0.480895 c -0.05119,-0.188849 0.06871,-0.353916 0.267957,-0.368893 0.261125,-0.01961 0.392692,0.30071 0.201875,0.491528 -0.0597,0.0597 -0.112978,0.07663 -0.213784,0.06795 -0.144262,-0.01241 -0.223802,-0.07163 -0.256048,-0.190588 z"
           id="path17" /></g><g
         id="g19"
         transform="translate(66.678663,-41.48329)"><path
           style="font-variation-settings:normal;opacity:1;vector-effect:none;fill:#ffffff;fill-opacity:1;stroke:none;stroke-width:0.325287;stroke-linecap:round;stroke-linejoin:round;stroke-miterlimit:4;stroke-dasharray:0.223743, 1.34246;stroke-dashoffset:0;stroke-opacity:1;-inkscape-stroke:none"
           d="m 47.530166,71.470419 c 3.048436,0.793787 6.096871,0.666518 9.145307,0.02331 1.0633,1.055052 2.813644,1.388707 2.80029,3.574246 l 0.598405,5.813091 c -1.148454,1.776178 -2.355821,3.972159 -4.086579,3.360894 -2.433391,-0.226393 -5.119531,-0.598119 -7.611942,0.06078 -2.2028,-0.227009 -3.516462,-1.501534 -3.862366,-3.046341 0,0 -0.8842,-6.875813 -0.297851,-6.960019 0.463008,-0.06649 3.123411,-3.338692 3.314736,-2.825964 z"
           id="path18"
           sodipodi:nodetypes="cccccccsc" /><path
           style="fill:#000000;stroke-width:0.126671"
           d="m 44.863754,82.872549 c -0.439285,-0.568735 -0.743522,-1.299227 -0.843159,-2.02448 -0.02403,-0.174934 -0.04115,-1.516896 -0.03805,-2.982134 0.006,-2.817549 0.01431,-2.945289 0.232885,-3.569552 0.515873,-1.473357 1.760357,-2.534337 3.314736,-2.825964 0.43308,-0.08126 1.030115,-0.07105 1.639121,0.028 1.058855,0.172249 1.726797,0.229726 2.74275,0.236023 1.102295,0.0068 1.863944,-0.05303 3.017329,-0.237153 1.091391,-0.17423 1.947257,-0.06469 2.803142,0.358746 0.471615,0.233331 0.70425,0.403155 1.11742,0.815706 0.513316,0.512551 0.782146,0.930162 1.026809,1.595072 0.224238,0.609406 0.234764,0.76677 0.240732,3.599073 0.0034,1.633637 -0.01331,2.800029 -0.0433,3.015181 -0.22138,1.588048 -1.358613,2.937457 -2.906061,3.448239 -0.714701,0.235909 -1.35621,0.27358 -2.239311,0.131503 -1.147387,-0.184594 -1.922926,-0.245856 -3.016228,-0.238257 -1.023517,0.0071 -1.69997,0.06571 -2.742285,0.237548 -0.868374,0.143162 -1.54618,0.102441 -2.259413,-0.135731 -0.796348,-0.265922 -1.536667,-0.790969 -2.047118,-1.451838 z m 1.556242,0.593939 c 0.573634,0.325331 1.32196,0.514249 1.952641,0.492952 0.159238,-0.0054 0.480409,-0.04232 0.713713,-0.08209 1.921382,-0.327553 3.969407,-0.331923 5.848991,-0.01249 0.869611,0.147792 1.435051,0.117628 2.099845,-0.11201 0.518851,-0.179227 0.856252,-0.381521 1.266908,-0.759595 0.645993,-0.594747 1.001213,-1.220803 1.169369,-2.060961 0.07013,-0.350377 0.07388,-5.479948 0.0043,-5.864318 -0.102069,-0.56376 -0.329683,-1.104285 -0.65327,-1.551335 -0.24096,-0.332903 -0.786633,-0.822305 -1.143065,-1.025193 -0.572005,-0.325598 -1.322461,-0.515045 -1.952655,-0.492937 -0.159454,0.0056 -0.517954,0.04787 -0.796666,0.09393 -1.911457,0.315954 -3.848939,0.315954 -5.760395,0 -0.278712,-0.04606 -0.637211,-0.08834 -0.796666,-0.09393 -0.630192,-0.0221 -1.380648,0.167339 -1.952654,0.492937 -0.356433,0.202888 -0.902105,0.69229 -1.143065,1.025193 -0.323477,0.446901 -0.551037,0.987192 -0.653355,1.551246 -0.06809,0.375389 -0.06561,5.512601 0.0028,5.854954 0.06312,0.315721 0.212304,0.755991 0.345889,1.020768 0.195207,0.386915 0.356057,0.593173 0.771839,0.98972 0.32539,0.310339 0.434614,0.396552 0.675477,0.533152 z m -0.306868,-3.192264 c 0.0047,-0.150102 0.144043,-0.283216 0.296499,-0.283216 0.252497,0 0.374098,0.310292 0.193682,0.494224 -0.170512,0.173838 -0.497797,0.03294 -0.490181,-0.211008 z m 2.095438,0.429898 c 0,-0.2556 0.307059,-0.382356 0.487976,-0.201439 0.183245,0.183245 0.05881,0.479358 -0.201437,0.479358 -0.165561,0 -0.286539,-0.117337 -0.286539,-0.277919 z m -1.256025,-3.768077 c 0,-0.2556 0.307058,-0.382357 0.487975,-0.20144 0.115568,0.115568 0.115568,0.287307 0,0.402876 -0.180917,0.180916 -0.487975,0.05416 -0.487975,-0.201436 z m 8.802088,5.554642 c -0.104952,-0.252999 0.187601,-0.506477 0.422339,-0.365932 0.09013,0.05397 0.164832,0.222977 0.13789,0.311963 -0.07694,0.254118 -0.461822,0.291195 -0.560229,0.05397 z M 55.104357,80.13238 c -0.0088,-0.03344 0.0028,-0.106092 0.02576,-0.16147 0.120035,-0.289793 0.528293,-0.223736 0.551824,0.08929 0.01923,0.255777 -0.304486,0.39505 -0.486655,0.209384 -0.04124,-0.04204 -0.08216,-0.103775 -0.09093,-0.137202 z m 2.431113,0.581494 c -0.541701,-1.737667 -0.541368,-3.733585 8.96e-4,-5.473115 0.05889,-0.188921 0.134405,-0.370819 0.167801,-0.404215 0.08371,-0.0837 0.318842,-0.07969 0.405459,0.0069 0.105996,0.106 0.106984,0.226554 0.0044,0.536621 -0.249711,0.754735 -0.374063,1.549435 -0.385673,2.464733 -0.01269,1.000421 0.105213,1.857203 0.368259,2.676049 0.06154,0.191573 0.104864,0.388198 0.09628,0.436942 -0.03902,0.221518 -0.325762,0.326162 -0.477616,0.174306 -0.04034,-0.04034 -0.119168,-0.223694 -0.179818,-0.418246 z m -4.697057,-7.522209 c 0,-0.237769 0.08014,-0.27217 0.779125,-0.334443 0.343944,-0.03064 0.872666,-0.09546 1.174936,-0.144046 0.302271,-0.04858 0.661572,-0.09897 0.798446,-0.111975 0.510396,-0.04849 1.267247,0.09988 1.375915,0.269715 0.10757,0.168123 0.01019,0.410061 -0.178406,0.443289 -0.04556,0.008 -0.194513,-0.01467 -0.331018,-0.05043 -0.373141,-0.09775 -0.732265,-0.100648 -1.280795,-0.01034 -0.550063,0.09057 -1.615893,0.212831 -1.952297,0.223934 -0.265985,0.0088 -0.385906,-0.08001 -0.385906,-0.285725 z m 4.584141,0.480895 c -0.05119,-0.188849 0.06871,-0.353916 0.267957,-0.368893 0.261125,-0.01961 0.392692,0.30071 0.201875,0.491528 -0.0597,0.0597 -0.112978,0.07663 -0.213784,0.06795 -0.144262,-0.01241 -0.223802,-0.07163 -0.256048,-0.190588 z"
           id="path19" /></g><g
         id="g21"
         transform="translate(97.218509,39.956299)"><path
           style="font-variation-settings:normal;opacity:1;vector-effect:none;fill:#ffffff;fill-opacity:1;stroke:none;stroke-width:0.325287;stroke-linecap:round;stroke-linejoin:round;stroke-miterlimit:4;stroke-dasharray:0.223743, 1.34246;stroke-dashoffset:0;stroke-opacity:1;-inkscape-stroke:none"
           d="m 47.530166,71.470419 c 3.048436,0.793787 6.096871,0.666518 9.145307,0.02331 1.0633,1.055052 2.813644,1.388707 2.80029,3.574246 l 0.598405,5.813091 c -1.148454,1.776178 -2.355821,3.972159 -4.086579,3.360894 -2.433391,-0.226393 -5.119531,-0.598119 -7.611942,0.06078 -2.2028,-0.227009 -3.516462,-1.501534 -3.862366,-3.046341 0,0 -0.8842,-6.875813 -0.297851,-6.960019 0.463008,-0.06649 3.123411,-3.338692 3.314736,-2.825964 z"
           id="path20"
           sodipodi:nodetypes="cccccccsc" /><path
           style="fill:#000000;stroke-width:0.126671"
           d="m 44.863754,82.872549 c -0.439285,-0.568735 -0.743522,-1.299227 -0.843159,-2.02448 -0.02403,-0.174934 -0.04115,-1.516896 -0.03805,-2.982134 0.006,-2.817549 0.01431,-2.945289 0.232885,-3.569552 0.515873,-1.473357 1.760357,-2.534337 3.314736,-2.825964 0.43308,-0.08126 1.030115,-0.07105 1.639121,0.028 1.058855,0.172249 1.726797,0.229726 2.74275,0.236023 1.102295,0.0068 1.863944,-0.05303 3.017329,-0.237153 1.091391,-0.17423 1.947257,-0.06469 2.803142,0.358746 0.471615,0.233331 0.70425,0.403155 1.11742,0.815706 0.513316,0.512551 0.782146,0.930162 1.026809,1.595072 0.224238,0.609406 0.234764,0.76677 0.240732,3.599073 0.0034,1.633637 -0.01331,2.800029 -0.0433,3.015181 -0.22138,1.588048 -1.358613,2.937457 -2.906061,3.448239 -0.714701,0.235909 -1.35621,0.27358 -2.239311,0.131503 -1.147387,-0.184594 -1.922926,-0.245856 -3.016228,-0.238257 -1.023517,0.0071 -1.69997,0.06571 -2.742285,0.237548 -0.868374,0.143162 -1.54618,0.102441 -2.259413,-0.135731 -0.796348,-0.265922 -1.536667,-0.790969 -2.047118,-1.451838 z m 1.556242,0.593939 c 0.573634,0.325331 1.32196,0.514249 1.952641,0.492952 0.159238,-0.0054 0.480409,-0.04232 0.713713,-0.08209 1.921382,-0.327553 3.969407,-0.331923 5.848991,-0.01249 0.869611,0.147792 1.435051,0.117628 2.099845,-0.11201 0.518851,-0.179227 0.856252,-0.381521 1.266908,-0.759595 0.645993,-0.594747 1.001213,-1.220803 1.169369,-2.060961 0.07013,-0.350377 0.07388,-5.479948 0.0043,-5.864318 -0.102069,-0.56376 -0.329683,-1.104285 -0.65327,-1.551335 -0.24096,-0.332903 -0.786633,-0.822305 -1.143065,-1.025193 -0.572005,-0.325598 -1.322461,-0.515045 -1.952655,-0.492937 -0.159454,0.0056 -0.517954,0.04787 -0.796666,0.09393 -1.911457,0.315954 -3.848939,0.315954 -5.760395,0 -0.278712,-0.04606 -0.637211,-0.08834 -0.796666,-0.09393 -0.630192,-0.0221 -1.380648,0.167339 -1.952654,0.492937 -0.356433,0.202888 -0.902105,0.69229 -1.143065,1.025193 -0.323477,0.446901 -0.551037,0.987192 -0.653355,1.551246 -0.06809,0.375389 -0.06561,5.512601 0.0028,5.854954 0.06312,0.315721 0.212304,0.755991 0.345889,1.020768 0.195207,0.386915 0.356057,0.593173 0.771839,0.98972 0.32539,0.310339 0.434614,0.396552 0.675477,0.533152 z m -0.306868,-3.192264 c 0.0047,-0.150102 0.144043,-0.283216 0.296499,-0.283216 0.252497,0 0.374098,0.310292 0.193682,0.494224 -0.170512,0.173838 -0.497797,0.03294 -0.490181,-0.211008 z m 2.095438,0.429898 c 0,-0.2556 0.307059,-0.382356 0.487976,-0.201439 0.183245,0.183245 0.05881,0.479358 -0.201437,0.479358 -0.165561,0 -0.286539,-0.117337 -0.286539,-0.277919 z m -1.256025,-3.768077 c 0,-0.2556 0.307058,-0.382357 0.487975,-0.20144 0.115568,0.115568 0.115568,0.287307 0,0.402876 -0.180917,0.180916 -0.487975,0.05416 -0.487975,-0.201436 z m 8.802088,5.554642 c -0.104952,-0.252999 0.187601,-0.506477 0.422339,-0.365932 0.09013,0.05397 0.164832,0.222977 0.13789,0.311963 -0.07694,0.254118 -0.461822,0.291195 -0.560229,0.05397 z M 55.104357,80.13238 c -0.0088,-0.03344 0.0028,-0.106092 0.02576,-0.16147 0.120035,-0.289793 0.528293,-0.223736 0.551824,0.08929 0.01923,0.255777 -0.304486,0.39505 -0.486655,0.209384 -0.04124,-0.04204 -0.08216,-0.103775 -0.09093,-0.137202 z m 2.431113,0.581494 c -0.541701,-1.737667 -0.541368,-3.733585 8.96e-4,-5.473115 0.05889,-0.188921 0.134405,-0.370819 0.167801,-0.404215 0.08371,-0.0837 0.318842,-0.07969 0.405459,0.0069 0.105996,0.106 0.106984,0.226554 0.0044,0.536621 -0.249711,0.754735 -0.374063,1.549435 -0.385673,2.464733 -0.01269,1.000421 0.105213,1.857203 0.368259,2.676049 0.06154,0.191573 0.104864,0.388198 0.09628,0.436942 -0.03902,0.221518 -0.325762,0.326162 -0.477616,0.174306 -0.04034,-0.04034 -0.119168,-0.223694 -0.179818,-0.418246 z m -4.697057,-7.522209 c 0,-0.237769 0.08014,-0.27217 0.779125,-0.334443 0.343944,-0.03064 0.872666,-0.09546 1.174936,-0.144046 0.302271,-0.04858 0.661572,-0.09897 0.798446,-0.111975 0.510396,-0.04849 1.267247,0.09988 1.375915,0.269715 0.10757,0.168123 0.01019,0.410061 -0.178406,0.443289 -0.04556,0.008 -0.194513,-0.01467 -0.331018,-0.05043 -0.373141,-0.09775 -0.732265,-0.100648 -1.280795,-0.01034 -0.550063,0.09057 -1.615893,0.212831 -1.952297,0.223934 -0.265985,0.0088 -0.385906,-0.08001 -0.385906,-0.285725 z m 4.584141,0.480895 c -0.05119,-0.188849 0.06871,-0.353916 0.267957,-0.368893 0.261125,-0.01961 0.392692,0.30071 0.201875,0.491528 -0.0597,0.0597 -0.112978,0.07663 -0.213784,0.06795 -0.144262,-0.01241 -0.223802,-0.07163 -0.256048,-0.190588 z"
           id="path21" /></g><g
         id="g23"
         transform="translate(67.951157,72.786633)"><path
           style="font-variation-settings:normal;opacity:1;vector-effect:none;fill:#ffffff;fill-opacity:1;stroke:none;stroke-width:0.325287;stroke-linecap:round;stroke-linejoin:round;stroke-miterlimit:4;stroke-dasharray:0.223743, 1.34246;stroke-dashoffset:0;stroke-opacity:1;-inkscape-stroke:none"
           d="m 47.530166,71.470419 c 3.048436,0.793787 6.096871,0.666518 9.145307,0.02331 1.0633,1.055052 2.813644,1.388707 2.80029,3.574246 l 0.598405,5.813091 c -1.148454,1.776178 -2.355821,3.972159 -4.086579,3.360894 -2.433391,-0.226393 -5.119531,-0.598119 -7.611942,0.06078 -2.2028,-0.227009 -3.516462,-1.501534 -3.862366,-3.046341 0,0 -0.8842,-6.875813 -0.297851,-6.960019 0.463008,-0.06649 3.123411,-3.338692 3.314736,-2.825964 z"
           id="path22"
           sodipodi:nodetypes="cccccccsc" /><path
           style="fill:#000000;stroke-width:0.126671"
           d="m 44.863754,82.872549 c -0.439285,-0.568735 -0.743522,-1.299227 -0.843159,-2.02448 -0.02403,-0.174934 -0.04115,-1.516896 -0.03805,-2.982134 0.006,-2.817549 0.01431,-2.945289 0.232885,-3.569552 0.515873,-1.473357 1.760357,-2.534337 3.314736,-2.825964 0.43308,-0.08126 1.030115,-0.07105 1.639121,0.028 1.058855,0.172249 1.726797,0.229726 2.74275,0.236023 1.102295,0.0068 1.863944,-0.05303 3.017329,-0.237153 1.091391,-0.17423 1.947257,-0.06469 2.803142,0.358746 0.471615,0.233331 0.70425,0.403155 1.11742,0.815706 0.513316,0.512551 0.782146,0.930162 1.026809,1.595072 0.224238,0.609406 0.234764,0.76677 0.240732,3.599073 0.0034,1.633637 -0.01331,2.800029 -0.0433,3.015181 -0.22138,1.588048 -1.358613,2.937457 -2.906061,3.448239 -0.714701,0.235909 -1.35621,0.27358 -2.239311,0.131503 -1.147387,-0.184594 -1.922926,-0.245856 -3.016228,-0.238257 -1.023517,0.0071 -1.69997,0.06571 -2.742285,0.237548 -0.868374,0.143162 -1.54618,0.102441 -2.259413,-0.135731 -0.796348,-0.265922 -1.536667,-0.790969 -2.047118,-1.451838 z m 1.556242,0.593939 c 0.573634,0.325331 1.32196,0.514249 1.952641,0.492952 0.159238,-0.0054 0.480409,-0.04232 0.713713,-0.08209 1.921382,-0.327553 3.969407,-0.331923 5.848991,-0.01249 0.869611,0.147792 1.435051,0.117628 2.099845,-0.11201 0.518851,-0.179227 0.856252,-0.381521 1.266908,-0.759595 0.645993,-0.594747 1.001213,-1.220803 1.169369,-2.060961 0.07013,-0.350377 0.07388,-5.479948 0.0043,-5.864318 -0.102069,-0.56376 -0.329683,-1.104285 -0.65327,-1.551335 -0.24096,-0.332903 -0.786633,-0.822305 -1.143065,-1.025193 -0.572005,-0.325598 -1.322461,-0.515045 -1.952655,-0.492937 -0.159454,0.0056 -0.517954,0.04787 -0.796666,0.09393 -1.911457,0.315954 -3.848939,0.315954 -5.760395,0 -0.278712,-0.04606 -0.637211,-0.08834 -0.796666,-0.09393 -0.630192,-0.0221 -1.380648,0.167339 -1.952654,0.492937 -0.356433,0.202888 -0.902105,0.69229 -1.143065,1.025193 -0.323477,0.446901 -0.551037,0.987192 -0.653355,1.551246 -0.06809,0.375389 -0.06561,5.512601 0.0028,5.854954 0.06312,0.315721 0.212304,0.755991 0.345889,1.020768 0.195207,0.386915 0.356057,0.593173 0.771839,0.98972 0.32539,0.310339 0.434614,0.396552 0.675477,0.533152 z m -0.306868,-3.192264 c 0.0047,-0.150102 0.144043,-0.283216 0.296499,-0.283216 0.252497,0 0.374098,0.310292 0.193682,0.494224 -0.170512,0.173838 -0.497797,0.03294 -0.490181,-0.211008 z m 2.095438,0.429898 c 0,-0.2556 0.307059,-0.382356 0.487976,-0.201439 0.183245,0.183245 0.05881,0.479358 -0.201437,0.479358 -0.165561,0 -0.286539,-0.117337 -0.286539,-0.277919 z m -1.256025,-3.768077 c 0,-0.2556 0.307058,-0.382357 0.487975,-0.20144 0.115568,0.115568 0.115568,0.287307 0,0.402876 -0.180917,0.180916 -0.487975,0.05416 -0.487975,-0.201436 z m 8.802088,5.554642 c -0.104952,-0.252999 0.187601,-0.506477 0.422339,-0.365932 0.09013,0.05397 0.164832,0.222977 0.13789,0.311963 -0.07694,0.254118 -0.461822,0.291195 -0.560229,0.05397 z M 55.104357,80.13238 c -0.0088,-0.03344 0.0028,-0.106092 0.02576,-0.16147 0.120035,-0.289793 0.528293,-0.223736 0.551824,0.08929 0.01923,0.255777 -0.304486,0.39505 -0.486655,0.209384 -0.04124,-0.04204 -0.08216,-0.103775 -0.09093,-0.137202 z m 2.431113,0.581494 c -0.541701,-1.737667 -0.541368,-3.733585 8.96e-4,-5.473115 0.05889,-0.188921 0.134405,-0.370819 0.167801,-0.404215 0.08371,-0.0837 0.318842,-0.07969 0.405459,0.0069 0.105996,0.106 0.106984,0.226554 0.0044,0.536621 -0.249711,0.754735 -0.374063,1.549435 -0.385673,2.464733 -0.01269,1.000421 0.105213,1.857203 0.368259,2.676049 0.06154,0.191573 0.104864,0.388198 0.09628,0.436942 -0.03902,0.221518 -0.325762,0.326162 -0.477616,0.174306 -0.04034,-0.04034 -0.119168,-0.223694 -0.179818,-0.418246 z m -4.697057,-7.522209 c 0,-0.237769 0.08014,-0.27217 0.779125,-0.334443 0.343944,-0.03064 0.872666,-0.09546 1.174936,-0.144046 0.302271,-0.04858 0.661572,-0.09897 0.798446,-0.111975 0.510396,-0.04849 1.267247,0.09988 1.375915,0.269715 0.10757,0.168123 0.01019,0.410061 -0.178406,0.443289 -0.04556,0.008 -0.194513,-0.01467 -0.331018,-0.05043 -0.373141,-0.09775 -0.732265,-0.100648 -1.280795,-0.01034 -0.550063,0.09057 -1.615893,0.212831 -1.952297,0.223934 -0.265985,0.0088 -0.385906,-0.08001 -0.385906,-0.285725 z m 4.584141,0.480895 c -0.05119,-0.188849 0.06871,-0.353916 0.267957,-0.368893 0.261125,-0.01961 0.392692,0.30071 0.201875,0.491528 -0.0597,0.0597 -0.112978,0.07663 -0.213784,0.06795 -0.144262,-0.01241 -0.223802,-0.07163 -0.256048,-0.190588 z"
           id="path23" /></g><g
         id="g25"
         transform="translate(5.3444732,72.277636)"><path
           style="font-variation-settings:normal;opacity:1;vector-effect:none;fill:#ffffff;fill-opacity:1;stroke:none;stroke-width:0.325287;stroke-linecap:round;stroke-linejoin:round;stroke-miterlimit:4;stroke-dasharray:0.223743, 1.34246;stroke-dashoffset:0;stroke-opacity:1;-inkscape-stroke:none"
           d="m 47.530166,71.470419 c 3.048436,0.793787 6.096871,0.666518 9.145307,0.02331 1.0633,1.055052 2.813644,1.388707 2.80029,3.574246 l 0.598405,5.813091 c -1.148454,1.776178 -2.355821,3.972159 -4.086579,3.360894 -2.433391,-0.226393 -5.119531,-0.598119 -7.611942,0.06078 -2.2028,-0.227009 -3.516462,-1.501534 -3.862366,-3.046341 0,0 -0.8842,-6.875813 -0.297851,-6.960019 0.463008,-0.06649 3.123411,-3.338692 3.314736,-2.825964 z"
           id="path24"
           sodipodi:nodetypes="cccccccsc" /><path
           style="fill:#000000;stroke-width:0.126671"
           d="m 44.863754,82.872549 c -0.439285,-0.568735 -0.743522,-1.299227 -0.843159,-2.02448 -0.02403,-0.174934 -0.04115,-1.516896 -0.03805,-2.982134 0.006,-2.817549 0.01431,-2.945289 0.232885,-3.569552 0.515873,-1.473357 1.760357,-2.534337 3.314736,-2.825964 0.43308,-0.08126 1.030115,-0.07105 1.639121,0.028 1.058855,0.172249 1.726797,0.229726 2.74275,0.236023 1.102295,0.0068 1.863944,-0.05303 3.017329,-0.237153 1.091391,-0.17423 1.947257,-0.06469 2.803142,0.358746 0.471615,0.233331 0.70425,0.403155 1.11742,0.815706 0.513316,0.512551 0.782146,0.930162 1.026809,1.595072 0.224238,0.609406 0.234764,0.76677 0.240732,3.599073 0.0034,1.633637 -0.01331,2.800029 -0.0433,3.015181 -0.22138,1.588048 -1.358613,2.937457 -2.906061,3.448239 -0.714701,0.235909 -1.35621,0.27358 -2.239311,0.131503 -1.147387,-0.184594 -1.922926,-0.245856 -3.016228,-0.238257 -1.023517,0.0071 -1.69997,0.06571 -2.742285,0.237548 -0.868374,0.143162 -1.54618,0.102441 -2.259413,-0.135731 -0.796348,-0.265922 -1.536667,-0.790969 -2.047118,-1.451838 z m 1.556242,0.593939 c 0.573634,0.325331 1.32196,0.514249 1.952641,0.492952 0.159238,-0.0054 0.480409,-0.04232 0.713713,-0.08209 1.921382,-0.327553 3.969407,-0.331923 5.848991,-0.01249 0.869611,0.147792 1.435051,0.117628 2.099845,-0.11201 0.518851,-0.179227 0.856252,-0.381521 1.266908,-0.759595 0.645993,-0.594747 1.001213,-1.220803 1.169369,-2.060961 0.07013,-0.350377 0.07388,-5.479948 0.0043,-5.864318 -0.102069,-0.56376 -0.329683,-1.104285 -0.65327,-1.551335 -0.24096,-0.332903 -0.786633,-0.822305 -1.143065,-1.025193 -0.572005,-0.325598 -1.322461,-0.515045 -1.952655,-0.492937 -0.159454,0.0056 -0.517954,0.04787 -0.796666,0.09393 -1.911457,0.315954 -3.848939,0.315954 -5.760395,0 -0.278712,-0.04606 -0.637211,-0.08834 -0.796666,-0.09393 -0.630192,-0.0221 -1.380648,0.167339 -1.952654,0.492937 -0.356433,0.202888 -0.902105,0.69229 -1.143065,1.025193 -0.323477,0.446901 -0.551037,0.987192 -0.653355,1.551246 -0.06809,0.375389 -0.06561,5.512601 0.0028,5.854954 0.06312,0.315721 0.212304,0.755991 0.345889,1.020768 0.195207,0.386915 0.356057,0.593173 0.771839,0.98972 0.32539,0.310339 0.434614,0.396552 0.675477,0.533152 z m -0.306868,-3.192264 c 0.0047,-0.150102 0.144043,-0.283216 0.296499,-0.283216 0.252497,0 0.374098,0.310292 0.193682,0.494224 -0.170512,0.173838 -0.497797,0.03294 -0.490181,-0.211008 z m 2.095438,0.429898 c 0,-0.2556 0.307059,-0.382356 0.487976,-0.201439 0.183245,0.183245 0.05881,0.479358 -0.201437,0.479358 -0.165561,0 -0.286539,-0.117337 -0.286539,-0.277919 z m -1.256025,-3.768077 c 0,-0.2556 0.307058,-0.382357 0.487975,-0.20144 0.115568,0.115568 0.115568,0.287307 0,0.402876 -0.180917,0.180916 -0.487975,0.05416 -0.487975,-0.201436 z m 8.802088,5.554642 c -0.104952,-0.252999 0.187601,-0.506477 0.422339,-0.365932 0.09013,0.05397 0.164832,0.222977 0.13789,0.311963 -0.07694,0.254118 -0.461822,0.291195 -0.560229,0.05397 z M 55.104357,80.13238 c -0.0088,-0.03344 0.0028,-0.106092 0.02576,-0.16147 0.120035,-0.289793 0.528293,-0.223736 0.551824,0.08929 0.01923,0.255777 -0.304486,0.39505 -0.486655,0.209384 -0.04124,-0.04204 -0.08216,-0.103775 -0.09093,-0.137202 z m 2.431113,0.581494 c -0.541701,-1.737667 -0.541368,-3.733585 8.96e-4,-5.473115 0.05889,-0.188921 0.134405,-0.370819 0.167801,-0.404215 0.08371,-0.0837 0.318842,-0.07969 0.405459,0.0069 0.105996,0.106 0.106984,0.226554 0.0044,0.536621 -0.249711,0.754735 -0.374063,1.549435 -0.385673,2.464733 -0.01269,1.000421 0.105213,1.857203 0.368259,2.676049 0.06154,0.191573 0.104864,0.388198 0.09628,0.436942 -0.03902,0.221518 -0.325762,0.326162 -0.477616,0.174306 -0.04034,-0.04034 -0.119168,-0.223694 -0.179818,-0.418246 z m -4.697057,-7.522209 c 0,-0.237769 0.08014,-0.27217 0.779125,-0.334443 0.343944,-0.03064 0.872666,-0.09546 1.174936,-0.144046 0.302271,-0.04858 0.661572,-0.09897 0.798446,-0.111975 0.510396,-0.04849 1.267247,0.09988 1.375915,0.269715 0.10757,0.168123 0.01019,0.410061 -0.178406,0.443289 -0.04556,0.008 -0.194513,-0.01467 -0.331018,-0.05043 -0.373141,-0.09775 -0.732265,-0.100648 -1.280795,-0.01034 -0.550063,0.09057 -1.615893,0.212831 -1.952297,0.223934 -0.265985,0.0088 -0.385906,-0.08001 -0.385906,-0.285725 z m 4.584141,0.480895 c -0.05119,-0.188849 0.06871,-0.353916 0.267957,-0.368893 0.261125,-0.01961 0.392692,0.30071 0.201875,0.491528 -0.0597,0.0597 -0.112978,0.07663 -0.213784,0.06795 -0.144262,-0.01241 -0.223802,-0.07163 -0.256048,-0.190588 z"
           id="path25" /></g><g
         id="g27"
         transform="translate(-23.922879,41.73779)"><path
           style="font-variation-settings:normal;opacity:1;vector-effect:none;fill:#ffffff;fill-opacity:1;stroke:none;stroke-width:0.325287;stroke-linecap:round;stroke-linejoin:round;stroke-miterlimit:4;stroke-dasharray:0.223743, 1.34246;stroke-dashoffset:0;stroke-opacity:1;-inkscape-stroke:none"
           d="m 47.530166,71.470419 c 3.048436,0.793787 6.096871,0.666518 9.145307,0.02331 1.0633,1.055052 2.813644,1.388707 2.80029,3.574246 l 0.598405,5.813091 c -1.148454,1.776178 -2.355821,3.972159 -4.086579,3.360894 -2.433391,-0.226393 -5.119531,-0.598119 -7.611942,0.06078 -2.2028,-0.227009 -3.516462,-1.501534 -3.862366,-3.046341 0,0 -0.8842,-6.875813 -0.297851,-6.960019 0.463008,-0.06649 3.123411,-3.338692 3.314736,-2.825964 z"
           id="path26"
           sodipodi:nodetypes="cccccccsc" /><path
           style="fill:#000000;stroke-width:0.126671"
           d="m 44.863754,82.872549 c -0.439285,-0.568735 -0.743522,-1.299227 -0.843159,-2.02448 -0.02403,-0.174934 -0.04115,-1.516896 -0.03805,-2.982134 0.006,-2.817549 0.01431,-2.945289 0.232885,-3.569552 0.515873,-1.473357 1.760357,-2.534337 3.314736,-2.825964 0.43308,-0.08126 1.030115,-0.07105 1.639121,0.028 1.058855,0.172249 1.726797,0.229726 2.74275,0.236023 1.102295,0.0068 1.863944,-0.05303 3.017329,-0.237153 1.091391,-0.17423 1.947257,-0.06469 2.803142,0.358746 0.471615,0.233331 0.70425,0.403155 1.11742,0.815706 0.513316,0.512551 0.782146,0.930162 1.026809,1.595072 0.224238,0.609406 0.234764,0.76677 0.240732,3.599073 0.0034,1.633637 -0.01331,2.800029 -0.0433,3.015181 -0.22138,1.588048 -1.358613,2.937457 -2.906061,3.448239 -0.714701,0.235909 -1.35621,0.27358 -2.239311,0.131503 -1.147387,-0.184594 -1.922926,-0.245856 -3.016228,-0.238257 -1.023517,0.0071 -1.69997,0.06571 -2.742285,0.237548 -0.868374,0.143162 -1.54618,0.102441 -2.259413,-0.135731 -0.796348,-0.265922 -1.536667,-0.790969 -2.047118,-1.451838 z m 1.556242,0.593939 c 0.573634,0.325331 1.32196,0.514249 1.952641,0.492952 0.159238,-0.0054 0.480409,-0.04232 0.713713,-0.08209 1.921382,-0.327553 3.969407,-0.331923 5.848991,-0.01249 0.869611,0.147792 1.435051,0.117628 2.099845,-0.11201 0.518851,-0.179227 0.856252,-0.381521 1.266908,-0.759595 0.645993,-0.594747 1.001213,-1.220803 1.169369,-2.060961 0.07013,-0.350377 0.07388,-5.479948 0.0043,-5.864318 -0.102069,-0.56376 -0.329683,-1.104285 -0.65327,-1.551335 -0.24096,-0.332903 -0.786633,-0.822305 -1.143065,-1.025193 -0.572005,-0.325598 -1.322461,-0.515045 -1.952655,-0.492937 -0.159454,0.0056 -0.517954,0.04787 -0.796666,0.09393 -1.911457,0.315954 -3.848939,0.315954 -5.760395,0 -0.278712,-0.04606 -0.637211,-0.08834 -0.796666,-0.09393 -0.630192,-0.0221 -1.380648,0.167339 -1.952654,0.492937 -0.356433,0.202888 -0.902105,0.69229 -1.143065,1.025193 -0.323477,0.446901 -0.551037,0.987192 -0.653355,1.551246 -0.06809,0.375389 -0.06561,5.512601 0.0028,5.854954 0.06312,0.315721 0.212304,0.755991 0.345889,1.020768 0.195207,0.386915 0.356057,0.593173 0.771839,0.98972 0.32539,0.310339 0.434614,0.396552 0.675477,0.533152 z m -0.306868,-3.192264 c 0.0047,-0.150102 0.144043,-0.283216 0.296499,-0.283216 0.252497,0 0.374098,0.310292 0.193682,0.494224 -0.170512,0.173838 -0.497797,0.03294 -0.490181,-0.211008 z m 2.095438,0.429898 c 0,-0.2556 0.307059,-0.382356 0.487976,-0.201439 0.183245,0.183245 0.05881,0.479358 -0.201437,0.479358 -0.165561,0 -0.286539,-0.117337 -0.286539,-0.277919 z m -1.256025,-3.768077 c 0,-0.2556 0.307058,-0.382357 0.487975,-0.20144 0.115568,0.115568 0.115568,0.287307 0,0.402876 -0.180917,0.180916 -0.487975,0.05416 -0.487975,-0.201436 z m 8.802088,5.554642 c -0.104952,-0.252999 0.187601,-0.506477 0.422339,-0.365932 0.09013,0.05397 0.164832,0.222977 0.13789,0.311963 -0.07694,0.254118 -0.461822,0.291195 -0.560229,0.05397 z M 55.104357,80.13238 c -0.0088,-0.03344 0.0028,-0.106092 0.02576,-0.16147 0.120035,-0.289793 0.528293,-0.223736 0.551824,0.08929 0.01923,0.255777 -0.304486,0.39505 -0.486655,0.209384 -0.04124,-0.04204 -0.08216,-0.103775 -0.09093,-0.137202 z m 2.431113,0.581494 c -0.541701,-1.737667 -0.541368,-3.733585 8.96e-4,-5.473115 0.05889,-0.188921 0.134405,-0.370819 0.167801,-0.404215 0.08371,-0.0837 0.318842,-0.07969 0.405459,0.0069 0.105996,0.106 0.106984,0.226554 0.0044,0.536621 -0.249711,0.754735 -0.374063,1.549435 -0.385673,2.464733 -0.01269,1.000421 0.105213,1.857203 0.368259,2.676049 0.06154,0.191573 0.104864,0.388198 0.09628,0.436942 -0.03902,0.221518 -0.325762,0.326162 -0.477616,0.174306 -0.04034,-0.04034 -0.119168,-0.223694 -0.179818,-0.418246 z m -4.697057,-7.522209 c 0,-0.237769 0.08014,-0.27217 0.779125,-0.334443 0.343944,-0.03064 0.872666,-0.09546 1.174936,-0.144046 0.302271,-0.04858 0.661572,-0.09897 0.798446,-0.111975 0.510396,-0.04849 1.267247,0.09988 1.375915,0.269715 0.10757,0.168123 0.01019,0.410061 -0.178406,0.443289 -0.04556,0.008 -0.194513,-0.01467 -0.331018,-0.05043 -0.373141,-0.09775 -0.732265,-0.100648 -1.280795,-0.01034 -0.550063,0.09057 -1.615893,0.212831 -1.952297,0.223934 -0.265985,0.0088 -0.385906,-0.08001 -0.385906,-0.285725 z m 4.584141,0.480895 c -0.05119,-0.188849 0.06871,-0.353916 0.267957,-0.368893 0.261125,-0.01961 0.392692,0.30071 0.201875,0.491528 -0.0597,0.0597 -0.112978,0.07663 -0.213784,0.06795 -0.144262,-0.01241 -0.223802,-0.07163 -0.256048,-0.190588 z"
           id="path27" /></g><g
         id="g13"
         transform="translate(6.1079692,-39.956298)"><path
           style="font-variation-settings:normal;opacity:1;vector-effect:none;fill:#ffffff;fill-opacity:1;stroke:none;stroke-width:0.325287;stroke-linecap:round;stroke-linejoin:round;stroke-miterlimit:4;stroke-dasharray:0.223743, 1.34246;stroke-dashoffset:0;stroke-opacity:1;-inkscape-stroke:none"
           d="m 47.530166,71.470419 c 3.048436,0.793787 6.096871,0.666518 9.145307,0.02331 1.0633,1.055052 2.813644,1.388707 2.80029,3.574246 l 0.598405,5.813091 c -1.148454,1.776178 -2.355821,3.972159 -4.086579,3.360894 -2.433391,-0.226393 -5.119531,-0.598119 -7.611942,0.06078 -2.2028,-0.227009 -3.516462,-1.501534 -3.862366,-3.046341 0,0 -0.8842,-6.875813 -0.297851,-6.960019 0.463008,-0.06649 3.123411,-3.338692 3.314736,-2.825964 z"
           id="path13"
           sodipodi:nodetypes="cccccccsc" /><path
           style="fill:#000000;stroke-width:0.126671"
           d="m 44.863754,82.872549 c -0.439285,-0.568735 -0.743522,-1.299227 -0.843159,-2.02448 -0.02403,-0.174934 -0.04115,-1.516896 -0.03805,-2.982134 0.006,-2.817549 0.01431,-2.945289 0.232885,-3.569552 0.515873,-1.473357 1.760357,-2.534337 3.314736,-2.825964 0.43308,-0.08126 1.030115,-0.07105 1.639121,0.028 1.058855,0.172249 1.726797,0.229726 2.74275,0.236023 1.102295,0.0068 1.863944,-0.05303 3.017329,-0.237153 1.091391,-0.17423 1.947257,-0.06469 2.803142,0.358746 0.471615,0.233331 0.70425,0.403155 1.11742,0.815706 0.513316,0.512551 0.782146,0.930162 1.026809,1.595072 0.224238,0.609406 0.234764,0.76677 0.240732,3.599073 0.0034,1.633637 -0.01331,2.800029 -0.0433,3.015181 -0.22138,1.588048 -1.358613,2.937457 -2.906061,3.448239 -0.714701,0.235909 -1.35621,0.27358 -2.239311,0.131503 -1.147387,-0.184594 -1.922926,-0.245856 -3.016228,-0.238257 -1.023517,0.0071 -1.69997,0.06571 -2.742285,0.237548 -0.868374,0.143162 -1.54618,0.102441 -2.259413,-0.135731 -0.796348,-0.265922 -1.536667,-0.790969 -2.047118,-1.451838 z m 1.556242,0.593939 c 0.573634,0.325331 1.32196,0.514249 1.952641,0.492952 0.159238,-0.0054 0.480409,-0.04232 0.713713,-0.08209 1.921382,-0.327553 3.969407,-0.331923 5.848991,-0.01249 0.869611,0.147792 1.435051,0.117628 2.099845,-0.11201 0.518851,-0.179227 0.856252,-0.381521 1.266908,-0.759595 0.645993,-0.594747 1.001213,-1.220803 1.169369,-2.060961 0.07013,-0.350377 0.07388,-5.479948 0.0043,-5.864318 -0.102069,-0.56376 -0.329683,-1.104285 -0.65327,-1.551335 -0.24096,-0.332903 -0.786633,-0.822305 -1.143065,-1.025193 -0.572005,-0.325598 -1.322461,-0.515045 -1.952655,-0.492937 -0.159454,0.0056 -0.517954,0.04787 -0.796666,0.09393 -1.911457,0.315954 -3.848939,0.315954 -5.760395,0 -0.278712,-0.04606 -0.637211,-0.08834 -0.796666,-0.09393 -0.630192,-0.0221 -1.380648,0.167339 -1.952654,0.492937 -0.356433,0.202888 -0.902105,0.69229 -1.143065,1.025193 -0.323477,0.446901 -0.551037,0.987192 -0.653355,1.551246 -0.06809,0.375389 -0.06561,5.512601 0.0028,5.854954 0.06312,0.315721 0.212304,0.755991 0.345889,1.020768 0.195207,0.386915 0.356057,0.593173 0.771839,0.98972 0.32539,0.310339 0.434614,0.396552 0.675477,0.533152 z m -0.306868,-3.192264 c 0.0047,-0.150102 0.144043,-0.283216 0.296499,-0.283216 0.252497,0 0.374098,0.310292 0.193682,0.494224 -0.170512,0.173838 -0.497797,0.03294 -0.490181,-0.211008 z m 2.095438,0.429898 c 0,-0.2556 0.307059,-0.382356 0.487976,-0.201439 0.183245,0.183245 0.05881,0.479358 -0.201437,0.479358 -0.165561,0 -0.286539,-0.117337 -0.286539,-0.277919 z m -1.256025,-3.768077 c 0,-0.2556 0.307058,-0.382357 0.487975,-0.20144 0.115568,0.115568 0.115568,0.287307 0,0.402876 -0.180917,0.180916 -0.487975,0.05416 -0.487975,-0.201436 z m 8.802088,5.554642 c -0.104952,-0.252999 0.187601,-0.506477 0.422339,-0.365932 0.09013,0.05397 0.164832,0.222977 0.13789,0.311963 -0.07694,0.254118 -0.461822,0.291195 -0.560229,0.05397 z M 55.104357,80.13238 c -0.0088,-0.03344 0.0028,-0.106092 0.02576,-0.16147 0.120035,-0.289793 0.528293,-0.223736 0.551824,0.08929 0.01923,0.255777 -0.304486,0.39505 -0.486655,0.209384 -0.04124,-0.04204 -0.08216,-0.103775 -0.09093,-0.137202 z m 2.431113,0.581494 c -0.541701,-1.737667 -0.541368,-3.733585 8.96e-4,-5.473115 0.05889,-0.188921 0.134405,-0.370819 0.167801,-0.404215 0.08371,-0.0837 0.318842,-0.07969 0.405459,0.0069 0.105996,0.106 0.106984,0.226554 0.0044,0.536621 -0.249711,0.754735 -0.374063,1.549435 -0.385673,2.464733 -0.01269,1.000421 0.105213,1.857203 0.368259,2.676049 0.06154,0.191573 0.104864,0.388198 0.09628,0.436942 -0.03902,0.221518 -0.325762,0.326162 -0.477616,0.174306 -0.04034,-0.04034 -0.119168,-0.223694 -0.179818,-0.418246 z m -4.697057,-7.522209 c 0,-0.237769 0.08014,-0.27217 0.779125,-0.334443 0.343944,-0.03064 0.872666,-0.09546 1.174936,-0.144046 0.302271,-0.04858 0.661572,-0.09897 0.798446,-0.111975 0.510396,-0.04849 1.267247,0.09988 1.375915,0.269715 0.10757,0.168123 0.01019,0.410061 -0.178406,0.443289 -0.04556,0.008 -0.194513,-0.01467 -0.331018,-0.05043 -0.373141,-0.09775 -0.732265,-0.100648 -1.280795,-0.01034 -0.550063,0.09057 -1.615893,0.212831 -1.952297,0.223934 -0.265985,0.0088 -0.385906,-0.08001 -0.385906,-0.285725 z m 4.584141,0.480895 c -0.05119,-0.188849 0.06871,-0.353916 0.267957,-0.368893 0.261125,-0.01961 0.392692,0.30071 0.201875,0.491528 -0.0597,0.0597 -0.112978,0.07663 -0.213784,0.06795 -0.144262,-0.01241 -0.223802,-0.07163 -0.256048,-0.190588 z"
           id="path1-6" /></g></g></g></svg>
