<svg xmlns="http://www.w3.org/2000/svg" xmlns:xlink="http://www.w3.org/1999/xlink" viewBox="0 0 283.46 498.9" version="1.1">
  <defs>
    <style>
      .cls-1, .cls-2 {
        fill: none;
      }

      .cls-3, .cls-4 {
        fill: #33435a;
      }

      .cls-2 {
        stroke: #f1f2f2;
      }

      .cls-2, .cls-5 {
        stroke-miterlimit: 10;
      }

      .cls-5 {
        stroke: #010101;
        stroke-width: .5px;
      }

      .cls-5, .cls-6 {
        fill: #fff;
      }

      .cls-7 {
        fill: #fff7ee;
      }

      .cls-4 {
        fill-rule: evenodd;
      }

      .cls-8 {
        fill: #33455b;
      }

      .cls-9 {
        clip-path: url(#clippath);
      }
    </style>
    <clipPath id="clippath">
      <rect class="cls-1" x="261.99" y="82.2" width="12.25" height="54.36"/>
    </clipPath>
  </defs>
  <g id="Guides">
    <rect class="cls-2" x="-1893.58" y="-279.91" width="2470.77" height="1868.07"/>
  </g>
  <g id="BG">
    <rect class="cls-6" x="0" y=".09" width="283.46" height="498.71"/>
    <rect class="cls-7" x="-107.62" y="107.72" width="498.71" height="283.46" transform="translate(391.18 107.72) rotate(90)"/>
  </g>
  <g id="Icons">
    <g>
      <path class="cls-3" d="M53.9,419.42h-28.43c-1.54,0-2.8-1.25-2.8-2.8v-17.06c0-1.54,1.25-2.8,2.8-2.8h28.43c1.54,0,2.8,1.25,2.8,2.8v17.06c0,1.54-1.25,2.8-2.8,2.8ZM25.47,398.1c-.81,0-1.47.66-1.47,1.47v17.06c0,.81.66,1.47,1.47,1.47h28.43c.81,0,1.47-.66,1.47-1.47v-17.06c0-.81-.66-1.47-1.47-1.47h-28.43Z"/>
      <path class="cls-3" d="M39.28,416.06v-1.58c-1.08-.09-1.93-.46-2.54-1.08-.63-.65-.95-1.55-.95-2.68v-.14h1.28v.14c0,.82.24,1.47.71,1.93.47.46,1.15.7,2.01.7.75,0,1.36-.2,1.83-.6.47-.4.69-.9.69-1.54,0-.57-.19-1.04-.56-1.4-.38-.37-1.07-.74-2.06-1.08-1.26-.4-2.17-.88-2.69-1.44-.53-.56-.79-1.3-.79-2.19,0-.94.29-1.71.87-2.29.55-.56,1.29-.89,2.22-.99v-1.69h1.13v1.69c.95.11,1.7.49,2.23,1.13.55.66.83,1.57.83,2.7v.14h-1.27v-.14c0-.83-.22-1.5-.64-1.98-.42-.48-1.01-.72-1.74-.72s-1.33.2-1.74.58c-.41.39-.62.89-.62,1.55s.18,1.11.56,1.46c.39.36,1.06.7,2.01,1.03.99.34,1.7.65,2.15.96.46.31.8.69,1.03,1.12.23.43.34.95.34,1.55,0,.94-.3,1.71-.89,2.3-.56.55-1.33.88-2.29.98v1.59h-1.12Z"/>
    </g>
    <g>
      <path class="cls-3" d="M29.24,365.81h2.02v2.02h-2.02v-2.02Z"/>
      <path class="cls-4" d="M42.32,340.12h13.71c.37,0,.66.3.66.66v13.71c0,.37-.3.66-.66.66h-13.71c-.37,0-.66-.3-.66-.66v-13.71c0-.37.3-.66.66-.66ZM55.36,353.82v-12.38h-12.38v12.38h12.38Z"/>
      <path class="cls-3" d="M48.22,346.83h2.02v2.02h-2.02v-2.02Z"/>
      <path class="cls-4" d="M23.34,340.12h13.71c.37,0,.66.3.66.66v13.71c0,.37-.3.66-.66.66h-13.71c-.37,0-.66-.3-.66-.66v-13.71c0-.37.3-.66.66-.66ZM36.38,353.82v-12.38h-12.38v12.38h12.38Z"/>
      <path class="cls-3" d="M29.24,346.83h2.02v2.02h-2.02v-2.02Z"/>
      <path class="cls-4" d="M23.34,359.1h13.71c.37,0,.66.3.66.66v13.71c0,.37-.3.66-.66.66h-13.71c-.37,0-.66-.3-.66-.66v-13.71c0-.37.3-.66.66-.66ZM36.38,372.8v-12.38h-12.38v12.38h12.38Z"/>
      <path class="cls-3" d="M48.65,371.89h2.11v2.11h-2.11v-2.11Z"/>
      <path class="cls-3" d="M54.45,371.89h2.11v2.11h-2.11v-2.11Z"/>
      <path class="cls-3" d="M49.05,359.1c.33,0,.6.24.66.56v.11s0,6.78,0,6.78h5.65v-6.78c0-.33.24-.6.56-.66h.11c.33,0,.6.23.66.55v.11s0,7.45,0,7.45c0,.33-.24.6-.56.66h-.11s-6.98,0-6.98,0c-.33,0-.6-.24-.66-.56v-.11s0-6.78,0-6.78h-5.4v13.04c0,.33-.24.6-.56.66h-.11c-.33,0-.6-.23-.66-.55v-.11s0-13.71,0-13.71c0-.33.24-.6.56-.66h.11s6.73,0,6.73,0Z"/>
    </g>
    <g>
      <path class="cls-4" d="M39.69,443.53c-8.61,0-15.59,6.98-15.59,15.59s6.98,15.59,15.59,15.59,15.59-6.98,15.59-15.59-6.98-15.59-15.59-15.59ZM22.68,459.12c0-9.39,7.61-17.01,17.01-17.01s17.01,7.61,17.01,17.01-7.61,17.01-17.01,17.01-17.01-7.61-17.01-17.01Z"/>
      <path class="cls-4" d="M46.51,454.73c.28.27.3.72.03,1l-8.52,8.98-4.33-4.56c-.27-.28-.26-.73.03-1,.28-.27.73-.26,1,.03l3.3,3.48,7.49-7.9c.27-.28.72-.3,1-.03Z"/>
    </g>
  </g>
  <g id="QR_Border" data-name="QR Border">
    <path class="cls-5" d="M34.01,22.78h215.44c6.26,0,11.33,5.07,11.33,11.33v215.43c0,6.26-5.07,11.33-11.33,11.33H34.01c-6.26,0-11.33-5.07-11.33-11.33V34.12c0-6.26,5.07-11.33,11.33-11.33Z" shape-rendering="crispEdges"/>
  <svg height="250" width="250" viewBox="0 0 43 43" role="img" x="17" y="17"><path fill="#000000" d="M3 3h7v1H3zM11 3h1v1H11zM13 3h3v1H13zM18 3h3v1H18zM22 3h3v1H22zM26 3h1v1H26zM28 3h2v1H28zM31 3h1v1H31zM33,3 h7v1H33zM3 4h1v1H3zM9 4h1v1H9zM13 4h3v1H13zM17 4h8v1H17zM27 4h1v1H27zM29 4h3v1H29zM33 4h1v1H33zM39,4 h1v1H39zM3 5h1v1H3zM5 5h3v1H5zM9 5h1v1H9zM13 5h2v1H13zM16 5h1v1H16zM18 5h2v1H18zM22 5h4v1H22zM31 5h1v1H31zM33 5h1v1H33zM35 5h3v1H35zM39,5 h1v1H39zM3 6h1v1H3zM5 6h3v1H5zM9 6h1v1H9zM12 6h2v1H12zM15 6h2v1H15zM19 6h4v1H19zM25 6h1v1H25zM28 6h2v1H28zM33 6h1v1H33zM35 6h3v1H35zM39,6 h1v1H39zM3 7h1v1H3zM5 7h3v1H5zM9 7h1v1H9zM11 7h2v1H11zM16 7h1v1H16zM20 7h4v1H20zM25 7h2v1H25zM29 7h1v1H29zM33 7h1v1H33zM35 7h3v1H35zM39,7 h1v1H39zM3 8h1v1H3zM9 8h1v1H9zM11 8h1v1H11zM15 8h3v1H15zM20 8h1v1H20zM25 8h1v1H25zM28 8h1v1H28zM30 8h2v1H30zM33 8h1v1H33zM39,8 h1v1H39zM3 9h7v1H3zM11 9h1v1H11zM13 9h1v1H13zM15 9h1v1H15zM17 9h1v1H17zM19 9h1v1H19zM21 9h1v1H21zM23 9h1v1H23zM25 9h1v1H25zM27 9h1v1H27zM29 9h1v1H29zM31 9h1v1H31zM33,9 h7v1H33zM13 10h2v1H13zM19 10h1v1H19zM22 10h6v1H22zM31 10h1v1H31zM4 11h7v1H4zM12 11h1v1H12zM15 11h1v1H15zM17 11h4v1H17zM22 11h2v1H22zM25 11h1v1H25zM27 11h2v1H27zM31 11h1v1H31zM34 11h2v1H34zM39,11 h1v1H39zM3 12h2v1H3zM6 12h1v1H6zM10 12h2v1H10zM13 12h4v1H13zM18 12h1v1H18zM22 12h1v1H22zM24 12h5v1H24zM31 12h1v1H31zM34 12h1v1H34zM36 12h1v1H36zM3 13h1v1H3zM5 13h2v1H5zM9 13h1v1H9zM11 13h1v1H11zM14 13h4v1H14zM19 13h1v1H19zM21 13h1v1H21zM23 13h1v1H23zM28 13h4v1H28zM33 13h2v1H33zM38,13 h2v1H38zM7 14h2v1H7zM10 14h1v1H10zM12 14h2v1H12zM15 14h1v1H15zM17 14h4v1H17zM23 14h4v1H23zM29 14h2v1H29zM33 14h2v1H33zM3 15h3v1H3zM7 15h1v1H7zM9 15h1v1H9zM11 15h1v1H11zM19 15h1v1H19zM21 15h1v1H21zM23 15h1v1H23zM26 15h5v1H26zM32 15h2v1H32zM35 15h3v1H35zM4 16h4v1H4zM10 16h1v1H10zM12 16h1v1H12zM14 16h1v1H14zM16 16h2v1H16zM20 16h1v1H20zM22 16h1v1H22zM24 16h1v1H24zM26 16h1v1H26zM31 16h2v1H31zM34 16h1v1H34zM36 16h3v1H36zM3 17h1v1H3zM6 17h4v1H6zM11 17h1v1H11zM13 17h7v1H13zM22 17h1v1H22zM24 17h2v1H24zM27 17h5v1H27zM33 17h4v1H33zM38,17 h2v1H38zM4 18h1v1H4zM6 18h1v1H6zM10 18h1v1H10zM12 18h1v1H12zM15 18h1v1H15zM21 18h2v1H21zM24 18h3v1H24zM29 18h2v1H29zM32 18h1v1H32zM34 18h2v1H34zM5 19h1v1H5zM9 19h1v1H9zM11 19h1v1H11zM15 19h1v1H15zM17 19h1v1H17zM19 19h1v1H19zM23 19h2v1H23zM26 19h3v1H26zM30 19h1v1H30zM32 19h4v1H32zM37 19h2v1H37zM4 20h5v1H4zM10 20h1v1H10zM12 20h1v1H12zM15 20h1v1H15zM19 20h4v1H19zM24 20h1v1H24zM26 20h1v1H26zM28 20h1v1H28zM31 20h1v1H31zM34 20h1v1H34zM36 20h1v1H36zM3 21h1v1H3zM9 21h1v1H9zM11 21h5v1H11zM17 21h1v1H17zM19 21h1v1H19zM22 21h4v1H22zM30 21h1v1H30zM33 21h2v1H33zM36,21 h4v1H36zM7 22h1v1H7zM10 22h1v1H10zM12 22h1v1H12zM14 22h1v1H14zM16 22h9v1H16zM26 22h1v1H26zM29 22h1v1H29zM31 22h3v1H31zM35 22h1v1H35zM3 23h2v1H3zM6 23h2v1H6zM9 23h1v1H9zM15 23h2v1H15zM18 23h2v1H18zM25 23h5v1H25zM32 23h6v1H32zM3 24h1v1H3zM5 24h3v1H5zM11 24h2v1H11zM15 24h3v1H15zM20 24h1v1H20zM23 24h1v1H23zM26 24h1v1H26zM28 24h2v1H28zM34 24h1v1H34zM36 24h2v1H36zM4 25h3v1H4zM9 25h1v1H9zM11 25h2v1H11zM14 25h1v1H14zM16 25h2v1H16zM19 25h1v1H19zM22 25h1v1H22zM24 25h1v1H24zM29 25h2v1H29zM32 25h1v1H32zM36,25 h4v1H36zM3 26h4v1H3zM11 26h2v1H11zM20 26h2v1H20zM24 26h2v1H24zM27 26h1v1H27zM29 26h1v1H29zM33 26h2v1H33zM39,26 h1v1H39zM5 27h3v1H5zM9 27h1v1H9zM16 27h2v1H16zM19 27h2v1H19zM22 27h1v1H22zM25 27h5v1H25zM31 27h1v1H31zM33 27h1v1H33zM35 27h1v1H35zM37 27h1v1H37zM3 28h2v1H3zM6 28h1v1H6zM8 28h1v1H8zM11 28h4v1H11zM17 28h3v1H17zM21 28h3v1H21zM26 28h1v1H26zM31 28h2v1H31zM34 28h1v1H34zM37 28h1v1H37zM3 29h1v1H3zM7 29h1v1H7zM9 29h4v1H9zM14 29h2v1H14zM19 29h1v1H19zM21 29h1v1H21zM25 29h1v1H25zM29 29h3v1H29zM33 29h1v1H33zM35,29 h5v1H35zM3 30h1v1H3zM5 30h4v1H5zM11 30h2v1H11zM14 30h4v1H14zM22 30h1v1H22zM24 30h1v1H24zM27 30h1v1H27zM30 30h3v1H30zM34 30h2v1H34zM38 30h1v1H38zM3 31h1v1H3zM6 31h1v1H6zM9 31h3v1H9zM13 31h1v1H13zM15 31h5v1H15zM25 31h5v1H25zM31 31h7v1H31zM39,31 h1v1H39zM11 32h1v1H11zM15 32h2v1H15zM18 32h2v1H18zM21 32h1v1H21zM26 32h1v1H26zM28 32h1v1H28zM30 32h2v1H30zM35 32h1v1H35zM3 33h7v1H3zM11 33h1v1H11zM13 33h2v1H13zM16 33h2v1H16zM19 33h1v1H19zM22 33h1v1H22zM25 33h1v1H25zM28 33h2v1H28zM31 33h1v1H31zM33 33h1v1H33zM35 33h2v1H35zM39,33 h1v1H39zM3 34h1v1H3zM9 34h1v1H9zM11 34h1v1H11zM15 34h9v1H15zM26 34h1v1H26zM31 34h1v1H31zM35 34h1v1H35zM38,34 h2v1H38zM3 35h1v1H3zM5 35h3v1H5zM9 35h1v1H9zM11 35h1v1H11zM13 35h1v1H13zM16 35h1v1H16zM18 35h3v1H18zM22 35h14v1H22zM37,35 h3v1H37zM3 36h1v1H3zM5 36h3v1H5zM9 36h1v1H9zM11 36h1v1H11zM18 36h2v1H18zM24 36h1v1H24zM26 36h1v1H26zM30 36h2v1H30zM33 36h4v1H33zM38 36h1v1H38zM3 37h1v1H3zM5 37h3v1H5zM9 37h1v1H9zM11 37h3v1H11zM15 37h1v1H15zM18 37h2v1H18zM21 37h1v1H21zM23 37h1v1H23zM29 37h1v1H29zM31 37h2v1H31zM39,37 h1v1H39zM3 38h1v1H3zM9 38h1v1H9zM11 38h1v1H11zM14 38h5v1H14zM20 38h2v1H20zM24 38h4v1H24zM30 38h4v1H30zM39,38 h1v1H39zM3 39h7v1H3zM12 39h2v1H12zM15 39h1v1H15zM20 39h1v1H20zM25 39h1v1H25zM27 39h3v1H27zM32 39h2v1H32zM36,39 h4v1H36z" shape-rendering="crispEdges"/></svg></g>
  <g id="FR">
    <g id="DONATE_Text_FR" data-name="DONATE Text FR">
      <g id="Body_Text_FR" data-name="Body Text FR">
        <g>
          <path class="cls-3" d="M78.73,353.21c-.91,0-1.73-.11-2.46-.34-.74-.23-1.38-.56-1.92-.98l.56-1.31c.36.28.74.51,1.13.69.39.18.81.32,1.25.41s.93.14,1.45.14c.9,0,1.55-.16,1.98-.48.42-.32.63-.74.63-1.26,0-.45-.15-.79-.44-1.04-.29-.25-.81-.44-1.54-.59l-1.74-.35c-1.03-.21-1.81-.56-2.31-1.05-.51-.49-.76-1.15-.76-1.99,0-.68.18-1.28.54-1.79.36-.51.87-.91,1.51-1.18.64-.28,1.4-.42,2.26-.42.8,0,1.54.11,2.21.34.67.23,1.24.57,1.7,1.02l-.54,1.26c-.48-.42-.99-.72-1.54-.92-.54-.2-1.16-.3-1.86-.3-.82,0-1.46.17-1.93.51s-.7.81-.7,1.39c0,.47.15.84.44,1.1.29.27.78.47,1.46.61l1.74.34c1.08.22,1.87.57,2.38,1.03.51.46.77,1.1.77,1.91,0,.65-.17,1.22-.52,1.71-.35.49-.84.87-1.48,1.14-.64.27-1.4.41-2.27.41Z"/>
          <path class="cls-3" d="M88.44,353.21c-.81,0-1.52-.17-2.12-.5s-1.07-.82-1.39-1.46c-.33-.63-.49-1.39-.49-2.26s.17-1.6.5-2.22c.33-.62.79-1.09,1.39-1.42.6-.33,1.3-.49,2.11-.49.52,0,1.03.09,1.52.26.49.18.9.42,1.22.74l-.53,1.14c-.3-.29-.63-.5-1.01-.65-.37-.14-.74-.22-1.09-.22-.77,0-1.37.25-1.81.74s-.66,1.2-.66,2.13.22,1.66.66,2.16,1.04.75,1.81.75c.34,0,.7-.07,1.07-.2.37-.13.71-.35,1.02-.65l.53,1.14c-.33.32-.74.57-1.24.74-.5.18-1,.26-1.5.26Z"/>
          <path class="cls-3" d="M95.92,353.21c-.71,0-1.34-.17-1.87-.5s-.95-.81-1.24-1.44c-.29-.63-.44-1.38-.44-2.24s.15-1.62.44-2.24c.29-.62.71-1.1,1.24-1.43s1.16-.5,1.87-.5,1.32.18,1.84.53.87.83,1.04,1.44h-.18l.16-1.82h1.57c-.03.33-.06.66-.09.98-.03.33-.04.64-.04.95v6.13h-1.62v-1.79h.18c-.17.6-.52,1.07-1.05,1.42s-1.13.52-1.82.52ZM96.32,351.94c.69,0,1.25-.25,1.67-.74.42-.49.63-1.22.63-2.18s-.21-1.68-.63-2.17c-.42-.48-.98-.73-1.67-.73s-1.27.24-1.69.73c-.42.49-.63,1.21-.63,2.17s.21,1.69.62,2.18.98.74,1.7.74Z"/>
          <path class="cls-3" d="M102.57,353.06v-6.13c0-.31-.01-.63-.04-.95-.03-.33-.06-.65-.09-.98h1.57l.14,1.7h-.19c.25-.6.62-1.05,1.14-1.37s1.1-.47,1.78-.47c.95,0,1.67.26,2.15.78s.73,1.33.73,2.43v4.99h-1.62v-4.9c0-.71-.14-1.23-.42-1.54-.28-.31-.71-.47-1.29-.47-.68,0-1.23.21-1.63.63-.41.42-.61.99-.61,1.7v4.58h-1.62Z"/>
          <path class="cls-3" d="M112.06,353.06v-6.13c0-.31-.01-.63-.04-.95-.03-.33-.06-.65-.09-.98h1.57l.14,1.7h-.19c.25-.6.62-1.05,1.14-1.37s1.1-.47,1.78-.47c.95,0,1.67.26,2.15.78s.73,1.33.73,2.43v4.99h-1.62v-4.9c0-.71-.14-1.23-.42-1.54-.28-.31-.71-.47-1.29-.47-.68,0-1.23.21-1.63.63-.41.42-.61.99-.61,1.7v4.58h-1.62Z"/>
          <path class="cls-3" d="M125.28,353.21c-1.3,0-2.33-.37-3.07-1.1-.75-.74-1.12-1.75-1.12-3.06,0-.84.16-1.58.49-2.21.33-.63.78-1.12,1.36-1.46.58-.35,1.26-.52,2.02-.52s1.39.16,1.9.48c.51.32.9.77,1.17,1.35.27.58.4,1.27.4,2.06v.51h-6.08v-.93h4.98l-.27.21c0-.8-.18-1.42-.54-1.86-.36-.44-.87-.66-1.54-.66-.75,0-1.32.26-1.73.78-.41.52-.61,1.23-.61,2.14v.16c0,.95.23,1.66.7,2.14s1.12.72,1.98.72c.47,0,.91-.07,1.32-.2.41-.13.8-.35,1.18-.66l.53,1.1c-.37.33-.83.58-1.36.76-.53.18-1.1.26-1.7.26Z"/>
          <path class="cls-3" d="M129.82,353.06v-1.07l5.25-6.14.02.4h-5.26v-1.25h6.74v1.07l-5.3,6.19-.02-.43h5.49v1.23h-6.91Z"/>
          <path class="cls-3" d="M142.84,353.06v-11.78h1.62v11.78h-1.62Z"/>
          <path class="cls-3" d="M150.56,353.21c-1.3,0-2.33-.37-3.07-1.1-.75-.74-1.12-1.75-1.12-3.06,0-.84.16-1.58.49-2.21.33-.63.78-1.12,1.36-1.46.58-.35,1.26-.52,2.02-.52s1.39.16,1.9.48c.51.32.9.77,1.17,1.35.27.58.4,1.27.4,2.06v.51h-6.08v-.93h4.98l-.27.21c0-.8-.18-1.42-.54-1.86-.36-.44-.87-.66-1.54-.66-.75,0-1.32.26-1.73.78-.41.52-.61,1.23-.61,2.14v.16c0,.95.23,1.66.7,2.14s1.12.72,1.98.72c.47,0,.91-.07,1.32-.2.41-.13.8-.35,1.18-.66l.53,1.1c-.37.33-.83.58-1.36.76-.53.18-1.1.26-1.7.26Z"/>
          <path class="cls-3" d="M159.59,347.41c0-1.18.21-2.21.62-3.07.42-.86,1.02-1.53,1.82-2,.79-.47,1.74-.7,2.84-.7s2.03.23,2.82.7c.79.47,1.4,1.14,1.83,2,.43.86.65,1.88.65,3.06s-.22,2.21-.65,3.08c-.43.87-1.05,1.54-1.84,2.02-.79.47-1.73.71-2.81.71s-2.04-.24-2.83-.71-1.39-1.15-1.82-2.02c-.42-.87-.63-1.89-.63-3.06ZM161.34,347.41c0,1.37.3,2.43.9,3.2.6.77,1.48,1.15,2.64,1.15s2.01-.38,2.62-1.14.93-1.83.93-3.21-.31-2.44-.92-3.2c-.61-.76-1.49-1.14-2.63-1.14s-2.04.38-2.64,1.14c-.6.76-.9,1.82-.9,3.2ZM167.91,356.13c-.33-.2-.66-.46-1-.78-.34-.32-.65-.67-.94-1.06-.29-.39-.55-.79-.76-1.19l1.38-.56c.28.55.64,1.06,1.08,1.51.44.45.9.84,1.37,1.16l-1.12.93Z"/>
          <path class="cls-3" d="M172.44,353.06v-11.28h4.77c1.21,0,2.14.29,2.8.86s.99,1.37.99,2.39c0,.67-.15,1.25-.45,1.73s-.72.85-1.26,1.1c-.54.25-1.18.38-1.92.38l.26-.26h.43c.44,0,.83.11,1.18.34.35.22.63.58.86,1.07l1.62,3.68h-1.82l-1.6-3.7c-.16-.44-.41-.72-.74-.85s-.75-.19-1.24-.19h-2.19v4.74h-1.66ZM174.11,347.06h2.83c.8,0,1.41-.17,1.82-.51.41-.34.62-.83.62-1.47s-.21-1.14-.62-1.47-1.02-.5-1.82-.5h-2.83v3.95Z"/>
          <path class="cls-3" d="M191.26,353.21c-.81,0-1.52-.17-2.12-.5s-1.07-.82-1.39-1.46c-.33-.63-.49-1.39-.49-2.26s.17-1.6.5-2.22c.33-.62.79-1.09,1.39-1.42.6-.33,1.3-.49,2.11-.49.52,0,1.03.09,1.52.26.49.18.9.42,1.22.74l-.53,1.14c-.3-.29-.63-.5-1.01-.65-.37-.14-.74-.22-1.09-.22-.77,0-1.37.25-1.81.74s-.66,1.2-.66,2.13.22,1.66.66,2.16,1.04.75,1.81.75c.34,0,.7-.07,1.07-.2.37-.13.71-.35,1.02-.65l.53,1.14c-.33.32-.74.57-1.24.74-.5.18-1,.26-1.5.26Z"/>
          <path class="cls-3" d="M199,353.21c-.8,0-1.49-.17-2.08-.5s-1.04-.82-1.36-1.44c-.32-.62-.48-1.37-.48-2.23s.16-1.61.48-2.23c.32-.62.77-1.1,1.36-1.44s1.28-.5,2.08-.5,1.5.17,2.09.5,1.05.82,1.38,1.44.49,1.37.49,2.23-.16,1.61-.49,2.23-.78,1.1-1.38,1.44-1.29.5-2.09.5ZM199,351.94c.7,0,1.26-.25,1.68-.74s.62-1.22.62-2.18-.21-1.68-.62-2.17c-.42-.48-.98-.73-1.68-.73s-1.25.24-1.66.73c-.42.49-.62,1.21-.62,2.17s.21,1.69.62,2.18.97.74,1.66.74Z"/>
          <path class="cls-3" d="M207.93,353.21c-.7,0-1.33-.17-1.86-.5-.54-.33-.96-.81-1.25-1.44-.29-.63-.44-1.38-.44-2.24s.15-1.62.44-2.24c.29-.62.71-1.1,1.25-1.43.54-.34,1.16-.5,1.86-.5s1.3.17,1.83.52c.53.35.88.82,1.05,1.42h-.19v-5.5h1.62v11.78h-1.6v-1.82h.19c-.18.61-.53,1.09-1.06,1.44-.52.35-1.14.53-1.84.53ZM208.33,351.94c.69,0,1.25-.25,1.68-.74s.64-1.22.64-2.18-.21-1.68-.64-2.17c-.43-.48-.99-.73-1.68-.73s-1.27.24-1.69.73c-.42.49-.63,1.21-.63,2.17s.21,1.69.63,2.18c.42.49.98.74,1.69.74Z"/>
          <path class="cls-3" d="M218.31,353.21c-1.3,0-2.33-.37-3.07-1.1-.75-.74-1.12-1.75-1.12-3.06,0-.84.16-1.58.49-2.21.33-.63.78-1.12,1.36-1.46.58-.35,1.26-.52,2.02-.52s1.39.16,1.9.48.9.77,1.17,1.35c.27.58.4,1.27.4,2.06v.51h-6.08v-.93h4.98l-.27.21c0-.8-.18-1.42-.54-1.86-.36-.44-.87-.66-1.54-.66-.75,0-1.32.26-1.73.78-.41.52-.61,1.23-.61,2.14v.16c0,.95.23,1.66.7,2.14.46.48,1.12.72,1.98.72.47,0,.91-.07,1.32-.2.41-.13.8-.35,1.18-.66l.53,1.1c-.37.33-.83.58-1.36.76-.53.18-1.1.26-1.7.26Z"/>
          <path class="cls-3" d="M230.68,353.21c-.71,0-1.34-.17-1.87-.5s-.95-.81-1.24-1.44-.44-1.38-.44-2.24.15-1.62.44-2.24.71-1.1,1.24-1.43,1.16-.5,1.87-.5,1.32.18,1.84.53.87.83,1.04,1.44h-.18l.16-1.82h1.57c-.03.33-.06.66-.09.98-.03.33-.04.64-.04.95v6.13h-1.62v-1.79h.18c-.17.6-.52,1.07-1.05,1.42-.53.35-1.13.52-1.82.52ZM231.08,351.94c.69,0,1.25-.25,1.67-.74.42-.49.63-1.22.63-2.18s-.21-1.68-.63-2.17c-.42-.48-.98-.73-1.67-.73s-1.27.24-1.69.73c-.42.49-.63,1.21-.63,2.17s.21,1.69.62,2.18.98.74,1.7.74Z"/>
          <path class="cls-3" d="M239.63,353.06l-3.46-8.06h1.73l2.72,6.74h-.46l2.77-6.74h1.65l-3.47,8.06h-1.47Z"/>
          <path class="cls-3" d="M249.43,353.21c-1.3,0-2.33-.37-3.07-1.1-.75-.74-1.12-1.75-1.12-3.06,0-.84.16-1.58.49-2.21.33-.63.78-1.12,1.36-1.46.58-.35,1.26-.52,2.02-.52s1.39.16,1.9.48c.51.32.9.77,1.17,1.35.27.58.4,1.27.4,2.06v.51h-6.08v-.93h4.98l-.27.21c0-.8-.18-1.42-.54-1.86-.36-.44-.87-.66-1.54-.66-.75,0-1.32.26-1.73.78-.41.52-.61,1.23-.61,2.14v.16c0,.95.23,1.66.7,2.14s1.12.72,1.98.72c.47,0,.91-.07,1.32-.2.41-.13.8-.35,1.18-.66l.53,1.1c-.37.33-.83.58-1.36.76-.53.18-1.1.26-1.7.26Z"/>
          <path class="cls-3" d="M257.98,353.21c-.81,0-1.52-.17-2.12-.5s-1.07-.82-1.39-1.46c-.33-.63-.49-1.39-.49-2.26s.17-1.6.5-2.22c.33-.62.79-1.09,1.39-1.42.6-.33,1.3-.49,2.11-.49.52,0,1.03.09,1.52.26.49.18.9.42,1.22.74l-.53,1.14c-.3-.29-.63-.5-1.01-.65s-.74-.22-1.09-.22c-.77,0-1.37.25-1.81.74-.44.49-.66,1.2-.66,2.13s.22,1.66.66,2.16c.44.5,1.04.75,1.81.75.34,0,.7-.07,1.07-.2.37-.13.71-.35,1.02-.65l.53,1.14c-.33.32-.74.57-1.24.74-.5.18-.99.26-1.5.26Z"/>
          <path class="cls-3" d="M77.15,374.06l-3.46-8.06h1.73l2.72,6.74h-.46l2.77-6.74h1.65l-3.47,8.06h-1.47Z"/>
          <path class="cls-3" d="M86.68,374.21c-.8,0-1.49-.17-2.08-.5s-1.04-.82-1.36-1.44c-.32-.62-.48-1.37-.48-2.23s.16-1.61.48-2.23c.32-.62.77-1.1,1.36-1.44s1.28-.5,2.08-.5,1.5.17,2.09.5,1.05.82,1.38,1.44.49,1.37.49,2.23-.16,1.61-.49,2.23-.78,1.1-1.38,1.44-1.29.5-2.09.5ZM86.68,372.94c.7,0,1.26-.25,1.68-.74s.62-1.22.62-2.18-.21-1.68-.62-2.17c-.42-.48-.98-.73-1.68-.73s-1.25.24-1.66.73c-.42.49-.62,1.21-.62,2.17s.21,1.69.62,2.18.97.74,1.66.74Z"/>
          <path class="cls-3" d="M95.58,374.21c-.87,0-1.54-.24-1.98-.71s-.67-1.19-.67-2.14v-4.11h-1.57v-1.25h1.57v-2.13l1.62-.43v2.56h2.24v1.25h-2.24v3.97c0,.6.11,1.02.32,1.28.21.26.52.38.93.38.2,0,.38-.02.54-.06.15-.04.3-.08.42-.14v1.31c-.16.06-.35.11-.56.15-.21.04-.42.06-.61.06Z"/>
          <path class="cls-3" d="M98.22,374.06v-6.06c0-.33,0-.66-.02-1-.02-.34-.04-.67-.07-1h1.57l.18,2.08h-.26c.11-.5.29-.92.54-1.25s.57-.58.94-.74c.37-.16.75-.24,1.16-.24.17,0,.31,0,.43.02.12.02.23.04.35.07l-.02,1.44c-.18-.07-.34-.12-.47-.14-.13-.02-.3-.02-.49-.02-.47,0-.87.1-1.2.31-.33.21-.58.49-.75.84-.17.35-.26.73-.26,1.14v4.54h-1.63Z"/>
          <path class="cls-3" d="M107.9,374.21c-1.3,0-2.33-.37-3.07-1.1-.75-.74-1.12-1.75-1.12-3.06,0-.84.16-1.58.49-2.21.33-.63.78-1.12,1.36-1.46.58-.35,1.26-.52,2.02-.52s1.39.16,1.9.48.9.77,1.17,1.35c.27.58.4,1.27.4,2.06v.51h-6.08v-.93h4.98l-.27.21c0-.8-.18-1.42-.54-1.86-.36-.44-.87-.66-1.54-.66-.75,0-1.32.26-1.73.78-.41.52-.61,1.23-.61,2.14v.16c0,.95.23,1.66.7,2.14.46.48,1.12.72,1.98.72.47,0,.91-.07,1.32-.2.41-.13.8-.35,1.18-.66l.53,1.1c-.37.33-.83.58-1.36.76-.53.18-1.1.26-1.7.26Z"/>
          <path class="cls-3" d="M120.27,374.21c-.71,0-1.34-.17-1.87-.5s-.95-.81-1.24-1.44-.44-1.38-.44-2.24.15-1.62.44-2.24.71-1.1,1.24-1.43,1.16-.5,1.87-.5,1.32.18,1.84.53.87.83,1.04,1.44h-.18l.16-1.82h1.57c-.03.33-.06.66-.09.98-.03.33-.04.64-.04.95v6.13h-1.62v-1.79h.18c-.17.6-.52,1.07-1.05,1.42-.53.35-1.13.52-1.82.52ZM120.67,372.94c.69,0,1.25-.25,1.67-.74.42-.49.63-1.22.63-2.18s-.21-1.68-.63-2.17c-.42-.48-.98-.73-1.67-.73s-1.27.24-1.69.73c-.42.49-.63,1.21-.63,2.17s.21,1.69.62,2.18.98.74,1.7.74Z"/>
          <path class="cls-3" d="M126.92,377.52v-9.58c0-.31-.01-.63-.04-.95-.03-.33-.06-.65-.09-.98h1.57l.16,1.82h-.18c.17-.61.51-1.09,1.03-1.44s1.13-.53,1.85-.53,1.34.17,1.87.5.95.81,1.24,1.43.44,1.37.44,2.24-.15,1.61-.44,2.24-.71,1.11-1.24,1.44-1.16.5-1.87.5-1.31-.17-1.83-.52c-.52-.35-.86-.82-1.03-1.42h.18v5.25h-1.62ZM130.83,372.94c.7,0,1.27-.25,1.69-.74.42-.49.63-1.22.63-2.18s-.21-1.68-.63-2.17c-.42-.48-.98-.73-1.69-.73s-1.27.24-1.69.73c-.42.49-.63,1.21-.63,2.17s.21,1.69.63,2.18c.42.49.98.74,1.69.74Z"/>
          <path class="cls-3" d="M136.67,377.52v-9.58c0-.31-.01-.63-.04-.95-.03-.33-.06-.65-.09-.98h1.57l.16,1.82h-.18c.17-.61.51-1.09,1.03-1.44s1.13-.53,1.85-.53,1.34.17,1.87.5.95.81,1.24,1.43.44,1.37.44,2.24-.15,1.61-.44,2.24-.71,1.11-1.24,1.44-1.16.5-1.87.5-1.31-.17-1.83-.52c-.52-.35-.86-.82-1.03-1.42h.18v5.25h-1.62ZM140.57,372.94c.7,0,1.27-.25,1.69-.74.42-.49.63-1.22.63-2.18s-.21-1.68-.63-2.17c-.42-.48-.98-.73-1.69-.73s-1.27.24-1.69.73c-.42.49-.63,1.21-.63,2.17s.21,1.69.63,2.18c.42.49.98.74,1.69.74Z"/>
          <path class="cls-3" d="M149.5,374.21c-.71,0-1.34-.17-1.87-.5s-.95-.81-1.24-1.44c-.29-.63-.44-1.38-.44-2.24s.15-1.62.44-2.24c.29-.62.71-1.1,1.24-1.43s1.16-.5,1.87-.5,1.32.18,1.84.53.87.83,1.04,1.44h-.18l.16-1.82h1.57c-.03.33-.06.66-.09.98-.03.33-.04.64-.04.95v6.13h-1.62v-1.79h.18c-.17.6-.52,1.07-1.05,1.42s-1.13.52-1.82.52ZM149.9,372.94c.69,0,1.25-.25,1.67-.74.42-.49.63-1.22.63-2.18s-.21-1.68-.63-2.17c-.42-.48-.98-.73-1.67-.73s-1.27.24-1.69.73c-.42.49-.63,1.21-.63,2.17s.21,1.69.62,2.18.98.74,1.7.74Z"/>
          <path class="cls-3" d="M156.12,374.06v-6.06c0-.33,0-.66-.02-1-.02-.34-.04-.67-.07-1h1.57l.18,2.08h-.26c.11-.5.29-.92.54-1.25.26-.33.57-.58.94-.74.37-.16.75-.24,1.16-.24.17,0,.31,0,.43.02s.23.04.35.07l-.02,1.44c-.18-.07-.34-.12-.47-.14-.13-.02-.3-.02-.49-.02-.47,0-.87.1-1.2.31-.33.21-.58.49-.75.84s-.26.73-.26,1.14v4.54h-1.63Z"/>
          <path class="cls-3" d="M165.8,374.21c-1.3,0-2.33-.37-3.07-1.1-.75-.74-1.12-1.75-1.12-3.06,0-.84.16-1.58.49-2.21.33-.63.78-1.12,1.36-1.46.58-.35,1.26-.52,2.02-.52s1.39.16,1.9.48c.51.32.9.77,1.17,1.35.27.58.4,1.27.4,2.06v.51h-6.08v-.93h4.98l-.27.21c0-.8-.18-1.42-.54-1.86-.36-.44-.87-.66-1.54-.66-.75,0-1.32.26-1.73.78-.41.52-.61,1.23-.61,2.14v.16c0,.95.23,1.66.7,2.14s1.12.72,1.98.72c.47,0,.91-.07,1.32-.2.41-.13.8-.35,1.18-.66l.53,1.1c-.37.33-.83.58-1.36.76-.53.18-1.1.26-1.7.26Z"/>
          <path class="cls-3" d="M170.68,364.32v-1.68h1.87v1.68h-1.87ZM170.81,374.06v-8.06h1.62v8.06h-1.62Z"/>
          <path class="cls-3" d="M174.8,374.06v-11.78h1.62v11.78h-1.62Z"/>
        </g>
        <g>
          <path class="cls-3" d="M80,404.26c-1.15,0-2.13-.23-2.94-.7-.81-.47-1.43-1.14-1.86-2.01-.43-.87-.65-1.9-.65-3.08s.22-2.21.65-3.07c.43-.86,1.05-1.53,1.86-2,.81-.47,1.79-.7,2.94-.7.8,0,1.51.12,2.14.35.63.23,1.18.58,1.65,1.02l-.58,1.33c-.51-.44-1.01-.75-1.5-.94s-1.05-.29-1.69-.29c-1.22,0-2.14.37-2.78,1.12-.64.75-.96,1.81-.96,3.18s.32,2.44.96,3.19c.64.75,1.57,1.13,2.78,1.13.64,0,1.2-.1,1.69-.29.49-.19.98-.51,1.5-.96l.58,1.33c-.47.45-1.02.79-1.65,1.03-.63.24-1.34.36-2.14.36Z"/>
          <path class="cls-3" d="M85.74,404.12v-11.78h1.62v5.42h-.22c.23-.61.61-1.07,1.14-1.38s1.13-.47,1.81-.47c.96,0,1.67.26,2.14.79s.7,1.33.7,2.39v5.02h-1.62v-4.93c0-.69-.14-1.2-.41-1.51-.27-.31-.7-.47-1.29-.47-.68,0-1.23.21-1.64.63-.41.42-.62.98-.62,1.67v4.61h-1.62Z"/>
          <path class="cls-3" d="M98.68,404.26c-.8,0-1.49-.17-2.08-.5s-1.04-.82-1.36-1.44c-.32-.62-.48-1.37-.48-2.23s.16-1.61.48-2.23c.32-.62.77-1.1,1.36-1.44s1.28-.5,2.08-.5,1.5.17,2.09.5,1.05.82,1.38,1.44.49,1.37.49,2.23-.16,1.61-.49,2.23-.78,1.1-1.38,1.44-1.29.5-2.09.5ZM98.68,403c.7,0,1.26-.25,1.68-.74s.62-1.22.62-2.18-.21-1.68-.62-2.17c-.42-.48-.98-.73-1.68-.73s-1.25.24-1.66.73c-.42.49-.62,1.21-.62,2.17s.21,1.69.62,2.18.97.74,1.66.74Z"/>
          <path class="cls-3" d="M104.39,394.37v-1.68h1.87v1.68h-1.87ZM104.52,404.12v-8.06h1.62v8.06h-1.62Z"/>
          <path class="cls-3" d="M111.27,404.26c-.67,0-1.29-.09-1.86-.26-.57-.17-1.04-.41-1.41-.72l.5-1.1c.39.3.83.52,1.31.67.48.15.97.22,1.47.22.59,0,1.03-.1,1.33-.31s.45-.49.45-.86c0-.28-.09-.5-.28-.67s-.49-.3-.92-.38l-1.54-.3c-.68-.15-1.2-.41-1.55-.77-.35-.36-.53-.83-.53-1.39,0-.48.13-.91.39-1.28.26-.37.63-.67,1.12-.88.49-.21,1.05-.32,1.7-.32.6,0,1.15.09,1.66.26.51.17.94.42,1.28.74l-.51,1.07c-.33-.28-.7-.49-1.12-.65-.42-.15-.84-.23-1.26-.23-.6,0-1.04.11-1.33.34s-.43.52-.43.88c0,.28.09.5.26.68.18.18.46.31.84.41l1.54.3c.73.15,1.27.39,1.63.74.36.34.54.8.54,1.38,0,.5-.14.94-.42,1.31-.28.37-.66.66-1.15.85-.49.19-1.07.29-1.73.29Z"/>
          <path class="cls-3" d="M116.35,394.37v-1.68h1.87v1.68h-1.87ZM116.47,404.12v-8.06h1.62v8.06h-1.62Z"/>
          <path class="cls-3" d="M123.23,404.26c-.67,0-1.29-.09-1.86-.26-.57-.17-1.04-.41-1.41-.72l.5-1.1c.39.3.83.52,1.31.67.48.15.97.22,1.47.22.59,0,1.03-.1,1.33-.31s.45-.49.45-.86c0-.28-.09-.5-.28-.67s-.49-.3-.92-.38l-1.54-.3c-.68-.15-1.2-.41-1.55-.77-.35-.36-.53-.83-.53-1.39,0-.48.13-.91.39-1.28.26-.37.63-.67,1.12-.88.49-.21,1.05-.32,1.7-.32.6,0,1.15.09,1.66.26.51.17.94.42,1.28.74l-.51,1.07c-.33-.28-.7-.49-1.12-.65-.42-.15-.84-.23-1.26-.23-.6,0-1.04.11-1.33.34-.29.22-.43.52-.43.88,0,.28.09.5.26.68.18.18.46.31.84.41l1.54.3c.73.15,1.27.39,1.63.74.36.34.54.8.54,1.38,0,.5-.14.94-.42,1.31-.28.37-.66.66-1.15.85s-1.07.29-1.73.29Z"/>
          <path class="cls-3" d="M131.19,404.26c-.67,0-1.29-.09-1.86-.26-.57-.17-1.04-.41-1.41-.72l.5-1.1c.39.3.83.52,1.31.67.48.15.97.22,1.47.22.59,0,1.03-.1,1.33-.31s.45-.49.45-.86c0-.28-.09-.5-.28-.67s-.49-.3-.92-.38l-1.54-.3c-.68-.15-1.2-.41-1.55-.77-.35-.36-.53-.83-.53-1.39,0-.48.13-.91.39-1.28.26-.37.63-.67,1.12-.88.49-.21,1.05-.32,1.7-.32.6,0,1.15.09,1.66.26.51.17.94.42,1.28.74l-.51,1.07c-.33-.28-.7-.49-1.12-.65-.42-.15-.84-.23-1.26-.23-.6,0-1.04.11-1.33.34-.29.22-.43.52-.43.88,0,.28.09.5.26.68.18.18.46.31.84.41l1.54.3c.73.15,1.27.39,1.63.74.36.34.54.8.54,1.38,0,.5-.14.94-.42,1.31-.28.37-.66.66-1.15.85s-1.07.29-1.73.29Z"/>
          <path class="cls-3" d="M140.12,404.26c-1.3,0-2.33-.37-3.07-1.1-.75-.74-1.12-1.75-1.12-3.06,0-.84.16-1.58.49-2.21.33-.63.78-1.12,1.36-1.46.58-.35,1.26-.52,2.02-.52s1.39.16,1.9.48c.51.32.9.77,1.17,1.35.27.58.4,1.27.4,2.06v.51h-6.08v-.93h4.98l-.27.21c0-.8-.18-1.42-.54-1.86-.36-.44-.87-.66-1.54-.66-.75,0-1.32.26-1.73.78-.41.52-.61,1.23-.61,2.14v.16c0,.95.23,1.66.7,2.14s1.12.72,1.98.72c.47,0,.91-.07,1.32-.2.41-.13.8-.35,1.18-.66l.53,1.1c-.37.33-.83.58-1.36.76-.53.18-1.1.26-1.7.26Z"/>
          <path class="cls-3" d="M144.67,404.12v-1.07l5.25-6.14.02.4h-5.26v-1.25h6.74v1.07l-5.3,6.19-.02-.43h5.49v1.23h-6.91Z"/>
          <path class="cls-3" d="M157.69,404.12v-11.78h1.62v11.78h-1.62Z"/>
          <path class="cls-3" d="M165.4,404.26c-1.3,0-2.33-.37-3.07-1.1-.75-.74-1.12-1.75-1.12-3.06,0-.84.16-1.58.49-2.21.33-.63.78-1.12,1.36-1.46.58-.35,1.26-.52,2.02-.52s1.39.16,1.9.48.9.77,1.17,1.35c.27.58.4,1.27.4,2.06v.51h-6.08v-.93h4.98l-.27.21c0-.8-.18-1.42-.54-1.86-.36-.44-.87-.66-1.54-.66-.75,0-1.32.26-1.73.78-.41.52-.61,1.23-.61,2.14v.16c0,.95.23,1.66.7,2.14.46.48,1.12.72,1.98.72.47,0,.91-.07,1.32-.2.41-.13.8-.35,1.18-.66l.53,1.1c-.37.33-.83.58-1.36.76-.53.18-1.1.26-1.7.26Z"/>
          <path class="cls-3" d="M174.68,404.12v-6.13c0-.31-.01-.63-.04-.95-.03-.33-.06-.65-.09-.98h1.57l.14,1.7h-.19c.22-.59.57-1.04,1.03-1.36s1.02-.48,1.67-.48,1.2.16,1.62.47c.42.31.71.8.87,1.45h-.26c.21-.59.58-1.05,1.09-1.4s1.1-.52,1.78-.52c.9,0,1.57.26,2.02.78s.67,1.33.67,2.43v4.99h-1.62v-4.91c0-.7-.12-1.21-.36-1.53-.24-.31-.63-.47-1.16-.47-.62,0-1.11.21-1.47.64-.36.43-.54,1-.54,1.73v4.54h-1.62v-4.91c0-.7-.12-1.21-.36-1.53s-.63-.47-1.16-.47c-.62,0-1.1.21-1.46.64-.35.43-.53,1-.53,1.73v4.54h-1.62Z"/>
          <path class="cls-3" d="M192.35,404.26c-.8,0-1.49-.17-2.08-.5-.59-.34-1.04-.82-1.36-1.44s-.48-1.37-.48-2.23.16-1.61.48-2.23.77-1.1,1.36-1.44c.59-.34,1.28-.5,2.08-.5s1.5.17,2.09.5,1.05.82,1.38,1.44c.33.62.49,1.37.49,2.23s-.16,1.61-.49,2.23c-.33.62-.78,1.1-1.38,1.44s-1.29.5-2.09.5ZM192.35,403c.7,0,1.26-.25,1.68-.74s.62-1.22.62-2.18-.21-1.68-.62-2.17c-.42-.48-.98-.73-1.68-.73s-1.25.24-1.66.73c-.42.49-.62,1.21-.62,2.17s.21,1.69.62,2.18.97.74,1.66.74Z"/>
          <path class="cls-3" d="M198.19,404.12v-6.13c0-.31-.01-.63-.04-.95-.03-.33-.06-.65-.09-.98h1.57l.14,1.7h-.19c.25-.6.62-1.05,1.14-1.37.51-.31,1.1-.47,1.78-.47.95,0,1.67.26,2.15.78.49.52.73,1.33.73,2.43v4.99h-1.62v-4.9c0-.71-.14-1.23-.42-1.54s-.71-.47-1.29-.47c-.68,0-1.23.21-1.63.63s-.61.99-.61,1.7v4.58h-1.62Z"/>
          <path class="cls-3" d="M210.81,404.26c-.87,0-1.54-.24-1.98-.71s-.67-1.19-.67-2.14v-4.11h-1.57v-1.25h1.57v-2.13l1.62-.43v2.56h2.24v1.25h-2.24v3.97c0,.6.11,1.02.32,1.28.21.26.52.38.93.38.2,0,.38-.02.54-.06.15-.04.3-.08.42-.14v1.31c-.16.06-.35.11-.56.15-.21.04-.42.06-.61.06Z"/>
          <path class="cls-3" d="M216.57,404.26c-.71,0-1.34-.17-1.87-.5s-.95-.81-1.24-1.44-.44-1.38-.44-2.24.15-1.62.44-2.24.71-1.1,1.24-1.43,1.16-.5,1.87-.5,1.32.18,1.84.53.87.83,1.04,1.44h-.18l.16-1.82h1.57c-.03.33-.06.66-.09.98-.03.33-.04.64-.04.95v6.13h-1.62v-1.79h.18c-.17.6-.52,1.07-1.05,1.42-.53.35-1.13.52-1.82.52ZM216.97,403c.69,0,1.25-.25,1.67-.74.42-.49.63-1.22.63-2.18s-.21-1.68-.63-2.17c-.42-.48-.98-.73-1.67-.73s-1.27.24-1.69.73c-.42.49-.63,1.21-.63,2.17s.21,1.69.62,2.18.98.74,1.7.74Z"/>
          <path class="cls-3" d="M223.23,404.12v-6.13c0-.31-.01-.63-.04-.95-.03-.33-.06-.65-.09-.98h1.57l.14,1.7h-.19c.25-.6.62-1.05,1.14-1.37.51-.31,1.1-.47,1.78-.47.95,0,1.67.26,2.15.78.49.52.73,1.33.73,2.43v4.99h-1.62v-4.9c0-.71-.14-1.23-.42-1.54s-.71-.47-1.29-.47c-.68,0-1.23.21-1.63.63s-.61.99-.61,1.7v4.58h-1.62Z"/>
          <path class="cls-3" d="M235.85,404.26c-.87,0-1.54-.24-1.98-.71s-.67-1.19-.67-2.14v-4.11h-1.57v-1.25h1.57v-2.13l1.62-.43v2.56h2.24v1.25h-2.24v3.97c0,.6.11,1.02.32,1.28.21.26.52.38.93.38.2,0,.38-.02.54-.06.15-.04.3-.08.42-.14v1.31c-.16.06-.35.11-.56.15-.21.04-.42.06-.61.06Z"/>
          <path class="cls-3" d="M246.52,404.26c-1.3,0-2.33-.37-3.07-1.1-.75-.74-1.12-1.75-1.12-3.06,0-.84.16-1.58.49-2.21.33-.63.78-1.12,1.36-1.46.58-.35,1.26-.52,2.02-.52s1.39.16,1.9.48c.51.32.9.77,1.17,1.35.27.58.4,1.27.4,2.06v.51h-6.08v-.93h4.98l-.27.21c0-.8-.18-1.42-.54-1.86-.36-.44-.87-.66-1.54-.66-.75,0-1.32.26-1.73.78-.41.52-.61,1.23-.61,2.14v.16c0,.95.23,1.66.7,2.14s1.12.72,1.98.72c.47,0,.91-.07,1.32-.2.41-.13.8-.35,1.18-.66l.53,1.1c-.37.33-.83.58-1.36.76-.53.18-1.1.26-1.7.26Z"/>
          <path class="cls-3" d="M254.65,404.26c-.87,0-1.54-.24-1.98-.71s-.67-1.19-.67-2.14v-4.11h-1.57v-1.25h1.57v-2.13l1.62-.43v2.56h2.24v1.25h-2.24v3.97c0,.6.11,1.02.32,1.28.21.26.52.38.93.38.2,0,.38-.02.54-.06.15-.04.3-.08.42-.14v1.31c-.16.06-.35.11-.56.15-.21.04-.42.06-.61.06Z"/>
          <path class="cls-3" d="M74.78,425.12v-11.78h1.62v11.78h-1.62Z"/>
          <path class="cls-3" d="M82.49,425.26c-1.3,0-2.33-.37-3.07-1.1-.75-.74-1.12-1.75-1.12-3.06,0-.84.16-1.58.49-2.21.33-.63.78-1.12,1.36-1.46.58-.35,1.26-.52,2.02-.52s1.39.16,1.9.48c.51.32.9.77,1.17,1.35.27.58.4,1.27.4,2.06v.51h-6.08v-.93h4.98l-.27.21c0-.8-.18-1.42-.54-1.86-.36-.44-.87-.66-1.54-.66-.75,0-1.32.26-1.73.78-.41.52-.61,1.23-.61,2.14v.16c0,.95.23,1.66.7,2.14s1.12.72,1.98.72c.47,0,.91-.07,1.32-.2.41-.13.8-.35,1.18-.66l.53,1.1c-.37.33-.83.58-1.36.76-.53.18-1.1.26-1.7.26Z"/>
          <path class="cls-3" d="M91.77,425.12v-6.13c0-.31-.01-.63-.04-.95-.03-.33-.06-.65-.09-.98h1.57l.14,1.7h-.19c.22-.59.57-1.04,1.03-1.36s1.02-.48,1.67-.48,1.2.16,1.62.47c.42.31.71.8.87,1.45h-.26c.21-.59.58-1.05,1.09-1.4.51-.35,1.1-.52,1.78-.52.9,0,1.57.26,2.02.78.45.52.67,1.33.67,2.43v4.99h-1.62v-4.91c0-.7-.12-1.21-.36-1.53s-.63-.47-1.16-.47c-.62,0-1.11.21-1.47.64-.36.43-.54,1-.54,1.73v4.54h-1.62v-4.91c0-.7-.12-1.21-.36-1.53-.24-.31-.63-.47-1.16-.47-.62,0-1.1.21-1.46.64-.35.43-.53,1-.53,1.73v4.54h-1.62Z"/>
          <path class="cls-3" d="M109.43,425.26c-.8,0-1.49-.17-2.08-.5s-1.04-.82-1.36-1.44c-.32-.62-.48-1.37-.48-2.23s.16-1.61.48-2.23c.32-.62.77-1.1,1.36-1.44s1.28-.5,2.08-.5,1.5.17,2.09.5,1.05.82,1.38,1.44.49,1.37.49,2.23-.16,1.61-.49,2.23-.78,1.1-1.38,1.44-1.29.5-2.09.5ZM109.43,424c.7,0,1.26-.25,1.68-.74s.62-1.22.62-2.18-.21-1.68-.62-2.17c-.42-.48-.98-.73-1.68-.73s-1.25.24-1.66.73c-.42.49-.62,1.21-.62,2.17s.21,1.69.62,2.18.97.74,1.66.74Z"/>
          <path class="cls-3" d="M114.89,428.75l-.38-1.31c.5-.11.92-.23,1.26-.38s.62-.34.84-.58c.22-.24.42-.55.58-.92l.4-.94-.03.66-3.5-8.21h1.73l2.72,6.72h-.43l2.72-6.72h1.66l-3.7,8.64c-.23.53-.49.98-.75,1.34s-.55.66-.86.88c-.31.22-.65.4-1.02.53-.37.13-.78.23-1.22.3Z"/>
          <path class="cls-3" d="M127.29,425.26c-1.3,0-2.33-.37-3.07-1.1-.75-.74-1.12-1.75-1.12-3.06,0-.84.16-1.58.49-2.21.33-.63.78-1.12,1.36-1.46.58-.35,1.26-.52,2.02-.52s1.39.16,1.9.48.9.77,1.17,1.35c.27.58.4,1.27.4,2.06v.51h-6.08v-.93h4.98l-.27.21c0-.8-.18-1.42-.54-1.86-.36-.44-.87-.66-1.54-.66-.75,0-1.32.26-1.73.78-.41.52-.61,1.23-.61,2.14v.16c0,.95.23,1.66.7,2.14.46.48,1.12.72,1.98.72.47,0,.91-.07,1.32-.2.41-.13.8-.35,1.18-.66l.53,1.1c-.37.33-.83.58-1.36.76-.53.18-1.1.26-1.7.26Z"/>
          <path class="cls-3" d="M132.3,425.12v-6.13c0-.31-.01-.63-.04-.95-.03-.33-.06-.65-.09-.98h1.57l.14,1.7h-.19c.25-.6.62-1.05,1.14-1.37s1.1-.47,1.78-.47c.95,0,1.67.26,2.15.78s.73,1.33.73,2.43v4.99h-1.62v-4.9c0-.71-.14-1.23-.42-1.54-.28-.31-.71-.47-1.29-.47-.68,0-1.23.21-1.63.63-.41.42-.61.99-.61,1.7v4.58h-1.62Z"/>
          <path class="cls-3" d="M149.15,425.26c-.7,0-1.33-.17-1.86-.5-.54-.33-.96-.81-1.25-1.44-.29-.63-.44-1.38-.44-2.24s.15-1.62.44-2.24c.29-.62.71-1.1,1.25-1.43.54-.34,1.16-.5,1.86-.5s1.3.17,1.83.52c.53.35.88.82,1.05,1.42h-.19v-5.5h1.62v11.78h-1.6v-1.82h.19c-.18.61-.53,1.09-1.06,1.44-.52.35-1.14.53-1.84.53ZM149.55,424c.69,0,1.25-.25,1.68-.74s.64-1.22.64-2.18-.21-1.68-.64-2.17c-.43-.48-.99-.73-1.68-.73s-1.27.24-1.69.73c-.42.49-.63,1.21-.63,2.17s.21,1.69.63,2.18c.42.49.98.74,1.69.74Z"/>
          <path class="cls-3" d="M159.53,425.26c-1.3,0-2.33-.37-3.07-1.1-.75-.74-1.12-1.75-1.12-3.06,0-.84.16-1.58.49-2.21.33-.63.78-1.12,1.36-1.46.58-.35,1.26-.52,2.02-.52s1.39.16,1.9.48.9.77,1.17,1.35c.27.58.4,1.27.4,2.06v.51h-6.08v-.93h4.98l-.27.21c0-.8-.18-1.42-.54-1.86-.36-.44-.87-.66-1.54-.66-.75,0-1.32.26-1.73.78-.41.52-.61,1.23-.61,2.14v.16c0,.95.23,1.66.7,2.14.46.48,1.12.72,1.98.72.47,0,.91-.07,1.32-.2.41-.13.8-.35,1.18-.66l.53,1.1c-.37.33-.83.58-1.36.76-.53.18-1.1.26-1.7.26Z"/>
          <path class="cls-3" d="M168.81,428.57v-9.58c0-.31-.01-.63-.04-.95-.03-.33-.06-.65-.09-.98h1.57l.16,1.82h-.18c.17-.61.51-1.09,1.03-1.44.52-.35,1.13-.53,1.85-.53s1.34.17,1.87.5.95.81,1.24,1.43c.29.62.44,1.37.44,2.24s-.15,1.61-.44,2.24c-.29.63-.71,1.11-1.24,1.44s-1.16.5-1.87.5-1.31-.17-1.83-.52-.86-.82-1.03-1.42h.18v5.25h-1.62ZM172.71,424c.7,0,1.27-.25,1.69-.74.42-.49.63-1.22.63-2.18s-.21-1.68-.63-2.17c-.42-.48-.98-.73-1.69-.73s-1.27.24-1.69.73c-.42.49-.63,1.21-.63,2.17s.21,1.69.63,2.18c.42.49.98.74,1.69.74Z"/>
          <path class="cls-3" d="M181.64,425.26c-.71,0-1.34-.17-1.87-.5s-.95-.81-1.24-1.44-.44-1.38-.44-2.24.15-1.62.44-2.24.71-1.1,1.24-1.43,1.16-.5,1.87-.5,1.32.18,1.84.53.87.83,1.04,1.44h-.18l.16-1.82h1.57c-.03.33-.06.66-.09.98-.03.33-.04.64-.04.95v6.13h-1.62v-1.79h.18c-.17.6-.52,1.07-1.05,1.42-.53.35-1.13.52-1.82.52ZM182.04,424c.69,0,1.25-.25,1.67-.74.42-.49.63-1.22.63-2.18s-.21-1.68-.63-2.17c-.42-.48-.98-.73-1.67-.73s-1.27.24-1.69.73c-.42.49-.63,1.21-.63,2.17s.21,1.69.62,2.18.98.74,1.7.74Z"/>
          <path class="cls-3" d="M188.17,415.37v-1.68h1.87v1.68h-1.87ZM188.3,425.12v-8.06h1.62v8.06h-1.62Z"/>
          <path class="cls-3" d="M196.01,425.26c-1.3,0-2.33-.37-3.07-1.1-.75-.74-1.12-1.75-1.12-3.06,0-.84.16-1.58.49-2.21.33-.63.78-1.12,1.36-1.46.58-.35,1.26-.52,2.02-.52s1.39.16,1.9.48c.51.32.9.77,1.17,1.35.27.58.4,1.27.4,2.06v.51h-6.08v-.93h4.98l-.27.21c0-.8-.18-1.42-.54-1.86-.36-.44-.87-.66-1.54-.66-.75,0-1.32.26-1.73.78-.41.52-.61,1.23-.61,2.14v.16c0,.95.23,1.66.7,2.14s1.12.72,1.98.72c.47,0,.91-.07,1.32-.2.41-.13.8-.35,1.18-.66l.53,1.1c-.37.33-.83.58-1.36.76-.53.18-1.1.26-1.7.26Z"/>
          <path class="cls-3" d="M201.02,425.12v-6.13c0-.31-.01-.63-.04-.95-.03-.33-.06-.65-.09-.98h1.57l.14,1.7h-.19c.22-.59.57-1.04,1.03-1.36s1.02-.48,1.67-.48,1.2.16,1.62.47c.42.31.71.8.87,1.45h-.26c.21-.59.58-1.05,1.09-1.4s1.1-.52,1.78-.52c.9,0,1.57.26,2.02.78s.67,1.33.67,2.43v4.99h-1.62v-4.91c0-.7-.12-1.21-.36-1.53-.24-.31-.63-.47-1.16-.47-.62,0-1.11.21-1.47.64-.36.43-.54,1-.54,1.73v4.54h-1.62v-4.91c0-.7-.12-1.21-.36-1.53s-.63-.47-1.16-.47c-.62,0-1.1.21-1.46.64-.35.43-.53,1-.53,1.73v4.54h-1.62Z"/>
          <path class="cls-3" d="M218.95,425.26c-1.3,0-2.33-.37-3.07-1.1-.75-.74-1.12-1.75-1.12-3.06,0-.84.16-1.58.49-2.21.33-.63.78-1.12,1.36-1.46.58-.35,1.26-.52,2.02-.52s1.39.16,1.9.48.9.77,1.17,1.35c.27.58.4,1.27.4,2.06v.51h-6.08v-.93h4.98l-.27.21c0-.8-.18-1.42-.54-1.86-.36-.44-.87-.66-1.54-.66-.75,0-1.32.26-1.73.78-.41.52-.61,1.23-.61,2.14v.16c0,.95.23,1.66.7,2.14.46.48,1.12.72,1.98.72.47,0,.91-.07,1.32-.2.41-.13.8-.35,1.18-.66l.53,1.1c-.37.33-.83.58-1.36.76-.53.18-1.1.26-1.7.26Z"/>
          <path class="cls-3" d="M223.96,425.12v-6.13c0-.31-.01-.63-.04-.95-.03-.33-.06-.65-.09-.98h1.57l.14,1.7h-.19c.25-.6.62-1.05,1.14-1.37s1.1-.47,1.78-.47c.95,0,1.67.26,2.15.78s.73,1.33.73,2.43v4.99h-1.62v-4.9c0-.71-.14-1.23-.42-1.54-.28-.31-.71-.47-1.29-.47-.68,0-1.23.21-1.63.63-.41.42-.61.99-.61,1.7v4.58h-1.62Z"/>
          <path class="cls-3" d="M236.59,425.26c-.88,0-1.54-.24-1.98-.71-.45-.47-.67-1.19-.67-2.14v-4.11h-1.57v-1.25h1.57v-2.13l1.62-.43v2.56h2.24v1.25h-2.24v3.97c0,.6.11,1.02.32,1.28.21.26.52.38.93.38.2,0,.38-.02.54-.06.15-.04.3-.08.42-.14v1.31c-.16.06-.35.11-.56.15-.21.04-.42.06-.61.06Z"/>
        </g>
        <g>
          <path class="cls-3" d="M80,463.9c-1.15,0-2.13-.23-2.94-.7-.81-.47-1.43-1.14-1.86-2.01s-.65-1.9-.65-3.08.22-2.21.65-3.07c.43-.86,1.05-1.53,1.86-2,.81-.47,1.79-.7,2.94-.7.8,0,1.51.12,2.14.35.63.23,1.18.58,1.65,1.02l-.58,1.33c-.51-.44-1.01-.75-1.5-.94-.49-.19-1.05-.29-1.69-.29-1.22,0-2.14.37-2.78,1.12-.64.75-.96,1.81-.96,3.18s.32,2.44.96,3.19c.64.75,1.57,1.13,2.78,1.13.64,0,1.2-.1,1.69-.29.49-.19.98-.51,1.5-.96l.58,1.33c-.47.45-1.02.79-1.65,1.03-.63.24-1.34.36-2.14.36Z"/>
          <path class="cls-3" d="M88.64,463.9c-.8,0-1.49-.17-2.08-.5s-1.04-.82-1.36-1.44c-.32-.62-.48-1.37-.48-2.23s.16-1.61.48-2.23c.32-.62.77-1.1,1.36-1.44s1.28-.5,2.08-.5,1.5.17,2.09.5,1.05.82,1.38,1.44.49,1.37.49,2.23-.16,1.61-.49,2.23-.78,1.1-1.38,1.44-1.29.5-2.09.5ZM88.64,462.63c.7,0,1.26-.25,1.68-.74s.62-1.22.62-2.18-.21-1.68-.62-2.17c-.42-.48-.98-.73-1.68-.73s-1.25.24-1.66.73c-.42.49-.62,1.21-.62,2.17s.21,1.69.62,2.18.97.74,1.66.74Z"/>
          <path class="cls-3" d="M94.48,463.75v-6.13c0-.31-.01-.63-.04-.95-.03-.33-.06-.65-.09-.98h1.57l.14,1.7h-.19c.25-.6.62-1.05,1.14-1.37s1.1-.47,1.78-.47c.95,0,1.67.26,2.15.78s.73,1.33.73,2.43v4.99h-1.62v-4.9c0-.71-.14-1.23-.42-1.54-.28-.31-.71-.47-1.29-.47-.68,0-1.23.21-1.63.63-.41.42-.61.99-.61,1.7v4.58h-1.62Z"/>
          <path class="cls-3" d="M104.44,463.75v-6.82h-1.57v-1.25h2.02l-.45.42v-1.28c0-.95.24-1.67.71-2.17.47-.5,1.17-.74,2.07-.74.21,0,.44.02.69.05s.45.09.62.16v1.31c-.13-.05-.29-.1-.48-.14-.19-.04-.38-.06-.56-.06-.47,0-.83.14-1.08.41s-.38.7-.38,1.27v1.09l-.24-.32h5.36v8.06h-1.62v-6.82h-3.49v6.82h-1.62ZM109.42,454.01v-1.68h1.87v1.68h-1.87Z"/>
          <path class="cls-3" d="M113.5,463.75v-6.06c0-.33,0-.66-.02-1-.02-.34-.04-.67-.07-1h1.57l.18,2.08h-.26c.11-.5.29-.92.54-1.25s.57-.58.94-.74c.37-.16.75-.24,1.16-.24.17,0,.31,0,.43.02.12.02.23.04.35.07l-.02,1.44c-.18-.07-.34-.12-.47-.14-.13-.02-.3-.02-.49-.02-.47,0-.87.1-1.2.31-.33.21-.58.49-.75.84-.17.35-.26.73-.26,1.14v4.54h-1.63Z"/>
          <path class="cls-3" d="M119.56,463.75v-6.13c0-.31-.01-.63-.04-.95-.03-.33-.06-.65-.09-.98h1.57l.14,1.7h-.19c.22-.59.57-1.04,1.03-1.36s1.02-.48,1.67-.48,1.2.16,1.62.47c.42.31.71.8.87,1.45h-.26c.21-.59.58-1.05,1.09-1.4.51-.35,1.1-.52,1.78-.52.9,0,1.57.26,2.02.78.45.52.67,1.33.67,2.43v4.99h-1.62v-4.91c0-.7-.12-1.21-.36-1.53s-.63-.47-1.16-.47c-.62,0-1.11.21-1.47.64-.36.43-.54,1-.54,1.73v4.54h-1.62v-4.91c0-.7-.12-1.21-.36-1.53-.24-.31-.63-.47-1.16-.47-.62,0-1.1.21-1.46.64-.35.43-.53,1-.53,1.73v4.54h-1.62Z"/>
          <path class="cls-3" d="M137.5,463.9c-1.3,0-2.33-.37-3.07-1.1-.75-.74-1.12-1.75-1.12-3.06,0-.84.16-1.58.49-2.21.33-.63.78-1.12,1.36-1.46.58-.35,1.26-.52,2.02-.52s1.39.16,1.9.48c.51.32.9.77,1.17,1.35.27.58.4,1.27.4,2.06v.51h-6.08v-.93h4.98l-.27.21c0-.8-.18-1.42-.54-1.86-.36-.44-.87-.66-1.54-.66-.75,0-1.32.26-1.73.78-.41.52-.61,1.23-.61,2.14v.16c0,.95.23,1.66.7,2.14s1.12.72,1.98.72c.47,0,.91-.07,1.32-.2.41-.13.8-.35,1.18-.66l.53,1.1c-.37.33-.83.58-1.36.76-.53.18-1.1.26-1.7.26Z"/>
          <path class="cls-3" d="M142.04,463.75v-1.07l5.25-6.14.02.4h-5.26v-1.25h6.74v1.07l-5.3,6.19-.02-.43h5.49v1.23h-6.91Z"/>
          <path class="cls-3" d="M157.44,463.75l-3.46-8.06h1.73l2.72,6.74h-.46l2.77-6.74h1.65l-3.47,8.06h-1.47Z"/>
          <path class="cls-3" d="M166.97,463.9c-.8,0-1.49-.17-2.08-.5-.59-.34-1.04-.82-1.36-1.44s-.48-1.37-.48-2.23.16-1.61.48-2.23.77-1.1,1.36-1.44c.59-.34,1.28-.5,2.08-.5s1.5.17,2.09.5,1.05.82,1.38,1.44c.33.62.49,1.37.49,2.23s-.16,1.61-.49,2.23c-.33.62-.78,1.1-1.38,1.44s-1.29.5-2.09.5ZM166.97,462.63c.7,0,1.26-.25,1.68-.74s.62-1.22.62-2.18-.21-1.68-.62-2.17c-.42-.48-.98-.73-1.68-.73s-1.25.24-1.66.73c-.42.49-.62,1.21-.62,2.17s.21,1.69.62,2.18.97.74,1.66.74Z"/>
          <path class="cls-3" d="M175.87,463.9c-.87,0-1.54-.24-1.98-.71s-.67-1.19-.67-2.14v-4.11h-1.57v-1.25h1.57v-2.13l1.62-.43v2.56h2.24v1.25h-2.24v3.97c0,.6.11,1.02.32,1.28.21.26.52.38.93.38.2,0,.38-.02.54-.06.15-.04.3-.08.42-.14v1.31c-.16.06-.35.11-.56.15-.21.04-.42.06-.61.06Z"/>
          <path class="cls-3" d="M178.51,463.75v-6.06c0-.33,0-.66-.02-1-.02-.34-.04-.67-.07-1h1.57l.18,2.08h-.26c.11-.5.29-.92.54-1.25s.57-.58.94-.74c.37-.16.75-.24,1.16-.24.17,0,.31,0,.43.02.12.02.23.04.35.07l-.02,1.44c-.18-.07-.34-.12-.47-.14-.13-.02-.3-.02-.49-.02-.47,0-.87.1-1.2.31-.33.21-.58.49-.75.84-.17.35-.26.73-.26,1.14v4.54h-1.63Z"/>
          <path class="cls-3" d="M188.19,463.9c-1.3,0-2.33-.37-3.07-1.1-.75-.74-1.12-1.75-1.12-3.06,0-.84.16-1.58.49-2.21.33-.63.78-1.12,1.36-1.46.58-.35,1.26-.52,2.02-.52s1.39.16,1.9.48c.51.32.9.77,1.17,1.35.27.58.4,1.27.4,2.06v.51h-6.08v-.93h4.98l-.27.21c0-.8-.18-1.42-.54-1.86-.36-.44-.87-.66-1.54-.66-.75,0-1.32.26-1.73.78-.41.52-.61,1.23-.61,2.14v.16c0,.95.23,1.66.7,2.14s1.12.72,1.98.72c.47,0,.91-.07,1.32-.2.41-.13.8-.35,1.18-.66l.53,1.1c-.37.33-.83.58-1.36.76-.53.18-1.1.26-1.7.26Z"/>
          <path class="cls-3" d="M200.56,463.9c-.7,0-1.33-.17-1.86-.5-.54-.33-.96-.81-1.25-1.44-.29-.63-.44-1.38-.44-2.24s.15-1.62.44-2.24c.29-.62.71-1.1,1.25-1.43.54-.34,1.16-.5,1.86-.5s1.3.17,1.83.52c.53.35.88.82,1.05,1.42h-.19v-5.5h1.62v11.78h-1.6v-1.82h.19c-.18.61-.53,1.09-1.06,1.44-.52.35-1.14.53-1.84.53ZM200.96,462.63c.69,0,1.25-.25,1.68-.74s.64-1.22.64-2.18-.21-1.68-.64-2.17c-.43-.48-.99-.73-1.68-.73s-1.27.24-1.69.73c-.42.49-.63,1.21-.63,2.17s.21,1.69.63,2.18c.42.49.98.74,1.69.74Z"/>
          <path class="cls-3" d="M210.67,463.9c-.8,0-1.49-.17-2.08-.5s-1.04-.82-1.36-1.44c-.32-.62-.48-1.37-.48-2.23s.16-1.61.48-2.23c.32-.62.77-1.1,1.36-1.44s1.28-.5,2.08-.5,1.5.17,2.09.5,1.05.82,1.38,1.44.49,1.37.49,2.23-.16,1.61-.49,2.23-.78,1.1-1.38,1.44-1.29.5-2.09.5ZM210.67,462.63c.7,0,1.26-.25,1.68-.74s.62-1.22.62-2.18-.21-1.68-.62-2.17c-.42-.48-.98-.73-1.68-.73s-1.25.24-1.66.73c-.42.49-.62,1.21-.62,2.17s.21,1.69.62,2.18.97.74,1.66.74Z"/>
          <path class="cls-3" d="M216.51,463.75v-6.13c0-.31-.01-.63-.04-.95-.03-.33-.06-.65-.09-.98h1.57l.14,1.7h-.19c.25-.6.62-1.05,1.14-1.37s1.1-.47,1.78-.47c.95,0,1.67.26,2.15.78s.73,1.33.73,2.43v4.99h-1.62v-4.9c0-.71-.14-1.23-.42-1.54-.28-.31-.71-.47-1.29-.47-.68,0-1.23.21-1.63.63-.41.42-.61.99-.61,1.7v4.58h-1.62Z"/>
        </g>
      </g>
      <g id="Heading_FR">
        <g>
          <path class="cls-3" d="M23.4,297.04v-18.33h12.45v3.15h-8.4v4.45h7.8v3.15h-7.8v7.59h-4.06Z"/>
          <path class="cls-3" d="M42.77,297.3c-1.14,0-2.15-.27-3.03-.81-.88-.54-1.55-1.33-2.03-2.37s-.71-2.27-.71-3.69.24-2.64.73-3.67c.49-1.02,1.16-1.81,2.03-2.35.87-.55,1.87-.82,3.02-.82,1.06,0,2.01.26,2.85.78.84.52,1.4,1.21,1.68,2.05h-.31l.31-2.55h3.77c-.07.55-.12,1.12-.16,1.69-.04.57-.05,1.14-.05,1.72v9.75h-3.9l-.03-2.47h.31c-.28.83-.83,1.5-1.66,1.99s-1.77.74-2.81.74ZM43.96,294.36c.9,0,1.63-.32,2.18-.95s.83-1.62.83-2.98-.28-2.32-.83-2.95c-.55-.63-1.28-.95-2.18-.95s-1.63.32-2.18.95c-.56.63-.83,1.62-.83,2.95s.27,2.34.82,2.98,1.28.95,2.2.95Z"/>
          <path class="cls-3" d="M53.92,281.7v-3.67h4.24v3.67h-4.24ZM54.05,297.04v-13.16h3.93v13.16h-3.93Z"/>
          <path class="cls-3" d="M67.36,297.3c-1.72,0-3.01-.42-3.87-1.27-.87-.85-1.3-2.14-1.3-3.87v-5.38h-2.5v-2.89h2.5v-3.25l3.93-.96v4.21h3.38v2.89h-3.38v5.2c0,.83.17,1.4.52,1.72s.8.47,1.35.47c.31,0,.58-.03.81-.08.22-.05.45-.12.68-.21v3.07c-.33.14-.68.23-1.04.29-.36.05-.72.08-1.07.08Z"/>
          <path class="cls-3" d="M78,297.3c-2.29,0-4.07-.61-5.36-1.83-1.28-1.22-1.92-2.9-1.92-5.03,0-1.35.27-2.54.82-3.56.55-1.02,1.31-1.82,2.29-2.4s2.13-.87,3.45-.87,2.41.28,3.26.83c.86.55,1.51,1.33,1.96,2.33.45,1,.68,2.15.68,3.47v.91h-9.23v-1.92h6.4l-.44.36c0-1.11-.23-1.95-.68-2.51-.45-.56-1.09-.84-1.92-.84-.94,0-1.65.34-2.15,1.01-.49.68-.74,1.65-.74,2.91v.39c0,1.3.32,2.26.96,2.89.64.62,1.55.94,2.73.94.73,0,1.41-.09,2.04-.27.63-.18,1.24-.47,1.81-.87l1.07,2.6c-.62.47-1.37.83-2.24,1.09-.87.26-1.79.39-2.78.39Z"/>
          <path class="cls-3" d="M90.53,297.3c-1.16,0-2.23-.13-3.21-.39-.98-.26-1.8-.62-2.46-1.07l.99-2.6c.68.43,1.43.77,2.25,1s1.64.35,2.46.35,1.35-.13,1.7-.38c.35-.25.53-.58.53-1,0-.31-.12-.57-.35-.77s-.59-.35-1.08-.46l-2.7-.49c-1.11-.21-1.96-.61-2.55-1.22-.59-.61-.88-1.4-.88-2.37,0-.87.23-1.62.69-2.26.46-.64,1.12-1.14,1.99-1.51.87-.36,1.88-.55,3.04-.55.99,0,1.92.12,2.81.36.88.24,1.64.62,2.26,1.14l-1.07,2.5c-.52-.4-1.14-.71-1.86-.95-.72-.23-1.39-.35-2.02-.35-.81,0-1.41.13-1.78.39-.37.26-.56.6-.56,1.01,0,.31.11.57.33.78s.56.36,1.03.47l2.68.47c1.16.21,2.04.6,2.65,1.18.61.58.91,1.37.91,2.38,0,.92-.25,1.7-.74,2.34-.49.64-1.17,1.13-2.04,1.47-.87.34-1.87.51-3.02.51Z"/>
          <path class="cls-3" d="M110.89,297.3c-1.65,0-2.87-.45-3.68-1.35s-1.21-2.28-1.21-4.13v-7.93h3.93v7.9c0,.85.18,1.47.53,1.87.36.4.88.6,1.57.6.78,0,1.42-.27,1.94-.82s.77-1.27.77-2.17v-7.38h3.93v13.16h-3.85v-2.52h.42c-.42.9-.99,1.59-1.73,2.07-.74.48-1.61.71-2.61.71Z"/>
          <path class="cls-3" d="M121.86,297.04v-9.75c0-.57-.01-1.14-.04-1.72-.03-.57-.08-1.14-.17-1.69h3.8l.29,2.44h-.31c.43-.87,1.05-1.54,1.86-2.02.81-.48,1.73-.71,2.77-.71,1.54,0,2.7.45,3.47,1.34.77.89,1.16,2.27,1.16,4.15v7.96h-3.93v-7.77c0-.95-.18-1.63-.53-2.03s-.87-.6-1.55-.6c-.87,0-1.56.27-2.09.82-.53.55-.79,1.28-.79,2.2v7.38h-3.93Z"/>
          <path class="cls-3" d="M150.3,297.3c-1.13,0-2.13-.27-3.02-.81-.88-.54-1.57-1.33-2.05-2.37s-.73-2.27-.73-3.69.24-2.64.73-3.67c.49-1.02,1.17-1.81,2.05-2.35.88-.55,1.89-.82,3.02-.82,1.06,0,2,.25,2.82.74.82.49,1.38,1.16,1.68,1.99h-.36v-8.42h3.93v19.14h-3.85v-2.6h.31c-.26.88-.81,1.58-1.65,2.09-.84.51-1.8.77-2.87.77ZM151.5,294.36c.9,0,1.63-.32,2.2-.95s.85-1.62.85-2.98-.28-2.32-.85-2.95c-.56-.63-1.3-.95-2.2-.95s-1.63.32-2.2.95c-.56.63-.84,1.62-.84,2.95s.28,2.34.84,2.98,1.3.95,2.2.95Z"/>
          <path class="cls-3" d="M167.83,297.3c-1.4,0-2.62-.28-3.65-.83-1.03-.55-1.83-1.34-2.39-2.37-.56-1.02-.84-2.24-.84-3.67s.28-2.63.84-3.64c.56-1,1.36-1.79,2.39-2.35,1.03-.56,2.26-.84,3.68-.84s2.62.28,3.65.84c1.03.56,1.83,1.36,2.39,2.38.56,1.02.84,2.23.84,3.61s-.28,2.64-.84,3.67c-.56,1.02-1.36,1.81-2.39,2.37s-2.26.83-3.68.83ZM167.85,294.36c.88,0,1.59-.32,2.13-.95s.81-1.62.81-2.95-.27-2.34-.81-2.98c-.54-.63-1.25-.95-2.13-.95s-1.62.32-2.16.95c-.54.63-.81,1.62-.81,2.98s.26,2.32.79,2.95c.53.63,1.25.95,2.17.95Z"/>
          <path class="cls-3" d="M177.26,297.04v-9.75c0-.57-.01-1.14-.04-1.72-.03-.57-.08-1.14-.17-1.69h3.8l.29,2.44h-.31c.43-.87,1.05-1.54,1.86-2.02.81-.48,1.73-.71,2.77-.71,1.54,0,2.7.45,3.47,1.34.77.89,1.16,2.27,1.16,4.15v7.96h-3.93v-7.77c0-.95-.18-1.63-.53-2.03s-.87-.6-1.55-.6c-.87,0-1.56.27-2.09.82-.53.55-.79,1.28-.79,2.2v7.38h-3.93Z"/>
          <path class="cls-3" d="M23.11,323.04v-9.75c0-.57-.01-1.14-.04-1.72-.03-.57-.08-1.14-.17-1.69h3.8l.29,2.44h-.31c.36-.85.93-1.52,1.69-2s1.66-.73,2.68-.73,1.83.24,2.52.71c.69.48,1.18,1.22,1.46,2.22h-.42c.4-.92,1.01-1.64,1.85-2.16s1.77-.78,2.81-.78c1.49,0,2.6.45,3.34,1.34.74.89,1.1,2.27,1.1,4.15v7.96h-3.93v-7.8c0-.94-.15-1.6-.46-2-.3-.4-.78-.6-1.44-.6-.78,0-1.4.28-1.85.84-.45.56-.68,1.32-.68,2.28v7.28h-3.93v-7.8c0-.94-.15-1.6-.45-2-.3-.4-.77-.6-1.39-.6-.8,0-1.42.28-1.87.84-.45.56-.68,1.32-.68,2.28v7.28h-3.93Z"/>
          <path class="cls-3" d="M51.95,323.3c-1.14,0-2.15-.27-3.03-.81-.88-.54-1.55-1.33-2.03-2.37s-.71-2.27-.71-3.69.24-2.64.73-3.67c.49-1.02,1.16-1.81,2.03-2.35.87-.55,1.87-.82,3.02-.82,1.06,0,2.01.26,2.85.78s1.4,1.21,1.68,2.05h-.31l.31-2.55h3.77c-.07.55-.12,1.12-.16,1.69-.04.57-.05,1.14-.05,1.72v9.75h-3.9l-.03-2.47h.31c-.28.83-.83,1.5-1.66,1.99s-1.77.74-2.81.74ZM53.14,320.36c.9,0,1.63-.32,2.18-.95s.83-1.62.83-2.98-.28-2.32-.83-2.95c-.55-.63-1.28-.95-2.18-.95s-1.63.32-2.18.95c-.55.63-.83,1.62-.83,2.95s.27,2.34.82,2.98,1.28.95,2.2.95Z"/>
          <path class="cls-3" d="M63.1,307.7v-3.67h4.24v3.67h-4.24ZM63.23,323.04v-13.16h3.93v13.16h-3.93Z"/>
          <path class="cls-3" d="M70.35,323.04v-9.75c0-.57-.01-1.14-.04-1.72-.03-.57-.08-1.14-.17-1.69h3.8l.29,2.44h-.31c.43-.87,1.05-1.54,1.86-2.02.81-.48,1.73-.71,2.77-.71,1.54,0,2.7.45,3.47,1.34.77.89,1.16,2.27,1.16,4.15v7.96h-3.93v-7.77c0-.95-.18-1.63-.53-2.03s-.87-.6-1.55-.6c-.87,0-1.56.27-2.09.82-.53.55-.79,1.28-.79,2.2v7.38h-3.93Z"/>
          <path class="cls-3" d="M92.48,323.3c-1.72,0-3.01-.42-3.87-1.27-.87-.85-1.3-2.14-1.3-3.87v-5.38h-2.5v-2.89h2.5v-3.25l3.93-.96v4.21h3.38v2.89h-3.38v5.2c0,.83.17,1.4.52,1.72s.8.47,1.35.47c.31,0,.58-.03.81-.08.23-.05.45-.12.68-.21v3.07c-.33.14-.68.23-1.04.29-.36.05-.72.08-1.07.08Z"/>
          <path class="cls-3" d="M103.11,323.3c-2.29,0-4.07-.61-5.36-1.83-1.28-1.22-1.92-2.9-1.92-5.03,0-1.35.27-2.54.82-3.56.55-1.02,1.31-1.82,2.29-2.4.98-.58,2.13-.87,3.45-.87s2.4.28,3.26.83c.86.55,1.51,1.33,1.96,2.33.45,1,.68,2.15.68,3.47v.91h-9.23v-1.92h6.4l-.44.36c0-1.11-.23-1.95-.68-2.51-.45-.56-1.09-.84-1.92-.84-.94,0-1.65.34-2.14,1.01-.49.68-.74,1.65-.74,2.91v.39c0,1.3.32,2.26.96,2.89.64.62,1.55.94,2.73.94.73,0,1.41-.09,2.04-.27.63-.18,1.23-.47,1.81-.87l1.07,2.6c-.62.47-1.37.83-2.24,1.09-.87.26-1.79.39-2.78.39Z"/>
          <path class="cls-3" d="M110.76,323.04v-9.75c0-.57-.01-1.14-.04-1.72-.03-.57-.08-1.14-.17-1.69h3.8l.29,2.44h-.31c.43-.87,1.05-1.54,1.86-2.02.81-.48,1.73-.71,2.77-.71,1.54,0,2.7.45,3.47,1.34.77.89,1.16,2.27,1.16,4.15v7.96h-3.93v-7.77c0-.95-.18-1.63-.53-2.03s-.87-.6-1.55-.6c-.87,0-1.56.27-2.09.82-.53.55-.79,1.28-.79,2.2v7.38h-3.93Z"/>
          <path class="cls-3" d="M131.84,323.3c-1.14,0-2.15-.27-3.03-.81-.88-.54-1.55-1.33-2.03-2.37s-.71-2.27-.71-3.69.24-2.64.73-3.67c.49-1.02,1.16-1.81,2.03-2.35.87-.55,1.87-.82,3.02-.82,1.06,0,2.01.26,2.85.78s1.4,1.21,1.68,2.05h-.31l.31-2.55h3.77c-.07.55-.12,1.12-.16,1.69-.04.57-.05,1.14-.05,1.72v9.75h-3.9l-.03-2.47h.31c-.28.83-.83,1.5-1.66,1.99s-1.77.74-2.81.74ZM133.04,320.36c.9,0,1.63-.32,2.18-.95s.83-1.62.83-2.98-.28-2.32-.83-2.95c-.55-.63-1.28-.95-2.18-.95s-1.63.32-2.18.95c-.55.63-.83,1.62-.83,2.95s.27,2.34.82,2.98,1.28.95,2.2.95Z"/>
          <path class="cls-3" d="M143.13,323.04v-9.75c0-.57-.01-1.14-.04-1.72-.03-.57-.08-1.14-.17-1.69h3.8l.29,2.44h-.31c.43-.87,1.05-1.54,1.86-2.02.81-.48,1.73-.71,2.77-.71,1.54,0,2.7.45,3.47,1.34.77.89,1.16,2.27,1.16,4.15v7.96h-3.93v-7.77c0-.95-.18-1.63-.53-2.03s-.87-.6-1.55-.6c-.87,0-1.56.27-2.09.82-.53.55-.79,1.28-.79,2.2v7.38h-3.93Z"/>
          <path class="cls-3" d="M165.25,323.3c-1.72,0-3.01-.42-3.87-1.27-.87-.85-1.3-2.14-1.3-3.87v-5.38h-2.5v-2.89h2.5v-3.25l3.93-.96v4.21h3.38v2.89h-3.38v5.2c0,.83.17,1.4.52,1.72s.8.47,1.35.47c.31,0,.58-.03.81-.08.22-.05.45-.12.68-.21v3.07c-.33.14-.68.23-1.04.29-.36.05-.72.08-1.07.08Z"/>
          <path class="cls-3" d="M170.04,317.24l-1.22-12.53h4.81l-1.2,12.53h-2.39ZM169.1,323.04v-4.16h4.24v4.16h-4.24Z"/>
        </g>
      </g>
    </g>
    <g id="BrandMsg_FR" data-name="BrandMsg FR">
      <g>
        <g>
          <path class="cls-3" d="M273.99,257.88h-7.75v-3.17c0-.81.19-1.44.58-1.89s.92-.67,1.61-.67c.46,0,.84.1,1.16.3.32.2.56.48.73.85.17.36.25.79.25,1.27l-.14-.2v-.22c0-.3.07-.57.22-.81.15-.24.39-.43.74-.57l2.61-1.1v1l-2.56,1.06c-.33.12-.54.31-.64.56-.1.25-.15.56-.15.94v1.74h3.36v.91ZM269.92,256.97v-2.12c0-.59-.13-1.03-.38-1.34-.25-.3-.62-.46-1.09-.46s-.84.15-1.09.46c-.25.3-.37.75-.37,1.34v2.12h2.94Z"/>
          <path class="cls-3" d="M274.08,248.04c0,.87-.25,1.55-.75,2.05-.5.5-1.2.75-2.1.75-.58,0-1.08-.11-1.51-.33-.43-.22-.76-.53-1-.92s-.36-.85-.36-1.36.11-.93.32-1.28c.21-.34.51-.61.91-.79.39-.18.86-.27,1.39-.27h.33v4.28h-.56v-3.7l.14.19c-.59,0-1.05.13-1.38.4-.33.26-.5.66-.5,1.18,0,.55.19.98.58,1.29s.9.46,1.56.46h.1c.69,0,1.21-.17,1.57-.51.36-.34.53-.82.53-1.44,0-.33-.05-.64-.15-.93-.1-.29-.26-.57-.49-.83l.63-.31c.24.24.42.55.54.92.13.37.19.76.19,1.17Z"/>
          <path class="cls-3" d="M273.99,244.51h-4.25c-.21,0-.42,0-.63.03-.22.02-.43.04-.64.06v-.86l1.21-.11v.13c-.42-.16-.75-.42-.97-.78-.22-.36-.33-.77-.33-1.24,0-.65.17-1.15.52-1.48s.9-.5,1.64-.5h3.45v.89h-3.4c-.52,0-.9.1-1.14.31s-.36.53-.36.97c0,.51.16.92.47,1.22s.74.45,1.26.45h3.16v.89Z"/>
          <path class="cls-3" d="M274.08,235.97c0,.48-.12.91-.35,1.28-.23.37-.56.65-.98.85-.42.2-.93.3-1.53.3s-1.11-.1-1.54-.3c-.43-.2-.75-.49-.98-.85s-.34-.79-.34-1.28.12-.93.37-1.29.59-.61,1.01-.73v.13h-3.86v-.89h8.1v.88h-1.32v-.12c.44.12.79.36,1.04.73.25.37.38.8.38,1.3ZM273.36,235.78c0-.52-.18-.94-.54-1.25s-.89-.47-1.59-.47-1.24.16-1.6.47c-.36.32-.54.73-.54,1.25s.18.94.54,1.25c.36.31.9.47,1.6.47s1.23-.16,1.59-.47.54-.73.54-1.25Z"/>
          <path class="cls-3" d="M274.08,229.51c0,.65-.18,1.15-.54,1.48s-.91.5-1.65.5h-3.43v-.89h3.41c.51,0,.88-.1,1.12-.31.24-.21.36-.52.36-.96,0-.48-.16-.87-.47-1.17-.32-.29-.74-.44-1.26-.44h-3.15v-.89h5.52v.87h-1.24v-.14c.43.15.75.4.99.74.23.34.35.74.35,1.2Z"/>
          <path class="cls-3" d="M276.36,222.24h-6.62c-.21,0-.42,0-.63.03-.22.02-.43.04-.64.06v-.86l1.31-.12v.13c-.43-.12-.78-.36-1.03-.71-.25-.36-.38-.79-.38-1.29s.11-.93.34-1.29c.23-.36.55-.65.98-.85.42-.21.94-.31,1.54-.31s1.1.1,1.53.3c.43.2.75.49.98.85.23.37.35.8.35,1.3s-.12.92-.37,1.28c-.25.36-.59.6-1.02.71v-.12h3.67v.89ZM273.36,219.66c0-.53-.18-.95-.54-1.26s-.89-.47-1.59-.47-1.24.16-1.6.47c-.36.31-.54.73-.54,1.26s.18.94.54,1.25c.36.31.9.47,1.6.47s1.23-.16,1.59-.47c.36-.31.54-.73.54-1.25Z"/>
          <path class="cls-3" d="M274.08,213.36c0,.54-.12,1-.35,1.39-.23.39-.56.69-.99.91-.43.21-.94.32-1.52.32s-1.1-.11-1.53-.32c-.43-.21-.75-.52-.98-.91-.23-.39-.35-.85-.35-1.38s.12-1,.35-1.39c.23-.39.56-.7.98-.91.42-.22.93-.32,1.53-.32s1.09.11,1.52.32c.43.22.76.52.99.91.23.39.35.85.35,1.38ZM273.36,213.36c0-.52-.18-.94-.54-1.24-.36-.31-.89-.46-1.59-.46s-1.24.16-1.6.47c-.36.31-.54.73-.54,1.25s.18.93.54,1.24c.36.31.9.46,1.6.46s1.23-.15,1.59-.46.54-.73.54-1.25Z"/>
          <path class="cls-3" d="M274.08,207.52c0,.44-.06.85-.18,1.23-.12.38-.29.7-.51.95l-.63-.31c.21-.27.37-.57.47-.89.1-.32.15-.65.15-1,0-.44-.08-.77-.24-1-.16-.22-.38-.34-.65-.34-.21,0-.38.07-.51.21-.13.14-.23.38-.3.7l-.21,1.02c-.1.47-.28.82-.52,1.06-.25.23-.56.35-.94.35-.32,0-.61-.08-.85-.25-.25-.17-.44-.41-.58-.74-.14-.32-.21-.7-.21-1.13,0-.4.06-.78.18-1.12.12-.34.29-.63.52-.85l.62.32c-.21.22-.37.47-.48.75-.11.28-.16.57-.16.87,0,.43.09.76.26.97s.4.32.68.32c.21,0,.39-.07.52-.2s.24-.35.3-.63l.21-1.02c.11-.5.28-.87.51-1.12.23-.25.54-.37.93-.37.33,0,.62.09.86.27.25.18.43.44.57.76.13.33.2.71.2,1.15Z"/>
          <path class="cls-3" d="M274.08,202.07c0,.44-.06.85-.18,1.23-.12.38-.29.7-.51.95l-.63-.31c.21-.27.37-.57.47-.89.1-.32.15-.65.15-1,0-.44-.08-.77-.24-1-.16-.22-.38-.34-.65-.34-.21,0-.38.07-.51.21-.13.14-.23.38-.3.7l-.21,1.02c-.1.47-.28.82-.52,1.06-.25.23-.56.35-.94.35-.32,0-.61-.08-.85-.25-.25-.17-.44-.41-.58-.74-.14-.32-.21-.7-.21-1.13,0-.4.06-.78.18-1.12.12-.34.29-.63.52-.85l.62.32c-.21.22-.37.47-.48.75-.11.28-.16.57-.16.87,0,.43.09.76.26.97s.4.32.68.32c.21,0,.39-.07.52-.2s.24-.35.3-.63l.21-1.02c.11-.5.28-.87.51-1.12.23-.25.54-.37.93-.37.33,0,.62.09.86.27.25.18.43.44.57.76.13.33.2.71.2,1.15Z"/>
          <path class="cls-3" d="M267.21,198.56h-1v-1.1h1v1.1ZM273.99,198.45h-5.52v-.89h5.52v.89Z"/>
          <path class="cls-3" d="M274.08,193.06c0,.5-.13.93-.38,1.29-.25.36-.6.6-1.04.73v-.12h1.32v.88h-8.1v-.89h3.86v.13c-.42-.12-.76-.37-1.01-.73s-.37-.79-.37-1.29.12-.93.35-1.29c.23-.36.56-.65.98-.85.42-.2.93-.3,1.53-.3s1.1.1,1.53.31c.43.21.75.49.98.85.23.36.35.79.35,1.28ZM273.36,193.25c0-.52-.18-.94-.54-1.25s-.89-.47-1.6-.47-1.24.16-1.6.47c-.36.32-.54.73-.54,1.25s.18.94.54,1.25c.36.31.9.47,1.6.47s1.23-.16,1.59-.47c.36-.31.54-.73.54-1.25Z"/>
          <path class="cls-3" d="M273.99,189.23h-8.1v-.89h8.1v.89Z"/>
          <path class="cls-3" d="M274.08,184.16c0,.87-.25,1.55-.75,2.05-.5.5-1.2.75-2.1.75-.58,0-1.08-.11-1.51-.33-.43-.22-.76-.53-1-.92s-.36-.85-.36-1.36.11-.93.32-1.28c.21-.34.51-.61.91-.79.39-.18.86-.27,1.39-.27h.33v4.28h-.56v-3.7l.14.19c-.59,0-1.05.13-1.38.4-.33.26-.5.66-.5,1.18,0,.55.19.98.58,1.29s.9.46,1.56.46h.1c.69,0,1.21-.17,1.57-.51.36-.34.53-.82.53-1.44,0-.33-.05-.64-.15-.93-.1-.29-.26-.57-.49-.83l.63-.31c.24.24.42.55.54.92.13.37.19.76.19,1.17Z"/>
          <path class="cls-3" d="M276.44,175.33c0,.48-.06.92-.18,1.32s-.3.77-.54,1.09l-.67-.26c.16-.23.29-.45.39-.67.09-.22.17-.45.21-.68.05-.23.07-.48.07-.75,0-.54-.14-.95-.43-1.23s-.69-.42-1.22-.42h-1.62v-.11c.43.12.78.36,1.03.73s.38.8.38,1.29-.11.94-.34,1.31c-.22.37-.54.66-.96.86-.41.2-.9.3-1.47.3s-1.04-.1-1.45-.3c-.41-.2-.73-.49-.95-.86-.22-.37-.33-.81-.33-1.31s.12-.93.37-1.29c.25-.36.59-.6,1.03-.72l-.11.11-1.2-.1v-.87c.21.03.43.05.64.07.22.01.43.02.63.02h4.21c.82,0,1.44.21,1.86.63.42.42.63,1.04.63,1.85ZM273.14,175.46c0-.54-.18-.96-.53-1.27s-.86-.46-1.5-.46-1.14.15-1.5.46c-.35.31-.53.73-.53,1.27s.18.95.53,1.27c.35.32.85.47,1.5.47s1.15-.16,1.5-.47.53-.74.53-1.27Z"/>
          <path class="cls-3" d="M273.99,171.15h-4.19c-.22,0-.44,0-.67.02-.23.01-.45.03-.66.05v-.86l1.34-.11v.15c-.32-.07-.59-.2-.8-.38-.21-.18-.37-.4-.48-.65s-.16-.51-.16-.78c0-.11,0-.21.01-.29,0-.08.03-.16.05-.24h.79c-.04.12-.06.22-.07.31s-.02.2-.02.31c0,.32.08.6.23.84.15.24.35.42.59.54.24.12.5.18.77.18h3.26v.9Z"/>
          <path class="cls-3" d="M267.92,166.4l-2.22-1.2v-.86l2.22-1.2v.62l-1.63,1.01,1.63,1.01v.62ZM274.08,165.03c0,.49-.12.92-.35,1.29-.23.37-.56.65-.98.85-.42.2-.93.3-1.53.3s-1.11-.1-1.54-.3c-.43-.2-.75-.49-.98-.85s-.34-.8-.34-1.29.13-.93.38-1.29c.25-.36.6-.6,1.03-.72v.13l-1.31-.12v-.86c.21.02.43.04.64.06.22.02.43.03.63.03h4.25v.89h-1.3v-.12c.43.12.77.36,1.02.73.25.37.37.79.37,1.28ZM273.36,164.86c0-.53-.18-.95-.54-1.25s-.89-.46-1.59-.46-1.24.15-1.6.46c-.36.31-.54.73-.54,1.25s.18.94.54,1.25c.36.31.9.47,1.6.47s1.23-.16,1.59-.47.54-.73.54-1.25Z"/>
          <path class="cls-3" d="M274.08,158.21c0,.54-.12,1.01-.35,1.41-.24.4-.57.71-1,.92s-.95.32-1.54.32-1.11-.11-1.54-.33c-.42-.22-.74-.53-.96-.93-.22-.4-.33-.87-.33-1.4,0-.35.06-.69.19-1.03.12-.33.3-.61.53-.83l.64.32c-.21.22-.37.46-.47.72s-.15.52-.15.76c0,.57.18,1.02.54,1.33.36.32.88.47,1.57.47s1.21-.16,1.58-.47c.37-.31.56-.76.56-1.33,0-.24-.05-.49-.14-.75-.09-.26-.25-.5-.47-.73l.63-.32c.23.23.41.51.54.85.12.34.19.67.19,1.01Z"/>
          <path class="cls-3" d="M274.08,152.74c0,.87-.25,1.55-.75,2.05-.5.5-1.2.75-2.1.75-.58,0-1.08-.11-1.51-.33-.43-.22-.76-.53-1-.92s-.36-.85-.36-1.36.11-.93.32-1.28c.21-.34.51-.61.91-.79.39-.18.86-.27,1.39-.27h.33v4.28h-.56v-3.7l.14.19c-.59,0-1.05.13-1.38.4-.33.26-.5.66-.5,1.18,0,.55.19.98.58,1.29s.9.46,1.56.46h.1c.69,0,1.21-.17,1.57-.51.36-.34.53-.82.53-1.44,0-.33-.05-.64-.15-.93-.1-.29-.26-.57-.49-.83l.63-.31c.24.24.42.55.54.92.13.37.19.76.19,1.17Z"/>
          <path class="cls-3" d="M267.92,144.3l-2.22,1.45v-.96l2.22-1.13v.64ZM274.08,144.24c0,.49-.12.92-.35,1.29-.23.37-.56.65-.98.85-.42.2-.93.3-1.53.3s-1.11-.1-1.54-.3c-.43-.2-.75-.49-.98-.85s-.34-.8-.34-1.29.13-.93.38-1.29c.25-.36.6-.6,1.03-.72v.13l-1.31-.12v-.86c.21.02.43.04.64.06.22.02.43.03.63.03h4.25v.89h-1.3v-.12c.43.12.77.36,1.02.73.25.37.37.79.37,1.28ZM273.36,144.07c0-.53-.18-.95-.54-1.25s-.89-.46-1.59-.46-1.24.15-1.6.46c-.36.31-.54.73-.54,1.25s.18.94.54,1.25c.36.31.9.47,1.6.47s1.23-.16,1.59-.47.54-.73.54-1.25Z"/>
        </g>
        <g class="cls-9">
          <path class="cls-8" d="M267.95,117.79c0-.91.21-1.69.63-2.24l1.22.79c-.25.4-.38.86-.38,1.33,0,.33.12.56.34.56.24,0,.37-.29.49-.67l.11-.36c.31-1.02.77-1.75,1.87-1.75,1.2,0,1.99.99,1.99,2.45,0,.89-.24,1.67-.76,2.26l-1.15-.7c.28-.48.42-1.02.42-1.58,0-.31-.13-.52-.36-.52-.27,0-.39.3-.54.76l-.11.37c-.3.98-.68,1.66-1.68,1.66-1.28,0-2.13-.93-2.13-2.35ZM267.95,96.07c0-1.97,1.26-3.3,3.14-3.3s3.15,1.33,3.15,3.3-1.26,3.33-3.15,3.33-3.14-1.33-3.14-3.33ZM267.95,126.46c0-1.6.93-2.67,2.37-2.67h3.81v1.82l-.69.03c.51.39.81.99.8,1.63,0,1.29-.78,2.14-1.95,2.14s-1.98-1.04-1.98-2.62c0-.38.04-.75.11-1.12-.63.02-.99.48-.99,1.28-.01.46.13.91.39,1.29l-1.11.8c-.5-.69-.76-1.48-.76-2.58ZM267.95,111.98c0-1.87,1.21-3.1,3.05-3.1.26,0,.55.02.76.04v4.15c.62-.11,1-.44,1-1.17,0-.47-.2-.92-.56-1.22l.71-1.47c.79.52,1.32,1.49,1.32,2.67,0,1.91-1.22,3.19-3.08,3.19s-3.21-1.23-3.21-3.1ZM268.06,120.94h6.06v1.89h-6.06v-1.89ZM265.89,106.97l4.93-4.89-4.93.04v-1.95h8.23v1.2l-4.94,4.9,4.94-.04v1.96h-8.23v-1.21ZM268.06,90.85l3.91-1.28-3.91-1.2v-1.53l3.91-1.19-3.91-1.28v-2.07l6.06,2.26v1.88l-3.72,1.16,3.72,1.16v1.88l-6.06,2.27v-2.05ZM265.89,132.9c0-1.77,1.08-2.94,2.69-2.94,1.04,0,1.85.53,2.3,1.42l1.22-.8,2.02-1.3v2.29l-2.85,1.73v1.31h2.85v1.95h-8.23v-3.66ZM271.6,126.55c0,.56.27.91.66.91s.63-.22.63-.73c0-.56-.43-1.03-1.19-1.05h-.02c-.05.29-.07.58-.08.88ZM269.56,96.08c0,.81.61,1.37,1.52,1.37s1.53-.54,1.53-1.37-.62-1.35-1.53-1.35-1.52.54-1.52,1.36ZM269.43,111.98c0,.63.38.97,1.06,1.1v-2.22c-.68.12-1.06.49-1.06,1.12ZM267.5,133.11v1.5h2.16v-1.32c0-.79-.43-1.32-1.08-1.32s-1.08.46-1.08,1.14ZM265.18,121.87c0-.63.46-1.09,1.09-1.09s1.09.46,1.09,1.09-.46,1.1-1.09,1.1-1.09-.47-1.09-1.1Z"/>
        </g>
      </g>
    </g>
  </g>
</svg>